G04 #@! TF.GenerationSoftware,KiCad,Pcbnew,(5.1.4)-1*
G04 #@! TF.CreationDate,2019-12-04T23:16:08+01:00*
G04 #@! TF.ProjectId,instru_bab_v2,696e7374-7275-45f6-9261-625f76322e6b,rev?*
G04 #@! TF.SameCoordinates,Original*
G04 #@! TF.FileFunction,Other,ECO1*
%FSLAX46Y46*%
G04 Gerber Fmt 4.6, Leading zero omitted, Abs format (unit mm)*
G04 Created by KiCad (PCBNEW (5.1.4)-1) date 2019-12-04 23:16:08*
%MOMM*%
%LPD*%
G04 APERTURE LIST*
%ADD10C,0.200000*%
%ADD11C,0.300000*%
G04 APERTURE END LIST*
D10*
X239666666Y-50000000D02*
G75*
G03X239666666Y-50000000I-1666666J0D01*
G01*
X235500000Y-50000000D02*
X240500000Y-50000000D01*
X238000000Y-47500000D02*
X238000000Y-52500000D01*
X170666666Y-50900000D02*
G75*
G03X170666666Y-50900000I-1666666J0D01*
G01*
X166500000Y-50900000D02*
X171500000Y-50900000D01*
X169000000Y-48400000D02*
X169000000Y-53400000D01*
X170666666Y-80000000D02*
G75*
G03X170666666Y-80000000I-1666666J0D01*
G01*
X166500000Y-80000000D02*
X171500000Y-80000000D01*
X169000000Y-77500000D02*
X169000000Y-82500000D01*
X239666666Y-80000000D02*
G75*
G03X239666666Y-80000000I-1666666J0D01*
G01*
X235500000Y-80000000D02*
X240500000Y-80000000D01*
X238000000Y-77500000D02*
X238000000Y-82500000D01*
D11*
X224642857Y-84028571D02*
X223785714Y-84028571D01*
X224214285Y-84028571D02*
X224214285Y-82528571D01*
X224071428Y-82742857D01*
X223928571Y-82885714D01*
X223785714Y-82957142D01*
X225571428Y-82528571D02*
X225714285Y-82528571D01*
X225857142Y-82600000D01*
X225928571Y-82671428D01*
X226000000Y-82814285D01*
X226071428Y-83100000D01*
X226071428Y-83457142D01*
X226000000Y-83742857D01*
X225928571Y-83885714D01*
X225857142Y-83957142D01*
X225714285Y-84028571D01*
X225571428Y-84028571D01*
X225428571Y-83957142D01*
X225357142Y-83885714D01*
X225285714Y-83742857D01*
X225214285Y-83457142D01*
X225214285Y-83100000D01*
X225285714Y-82814285D01*
X225357142Y-82671428D01*
X225428571Y-82600000D01*
X225571428Y-82528571D01*
X226714285Y-83885714D02*
X226785714Y-83957142D01*
X226714285Y-84028571D01*
X226642857Y-83957142D01*
X226714285Y-83885714D01*
X226714285Y-84028571D01*
X227714285Y-82528571D02*
X227857142Y-82528571D01*
X228000000Y-82600000D01*
X228071428Y-82671428D01*
X228142857Y-82814285D01*
X228214285Y-83100000D01*
X228214285Y-83457142D01*
X228142857Y-83742857D01*
X228071428Y-83885714D01*
X228000000Y-83957142D01*
X227857142Y-84028571D01*
X227714285Y-84028571D01*
X227571428Y-83957142D01*
X227500000Y-83885714D01*
X227428571Y-83742857D01*
X227357142Y-83457142D01*
X227357142Y-83100000D01*
X227428571Y-82814285D01*
X227500000Y-82671428D01*
X227571428Y-82600000D01*
X227714285Y-82528571D01*
X229142857Y-82528571D02*
X229285714Y-82528571D01*
X229428571Y-82600000D01*
X229500000Y-82671428D01*
X229571428Y-82814285D01*
X229642857Y-83100000D01*
X229642857Y-83457142D01*
X229571428Y-83742857D01*
X229500000Y-83885714D01*
X229428571Y-83957142D01*
X229285714Y-84028571D01*
X229142857Y-84028571D01*
X229000000Y-83957142D01*
X228928571Y-83885714D01*
X228857142Y-83742857D01*
X228785714Y-83457142D01*
X228785714Y-83100000D01*
X228857142Y-82814285D01*
X228928571Y-82671428D01*
X229000000Y-82600000D01*
X229142857Y-82528571D01*
X230571428Y-82528571D02*
X230714285Y-82528571D01*
X230857142Y-82600000D01*
X230928571Y-82671428D01*
X231000000Y-82814285D01*
X231071428Y-83100000D01*
X231071428Y-83457142D01*
X231000000Y-83742857D01*
X230928571Y-83885714D01*
X230857142Y-83957142D01*
X230714285Y-84028571D01*
X230571428Y-84028571D01*
X230428571Y-83957142D01*
X230357142Y-83885714D01*
X230285714Y-83742857D01*
X230214285Y-83457142D01*
X230214285Y-83100000D01*
X230285714Y-82814285D01*
X230357142Y-82671428D01*
X230428571Y-82600000D01*
X230571428Y-82528571D01*
X232857142Y-84028571D02*
X232857142Y-83028571D01*
X232857142Y-83171428D02*
X232928571Y-83100000D01*
X233071428Y-83028571D01*
X233285714Y-83028571D01*
X233428571Y-83100000D01*
X233500000Y-83242857D01*
X233500000Y-84028571D01*
X233500000Y-83242857D02*
X233571428Y-83100000D01*
X233714285Y-83028571D01*
X233928571Y-83028571D01*
X234071428Y-83100000D01*
X234142857Y-83242857D01*
X234142857Y-84028571D01*
X234857142Y-84028571D02*
X234857142Y-83028571D01*
X234857142Y-83171428D02*
X234928571Y-83100000D01*
X235071428Y-83028571D01*
X235285714Y-83028571D01*
X235428571Y-83100000D01*
X235500000Y-83242857D01*
X235500000Y-84028571D01*
X235500000Y-83242857D02*
X235571428Y-83100000D01*
X235714285Y-83028571D01*
X235928571Y-83028571D01*
X236071428Y-83100000D01*
X236142857Y-83242857D01*
X236142857Y-84028571D01*
X235000000Y-82000000D02*
X225000000Y-82000000D01*
X235000000Y-80000000D02*
X235000000Y-84700000D01*
X225000000Y-80000000D02*
X225000000Y-84700000D01*
X225000000Y-82000000D02*
X226126504Y-81413579D01*
X225000000Y-82000000D02*
X226126504Y-82586421D01*
X235000000Y-82000000D02*
X233873496Y-81413579D01*
X235000000Y-82000000D02*
X233873496Y-82586421D01*
X174642857Y-84028571D02*
X173785714Y-84028571D01*
X174214285Y-84028571D02*
X174214285Y-82528571D01*
X174071428Y-82742857D01*
X173928571Y-82885714D01*
X173785714Y-82957142D01*
X175571428Y-82528571D02*
X175714285Y-82528571D01*
X175857142Y-82600000D01*
X175928571Y-82671428D01*
X176000000Y-82814285D01*
X176071428Y-83100000D01*
X176071428Y-83457142D01*
X176000000Y-83742857D01*
X175928571Y-83885714D01*
X175857142Y-83957142D01*
X175714285Y-84028571D01*
X175571428Y-84028571D01*
X175428571Y-83957142D01*
X175357142Y-83885714D01*
X175285714Y-83742857D01*
X175214285Y-83457142D01*
X175214285Y-83100000D01*
X175285714Y-82814285D01*
X175357142Y-82671428D01*
X175428571Y-82600000D01*
X175571428Y-82528571D01*
X176714285Y-83885714D02*
X176785714Y-83957142D01*
X176714285Y-84028571D01*
X176642857Y-83957142D01*
X176714285Y-83885714D01*
X176714285Y-84028571D01*
X177714285Y-82528571D02*
X177857142Y-82528571D01*
X178000000Y-82600000D01*
X178071428Y-82671428D01*
X178142857Y-82814285D01*
X178214285Y-83100000D01*
X178214285Y-83457142D01*
X178142857Y-83742857D01*
X178071428Y-83885714D01*
X178000000Y-83957142D01*
X177857142Y-84028571D01*
X177714285Y-84028571D01*
X177571428Y-83957142D01*
X177500000Y-83885714D01*
X177428571Y-83742857D01*
X177357142Y-83457142D01*
X177357142Y-83100000D01*
X177428571Y-82814285D01*
X177500000Y-82671428D01*
X177571428Y-82600000D01*
X177714285Y-82528571D01*
X179142857Y-82528571D02*
X179285714Y-82528571D01*
X179428571Y-82600000D01*
X179500000Y-82671428D01*
X179571428Y-82814285D01*
X179642857Y-83100000D01*
X179642857Y-83457142D01*
X179571428Y-83742857D01*
X179500000Y-83885714D01*
X179428571Y-83957142D01*
X179285714Y-84028571D01*
X179142857Y-84028571D01*
X179000000Y-83957142D01*
X178928571Y-83885714D01*
X178857142Y-83742857D01*
X178785714Y-83457142D01*
X178785714Y-83100000D01*
X178857142Y-82814285D01*
X178928571Y-82671428D01*
X179000000Y-82600000D01*
X179142857Y-82528571D01*
X180571428Y-82528571D02*
X180714285Y-82528571D01*
X180857142Y-82600000D01*
X180928571Y-82671428D01*
X181000000Y-82814285D01*
X181071428Y-83100000D01*
X181071428Y-83457142D01*
X181000000Y-83742857D01*
X180928571Y-83885714D01*
X180857142Y-83957142D01*
X180714285Y-84028571D01*
X180571428Y-84028571D01*
X180428571Y-83957142D01*
X180357142Y-83885714D01*
X180285714Y-83742857D01*
X180214285Y-83457142D01*
X180214285Y-83100000D01*
X180285714Y-82814285D01*
X180357142Y-82671428D01*
X180428571Y-82600000D01*
X180571428Y-82528571D01*
X182857142Y-84028571D02*
X182857142Y-83028571D01*
X182857142Y-83171428D02*
X182928571Y-83100000D01*
X183071428Y-83028571D01*
X183285714Y-83028571D01*
X183428571Y-83100000D01*
X183500000Y-83242857D01*
X183500000Y-84028571D01*
X183500000Y-83242857D02*
X183571428Y-83100000D01*
X183714285Y-83028571D01*
X183928571Y-83028571D01*
X184071428Y-83100000D01*
X184142857Y-83242857D01*
X184142857Y-84028571D01*
X184857142Y-84028571D02*
X184857142Y-83028571D01*
X184857142Y-83171428D02*
X184928571Y-83100000D01*
X185071428Y-83028571D01*
X185285714Y-83028571D01*
X185428571Y-83100000D01*
X185500000Y-83242857D01*
X185500000Y-84028571D01*
X185500000Y-83242857D02*
X185571428Y-83100000D01*
X185714285Y-83028571D01*
X185928571Y-83028571D01*
X186071428Y-83100000D01*
X186142857Y-83242857D01*
X186142857Y-84028571D01*
X175000000Y-82000000D02*
X185000000Y-82000000D01*
X175000000Y-80000000D02*
X175000000Y-84700000D01*
X185000000Y-80000000D02*
X185000000Y-84700000D01*
X185000000Y-82000000D02*
X183873496Y-82586421D01*
X185000000Y-82000000D02*
X183873496Y-81413579D01*
X175000000Y-82000000D02*
X176126504Y-82586421D01*
X175000000Y-82000000D02*
X176126504Y-81413579D01*
X183714285Y-45328571D02*
X184642857Y-45328571D01*
X184142857Y-45900000D01*
X184357142Y-45900000D01*
X184500000Y-45971428D01*
X184571428Y-46042857D01*
X184642857Y-46185714D01*
X184642857Y-46542857D01*
X184571428Y-46685714D01*
X184500000Y-46757142D01*
X184357142Y-46828571D01*
X183928571Y-46828571D01*
X183785714Y-46757142D01*
X183714285Y-46685714D01*
X185571428Y-45328571D02*
X185714285Y-45328571D01*
X185857142Y-45400000D01*
X185928571Y-45471428D01*
X186000000Y-45614285D01*
X186071428Y-45900000D01*
X186071428Y-46257142D01*
X186000000Y-46542857D01*
X185928571Y-46685714D01*
X185857142Y-46757142D01*
X185714285Y-46828571D01*
X185571428Y-46828571D01*
X185428571Y-46757142D01*
X185357142Y-46685714D01*
X185285714Y-46542857D01*
X185214285Y-46257142D01*
X185214285Y-45900000D01*
X185285714Y-45614285D01*
X185357142Y-45471428D01*
X185428571Y-45400000D01*
X185571428Y-45328571D01*
X186785714Y-46757142D02*
X186785714Y-46828571D01*
X186714285Y-46971428D01*
X186642857Y-47042857D01*
X187714285Y-45328571D02*
X187857142Y-45328571D01*
X188000000Y-45400000D01*
X188071428Y-45471428D01*
X188142857Y-45614285D01*
X188214285Y-45900000D01*
X188214285Y-46257142D01*
X188142857Y-46542857D01*
X188071428Y-46685714D01*
X188000000Y-46757142D01*
X187857142Y-46828571D01*
X187714285Y-46828571D01*
X187571428Y-46757142D01*
X187500000Y-46685714D01*
X187428571Y-46542857D01*
X187357142Y-46257142D01*
X187357142Y-45900000D01*
X187428571Y-45614285D01*
X187500000Y-45471428D01*
X187571428Y-45400000D01*
X187714285Y-45328571D01*
X189142857Y-45328571D02*
X189285714Y-45328571D01*
X189428571Y-45400000D01*
X189500000Y-45471428D01*
X189571428Y-45614285D01*
X189642857Y-45900000D01*
X189642857Y-46257142D01*
X189571428Y-46542857D01*
X189500000Y-46685714D01*
X189428571Y-46757142D01*
X189285714Y-46828571D01*
X189142857Y-46828571D01*
X189000000Y-46757142D01*
X188928571Y-46685714D01*
X188857142Y-46542857D01*
X188785714Y-46257142D01*
X188785714Y-45900000D01*
X188857142Y-45614285D01*
X188928571Y-45471428D01*
X189000000Y-45400000D01*
X189142857Y-45328571D01*
X190571428Y-45328571D02*
X190714285Y-45328571D01*
X190857142Y-45400000D01*
X190928571Y-45471428D01*
X191000000Y-45614285D01*
X191071428Y-45900000D01*
X191071428Y-46257142D01*
X191000000Y-46542857D01*
X190928571Y-46685714D01*
X190857142Y-46757142D01*
X190714285Y-46828571D01*
X190571428Y-46828571D01*
X190428571Y-46757142D01*
X190357142Y-46685714D01*
X190285714Y-46542857D01*
X190214285Y-46257142D01*
X190214285Y-45900000D01*
X190285714Y-45614285D01*
X190357142Y-45471428D01*
X190428571Y-45400000D01*
X190571428Y-45328571D01*
X192857142Y-46828571D02*
X192857142Y-45828571D01*
X192857142Y-45971428D02*
X192928571Y-45900000D01*
X193071428Y-45828571D01*
X193285714Y-45828571D01*
X193428571Y-45900000D01*
X193500000Y-46042857D01*
X193500000Y-46828571D01*
X193500000Y-46042857D02*
X193571428Y-45900000D01*
X193714285Y-45828571D01*
X193928571Y-45828571D01*
X194071428Y-45900000D01*
X194142857Y-46042857D01*
X194142857Y-46828571D01*
X194857142Y-46828571D02*
X194857142Y-45828571D01*
X194857142Y-45971428D02*
X194928571Y-45900000D01*
X195071428Y-45828571D01*
X195285714Y-45828571D01*
X195428571Y-45900000D01*
X195500000Y-46042857D01*
X195500000Y-46828571D01*
X195500000Y-46042857D02*
X195571428Y-45900000D01*
X195714285Y-45828571D01*
X195928571Y-45828571D01*
X196071428Y-45900000D01*
X196142857Y-46042857D01*
X196142857Y-46828571D01*
X175000000Y-47500000D02*
X205000000Y-47500000D01*
X175000000Y-50000000D02*
X175000000Y-44800000D01*
X205000000Y-50000000D02*
X205000000Y-44800000D01*
X205000000Y-47500000D02*
X203873496Y-48086421D01*
X205000000Y-47500000D02*
X203873496Y-46913579D01*
X175000000Y-47500000D02*
X176126504Y-48086421D01*
X175000000Y-47500000D02*
X176126504Y-46913579D01*
D10*
X235000000Y-50000000D02*
X175000000Y-50000000D01*
X235000000Y-80000000D02*
X235000000Y-50000000D01*
X175000000Y-80000000D02*
X235000000Y-80000000D01*
X175000000Y-50000000D02*
X175000000Y-80000000D01*
D11*
X199500000Y-42828571D02*
X199214285Y-42828571D01*
X199071428Y-42900000D01*
X199000000Y-42971428D01*
X198857142Y-43185714D01*
X198785714Y-43471428D01*
X198785714Y-44042857D01*
X198857142Y-44185714D01*
X198928571Y-44257142D01*
X199071428Y-44328571D01*
X199357142Y-44328571D01*
X199500000Y-44257142D01*
X199571428Y-44185714D01*
X199642857Y-44042857D01*
X199642857Y-43685714D01*
X199571428Y-43542857D01*
X199500000Y-43471428D01*
X199357142Y-43400000D01*
X199071428Y-43400000D01*
X198928571Y-43471428D01*
X198857142Y-43542857D01*
X198785714Y-43685714D01*
X200571428Y-42828571D02*
X200714285Y-42828571D01*
X200857142Y-42900000D01*
X200928571Y-42971428D01*
X201000000Y-43114285D01*
X201071428Y-43400000D01*
X201071428Y-43757142D01*
X201000000Y-44042857D01*
X200928571Y-44185714D01*
X200857142Y-44257142D01*
X200714285Y-44328571D01*
X200571428Y-44328571D01*
X200428571Y-44257142D01*
X200357142Y-44185714D01*
X200285714Y-44042857D01*
X200214285Y-43757142D01*
X200214285Y-43400000D01*
X200285714Y-43114285D01*
X200357142Y-42971428D01*
X200428571Y-42900000D01*
X200571428Y-42828571D01*
X201785714Y-44257142D02*
X201785714Y-44328571D01*
X201714285Y-44471428D01*
X201642857Y-44542857D01*
X202714285Y-42828571D02*
X202857142Y-42828571D01*
X203000000Y-42900000D01*
X203071428Y-42971428D01*
X203142857Y-43114285D01*
X203214285Y-43400000D01*
X203214285Y-43757142D01*
X203142857Y-44042857D01*
X203071428Y-44185714D01*
X203000000Y-44257142D01*
X202857142Y-44328571D01*
X202714285Y-44328571D01*
X202571428Y-44257142D01*
X202500000Y-44185714D01*
X202428571Y-44042857D01*
X202357142Y-43757142D01*
X202357142Y-43400000D01*
X202428571Y-43114285D01*
X202500000Y-42971428D01*
X202571428Y-42900000D01*
X202714285Y-42828571D01*
X204142857Y-42828571D02*
X204285714Y-42828571D01*
X204428571Y-42900000D01*
X204500000Y-42971428D01*
X204571428Y-43114285D01*
X204642857Y-43400000D01*
X204642857Y-43757142D01*
X204571428Y-44042857D01*
X204500000Y-44185714D01*
X204428571Y-44257142D01*
X204285714Y-44328571D01*
X204142857Y-44328571D01*
X204000000Y-44257142D01*
X203928571Y-44185714D01*
X203857142Y-44042857D01*
X203785714Y-43757142D01*
X203785714Y-43400000D01*
X203857142Y-43114285D01*
X203928571Y-42971428D01*
X204000000Y-42900000D01*
X204142857Y-42828571D01*
X205571428Y-42828571D02*
X205714285Y-42828571D01*
X205857142Y-42900000D01*
X205928571Y-42971428D01*
X206000000Y-43114285D01*
X206071428Y-43400000D01*
X206071428Y-43757142D01*
X206000000Y-44042857D01*
X205928571Y-44185714D01*
X205857142Y-44257142D01*
X205714285Y-44328571D01*
X205571428Y-44328571D01*
X205428571Y-44257142D01*
X205357142Y-44185714D01*
X205285714Y-44042857D01*
X205214285Y-43757142D01*
X205214285Y-43400000D01*
X205285714Y-43114285D01*
X205357142Y-42971428D01*
X205428571Y-42900000D01*
X205571428Y-42828571D01*
X207857142Y-44328571D02*
X207857142Y-43328571D01*
X207857142Y-43471428D02*
X207928571Y-43400000D01*
X208071428Y-43328571D01*
X208285714Y-43328571D01*
X208428571Y-43400000D01*
X208500000Y-43542857D01*
X208500000Y-44328571D01*
X208500000Y-43542857D02*
X208571428Y-43400000D01*
X208714285Y-43328571D01*
X208928571Y-43328571D01*
X209071428Y-43400000D01*
X209142857Y-43542857D01*
X209142857Y-44328571D01*
X209857142Y-44328571D02*
X209857142Y-43328571D01*
X209857142Y-43471428D02*
X209928571Y-43400000D01*
X210071428Y-43328571D01*
X210285714Y-43328571D01*
X210428571Y-43400000D01*
X210500000Y-43542857D01*
X210500000Y-44328571D01*
X210500000Y-43542857D02*
X210571428Y-43400000D01*
X210714285Y-43328571D01*
X210928571Y-43328571D01*
X211071428Y-43400000D01*
X211142857Y-43542857D01*
X211142857Y-44328571D01*
X175000000Y-45000000D02*
X235000000Y-45000000D01*
X175000000Y-50000000D02*
X175000000Y-42300000D01*
X235000000Y-50000000D02*
X235000000Y-42300000D01*
X235000000Y-45000000D02*
X233873496Y-45586421D01*
X235000000Y-45000000D02*
X233873496Y-44413579D01*
X175000000Y-45000000D02*
X176126504Y-45586421D01*
X175000000Y-45000000D02*
X176126504Y-44413579D01*
X169471428Y-58714285D02*
X169471428Y-59642857D01*
X168900000Y-59142857D01*
X168900000Y-59357142D01*
X168828571Y-59500000D01*
X168757142Y-59571428D01*
X168614285Y-59642857D01*
X168257142Y-59642857D01*
X168114285Y-59571428D01*
X168042857Y-59500000D01*
X167971428Y-59357142D01*
X167971428Y-58928571D01*
X168042857Y-58785714D01*
X168114285Y-58714285D01*
X169471428Y-60571428D02*
X169471428Y-60714285D01*
X169400000Y-60857142D01*
X169328571Y-60928571D01*
X169185714Y-61000000D01*
X168900000Y-61071428D01*
X168542857Y-61071428D01*
X168257142Y-61000000D01*
X168114285Y-60928571D01*
X168042857Y-60857142D01*
X167971428Y-60714285D01*
X167971428Y-60571428D01*
X168042857Y-60428571D01*
X168114285Y-60357142D01*
X168257142Y-60285714D01*
X168542857Y-60214285D01*
X168900000Y-60214285D01*
X169185714Y-60285714D01*
X169328571Y-60357142D01*
X169400000Y-60428571D01*
X169471428Y-60571428D01*
X168042857Y-61785714D02*
X167971428Y-61785714D01*
X167828571Y-61714285D01*
X167757142Y-61642857D01*
X169471428Y-62714285D02*
X169471428Y-62857142D01*
X169400000Y-63000000D01*
X169328571Y-63071428D01*
X169185714Y-63142857D01*
X168900000Y-63214285D01*
X168542857Y-63214285D01*
X168257142Y-63142857D01*
X168114285Y-63071428D01*
X168042857Y-63000000D01*
X167971428Y-62857142D01*
X167971428Y-62714285D01*
X168042857Y-62571428D01*
X168114285Y-62500000D01*
X168257142Y-62428571D01*
X168542857Y-62357142D01*
X168900000Y-62357142D01*
X169185714Y-62428571D01*
X169328571Y-62500000D01*
X169400000Y-62571428D01*
X169471428Y-62714285D01*
X169471428Y-64142857D02*
X169471428Y-64285714D01*
X169400000Y-64428571D01*
X169328571Y-64500000D01*
X169185714Y-64571428D01*
X168900000Y-64642857D01*
X168542857Y-64642857D01*
X168257142Y-64571428D01*
X168114285Y-64500000D01*
X168042857Y-64428571D01*
X167971428Y-64285714D01*
X167971428Y-64142857D01*
X168042857Y-64000000D01*
X168114285Y-63928571D01*
X168257142Y-63857142D01*
X168542857Y-63785714D01*
X168900000Y-63785714D01*
X169185714Y-63857142D01*
X169328571Y-63928571D01*
X169400000Y-64000000D01*
X169471428Y-64142857D01*
X169471428Y-65571428D02*
X169471428Y-65714285D01*
X169400000Y-65857142D01*
X169328571Y-65928571D01*
X169185714Y-66000000D01*
X168900000Y-66071428D01*
X168542857Y-66071428D01*
X168257142Y-66000000D01*
X168114285Y-65928571D01*
X168042857Y-65857142D01*
X167971428Y-65714285D01*
X167971428Y-65571428D01*
X168042857Y-65428571D01*
X168114285Y-65357142D01*
X168257142Y-65285714D01*
X168542857Y-65214285D01*
X168900000Y-65214285D01*
X169185714Y-65285714D01*
X169328571Y-65357142D01*
X169400000Y-65428571D01*
X169471428Y-65571428D01*
X167971428Y-67857142D02*
X168971428Y-67857142D01*
X168828571Y-67857142D02*
X168900000Y-67928571D01*
X168971428Y-68071428D01*
X168971428Y-68285714D01*
X168900000Y-68428571D01*
X168757142Y-68500000D01*
X167971428Y-68500000D01*
X168757142Y-68500000D02*
X168900000Y-68571428D01*
X168971428Y-68714285D01*
X168971428Y-68928571D01*
X168900000Y-69071428D01*
X168757142Y-69142857D01*
X167971428Y-69142857D01*
X167971428Y-69857142D02*
X168971428Y-69857142D01*
X168828571Y-69857142D02*
X168900000Y-69928571D01*
X168971428Y-70071428D01*
X168971428Y-70285714D01*
X168900000Y-70428571D01*
X168757142Y-70500000D01*
X167971428Y-70500000D01*
X168757142Y-70500000D02*
X168900000Y-70571428D01*
X168971428Y-70714285D01*
X168971428Y-70928571D01*
X168900000Y-71071428D01*
X168757142Y-71142857D01*
X167971428Y-71142857D01*
X170000000Y-50000000D02*
X170000000Y-80000000D01*
X175000000Y-50000000D02*
X167300000Y-50000000D01*
X175000000Y-80000000D02*
X167300000Y-80000000D01*
X170000000Y-80000000D02*
X169413579Y-78873496D01*
X170000000Y-80000000D02*
X170586421Y-78873496D01*
X170000000Y-50000000D02*
X169413579Y-51126504D01*
X170000000Y-50000000D02*
X170586421Y-51126504D01*
M02*
