G04 #@! TF.GenerationSoftware,KiCad,Pcbnew,(5.1.4)-1*
G04 #@! TF.CreationDate,2019-12-04T23:16:08+01:00*
G04 #@! TF.ProjectId,instru_bab_v2,696e7374-7275-45f6-9261-625f76322e6b,rev?*
G04 #@! TF.SameCoordinates,Original*
G04 #@! TF.FileFunction,Copper,L1,Top*
G04 #@! TF.FilePolarity,Positive*
%FSLAX46Y46*%
G04 Gerber Fmt 4.6, Leading zero omitted, Abs format (unit mm)*
G04 Created by KiCad (PCBNEW (5.1.4)-1) date 2019-12-04 23:16:08*
%MOMM*%
%LPD*%
G04 APERTURE LIST*
%ADD10C,0.200000*%
%ADD11C,0.300000*%
%ADD12R,1.700000X1.700000*%
%ADD13O,1.700000X1.700000*%
%ADD14C,1.800000*%
%ADD15C,3.000000*%
%ADD16R,2.500000X2.000000*%
%ADD17C,1.500000*%
%ADD18C,0.500000*%
%ADD19C,0.254000*%
G04 APERTURE END LIST*
D10*
X239666666Y-50000000D02*
G75*
G03X239666666Y-50000000I-1666666J0D01*
G01*
X235500000Y-50000000D02*
X240500000Y-50000000D01*
X238000000Y-47500000D02*
X238000000Y-52500000D01*
X170666666Y-50900000D02*
G75*
G03X170666666Y-50900000I-1666666J0D01*
G01*
X166500000Y-50900000D02*
X171500000Y-50900000D01*
X169000000Y-48400000D02*
X169000000Y-53400000D01*
X170666666Y-80000000D02*
G75*
G03X170666666Y-80000000I-1666666J0D01*
G01*
X166500000Y-80000000D02*
X171500000Y-80000000D01*
X169000000Y-77500000D02*
X169000000Y-82500000D01*
X239666666Y-80000000D02*
G75*
G03X239666666Y-80000000I-1666666J0D01*
G01*
X235500000Y-80000000D02*
X240500000Y-80000000D01*
X238000000Y-77500000D02*
X238000000Y-82500000D01*
D11*
X-99535714Y-187767857D02*
X-99321428Y-187839285D01*
X-99249999Y-187910714D01*
X-99178571Y-188053571D01*
X-99178571Y-188267857D01*
X-99249999Y-188410714D01*
X-99321428Y-188482142D01*
X-99464285Y-188553571D01*
X-100035714Y-188553571D01*
X-100035714Y-187053571D01*
X-99535714Y-187053571D01*
X-99392857Y-187125000D01*
X-99321428Y-187196428D01*
X-99249999Y-187339285D01*
X-99249999Y-187482142D01*
X-99321428Y-187625000D01*
X-99392857Y-187696428D01*
X-99535714Y-187767857D01*
X-100035714Y-187767857D01*
X-98607142Y-188125000D02*
X-97892857Y-188125000D01*
X-98749999Y-188553571D02*
X-98249999Y-187053571D01*
X-97749999Y-188553571D01*
X-96749999Y-187767857D02*
X-96535714Y-187839285D01*
X-96464285Y-187910714D01*
X-96392857Y-188053571D01*
X-96392857Y-188267857D01*
X-96464285Y-188410714D01*
X-96535714Y-188482142D01*
X-96678571Y-188553571D01*
X-97249999Y-188553571D01*
X-97249999Y-187053571D01*
X-96749999Y-187053571D01*
X-96607142Y-187125000D01*
X-96535714Y-187196428D01*
X-96464285Y-187339285D01*
X-96464285Y-187482142D01*
X-96535714Y-187625000D01*
X-96607142Y-187696428D01*
X-96749999Y-187767857D01*
X-97249999Y-187767857D01*
X-93964285Y-188482142D02*
X-94107142Y-188553571D01*
X-94392857Y-188553571D01*
X-94535714Y-188482142D01*
X-94607142Y-188410714D01*
X-94678571Y-188267857D01*
X-94678571Y-187839285D01*
X-94607142Y-187696428D01*
X-94535714Y-187625000D01*
X-94392857Y-187553571D01*
X-94107142Y-187553571D01*
X-93964285Y-187625000D01*
X-92678571Y-188553571D02*
X-92678571Y-187767857D01*
X-92750000Y-187625000D01*
X-92892857Y-187553571D01*
X-93178571Y-187553571D01*
X-93321428Y-187625000D01*
X-92678571Y-188482142D02*
X-92821428Y-188553571D01*
X-93178571Y-188553571D01*
X-93321428Y-188482142D01*
X-93392857Y-188339285D01*
X-93392857Y-188196428D01*
X-93321428Y-188053571D01*
X-93178571Y-187982142D01*
X-92821428Y-187982142D01*
X-92678571Y-187910714D01*
X-91964285Y-188553571D02*
X-91964285Y-187553571D01*
X-91964285Y-187839285D02*
X-91892857Y-187696428D01*
X-91821428Y-187625000D01*
X-91678571Y-187553571D01*
X-91535714Y-187553571D01*
X-91249999Y-187553571D02*
X-90678571Y-187553571D01*
X-91035714Y-187053571D02*
X-91035714Y-188339285D01*
X-90964285Y-188482142D01*
X-90821428Y-188553571D01*
X-90678571Y-188553571D01*
X-89607142Y-188482142D02*
X-89750000Y-188553571D01*
X-90035714Y-188553571D01*
X-90178571Y-188482142D01*
X-90250000Y-188339285D01*
X-90250000Y-187767857D01*
X-90178571Y-187625000D01*
X-90035714Y-187553571D01*
X-89750000Y-187553571D01*
X-89607142Y-187625000D01*
X-89535714Y-187767857D01*
X-89535714Y-187910714D01*
X-90250000Y-188053571D01*
X-87107142Y-188553571D02*
X-87107142Y-187053571D01*
X-87107142Y-188482142D02*
X-87250000Y-188553571D01*
X-87535714Y-188553571D01*
X-87678571Y-188482142D01*
X-87750000Y-188410714D01*
X-87821428Y-188267857D01*
X-87821428Y-187839285D01*
X-87750000Y-187696428D01*
X-87678571Y-187625000D01*
X-87535714Y-187553571D01*
X-87250000Y-187553571D01*
X-87107142Y-187625000D01*
X-85821428Y-188482142D02*
X-85964285Y-188553571D01*
X-86250000Y-188553571D01*
X-86392857Y-188482142D01*
X-86464285Y-188339285D01*
X-86464285Y-187767857D01*
X-86392857Y-187625000D01*
X-86250000Y-187553571D01*
X-85964285Y-187553571D01*
X-85821428Y-187625000D01*
X-85750000Y-187767857D01*
X-85750000Y-187910714D01*
X-86464285Y-188053571D01*
X-83321428Y-188482142D02*
X-83464285Y-188553571D01*
X-83750000Y-188553571D01*
X-83892857Y-188482142D01*
X-83964285Y-188410714D01*
X-84035714Y-188267857D01*
X-84035714Y-187839285D01*
X-83964285Y-187696428D01*
X-83892857Y-187625000D01*
X-83750000Y-187553571D01*
X-83464285Y-187553571D01*
X-83321428Y-187625000D01*
X-82464285Y-188553571D02*
X-82607142Y-188482142D01*
X-82678571Y-188410714D01*
X-82750000Y-188267857D01*
X-82750000Y-187839285D01*
X-82678571Y-187696428D01*
X-82607142Y-187625000D01*
X-82464285Y-187553571D01*
X-82250000Y-187553571D01*
X-82107142Y-187625000D01*
X-82035714Y-187696428D01*
X-81964285Y-187839285D01*
X-81964285Y-188267857D01*
X-82035714Y-188410714D01*
X-82107142Y-188482142D01*
X-82250000Y-188553571D01*
X-82464285Y-188553571D01*
X-81321428Y-187553571D02*
X-81321428Y-188553571D01*
X-81321428Y-187696428D02*
X-81250000Y-187625000D01*
X-81107142Y-187553571D01*
X-80892857Y-187553571D01*
X-80750000Y-187625000D01*
X-80678571Y-187767857D01*
X-80678571Y-188553571D01*
X-80178571Y-187553571D02*
X-79607142Y-187553571D01*
X-79964285Y-187053571D02*
X-79964285Y-188339285D01*
X-79892857Y-188482142D01*
X-79750000Y-188553571D01*
X-79607142Y-188553571D01*
X-79107142Y-188553571D02*
X-79107142Y-187553571D01*
X-79107142Y-187839285D02*
X-79035714Y-187696428D01*
X-78964285Y-187625000D01*
X-78821428Y-187553571D01*
X-78678571Y-187553571D01*
X-77964285Y-188553571D02*
X-78107142Y-188482142D01*
X-78178571Y-188410714D01*
X-78249999Y-188267857D01*
X-78249999Y-187839285D01*
X-78178571Y-187696428D01*
X-78107142Y-187625000D01*
X-77964285Y-187553571D01*
X-77749999Y-187553571D01*
X-77607142Y-187625000D01*
X-77535714Y-187696428D01*
X-77464285Y-187839285D01*
X-77464285Y-188267857D01*
X-77535714Y-188410714D01*
X-77607142Y-188482142D01*
X-77749999Y-188553571D01*
X-77964285Y-188553571D01*
X-76607142Y-188553571D02*
X-76749999Y-188482142D01*
X-76821428Y-188339285D01*
X-76821428Y-187053571D01*
X-75464285Y-188482142D02*
X-75607142Y-188553571D01*
X-75892857Y-188553571D01*
X-76035714Y-188482142D01*
X-76107142Y-188339285D01*
X-76107142Y-187767857D01*
X-76035714Y-187625000D01*
X-75892857Y-187553571D01*
X-75607142Y-187553571D01*
X-75464285Y-187625000D01*
X-75392857Y-187767857D01*
X-75392857Y-187910714D01*
X-76107142Y-188053571D01*
X-92428571Y-191103571D02*
X-92428571Y-189603571D01*
X-91857142Y-189603571D01*
X-91714285Y-189675000D01*
X-91642857Y-189746428D01*
X-91571428Y-189889285D01*
X-91571428Y-190103571D01*
X-91642857Y-190246428D01*
X-91714285Y-190317857D01*
X-91857142Y-190389285D01*
X-92428571Y-190389285D01*
X-90928571Y-191103571D02*
X-90928571Y-190103571D01*
X-90928571Y-190389285D02*
X-90857142Y-190246428D01*
X-90785714Y-190175000D01*
X-90642857Y-190103571D01*
X-90500000Y-190103571D01*
X-89785714Y-191103571D02*
X-89928571Y-191032142D01*
X-90000000Y-190960714D01*
X-90071428Y-190817857D01*
X-90071428Y-190389285D01*
X-90000000Y-190246428D01*
X-89928571Y-190175000D01*
X-89785714Y-190103571D01*
X-89571428Y-190103571D01*
X-89428571Y-190175000D01*
X-89357142Y-190246428D01*
X-89285714Y-190389285D01*
X-89285714Y-190817857D01*
X-89357142Y-190960714D01*
X-89428571Y-191032142D01*
X-89571428Y-191103571D01*
X-89785714Y-191103571D01*
X-88857142Y-190103571D02*
X-88285714Y-190103571D01*
X-88642857Y-189603571D02*
X-88642857Y-190889285D01*
X-88571428Y-191032142D01*
X-88428571Y-191103571D01*
X-88285714Y-191103571D01*
X-87571428Y-191103571D02*
X-87714285Y-191032142D01*
X-87785714Y-190960714D01*
X-87857142Y-190817857D01*
X-87857142Y-190389285D01*
X-87785714Y-190246428D01*
X-87714285Y-190175000D01*
X-87571428Y-190103571D01*
X-87357142Y-190103571D01*
X-87214285Y-190175000D01*
X-87142857Y-190246428D01*
X-87071428Y-190389285D01*
X-87071428Y-190817857D01*
X-87142857Y-190960714D01*
X-87214285Y-191032142D01*
X-87357142Y-191103571D01*
X-87571428Y-191103571D01*
X-84785714Y-190317857D02*
X-84571428Y-190389285D01*
X-84500000Y-190460714D01*
X-84428571Y-190603571D01*
X-84428571Y-190817857D01*
X-84500000Y-190960714D01*
X-84571428Y-191032142D01*
X-84714285Y-191103571D01*
X-85285714Y-191103571D01*
X-85285714Y-189603571D01*
X-84785714Y-189603571D01*
X-84642857Y-189675000D01*
X-84571428Y-189746428D01*
X-84500000Y-189889285D01*
X-84500000Y-190032142D01*
X-84571428Y-190175000D01*
X-84642857Y-190246428D01*
X-84785714Y-190317857D01*
X-85285714Y-190317857D01*
X-83857142Y-189746428D02*
X-83785714Y-189675000D01*
X-83642857Y-189603571D01*
X-83285714Y-189603571D01*
X-83142857Y-189675000D01*
X-83071428Y-189746428D01*
X-83000000Y-189889285D01*
X-83000000Y-190032142D01*
X-83071428Y-190246428D01*
X-83928571Y-191103571D01*
X-83000000Y-191103571D01*
D10*
X235000000Y-50000000D02*
X175000000Y-50000000D01*
X235000000Y-80000000D02*
X235000000Y-50000000D01*
X175000000Y-80000000D02*
X235000000Y-80000000D01*
X175000000Y-50000000D02*
X175000000Y-80000000D01*
D12*
X215160000Y-76000000D03*
D13*
X212620000Y-76000000D03*
X210080000Y-76000000D03*
X207540000Y-76000000D03*
X205000000Y-76000000D03*
X202460000Y-76000000D03*
X199920000Y-76000000D03*
X197380000Y-76000000D03*
X194840000Y-76000000D03*
D14*
X187350000Y-67600000D03*
X184850000Y-67600000D03*
X182350000Y-67600000D03*
D15*
X189600000Y-75100000D03*
X180100000Y-75100000D03*
D16*
X187000000Y-63340000D03*
X182840000Y-63340000D03*
X187000000Y-60800000D03*
X182840000Y-60800000D03*
X187000000Y-58260000D03*
X182840000Y-58260000D03*
D14*
X227550000Y-67600000D03*
X225050000Y-67600000D03*
X222550000Y-67600000D03*
D15*
X229800000Y-75100000D03*
X220300000Y-75100000D03*
D14*
X207500000Y-60750000D03*
X205000000Y-60750000D03*
X202500000Y-60750000D03*
D15*
X209750000Y-68250000D03*
X200250000Y-68250000D03*
D12*
X179000000Y-54000000D03*
D13*
X181540000Y-54000000D03*
X184080000Y-54000000D03*
X186620000Y-54000000D03*
X189160000Y-54000000D03*
X191700000Y-54000000D03*
D12*
X218300000Y-54000000D03*
D13*
X220840000Y-54000000D03*
X223380000Y-54000000D03*
X225920000Y-54000000D03*
X228460000Y-54000000D03*
X231000000Y-54000000D03*
D12*
X225050000Y-62340000D03*
D13*
X225050000Y-59800000D03*
D12*
X203660000Y-53200000D03*
D13*
X206200000Y-53200000D03*
D17*
X198000000Y-57400000D03*
X219000000Y-58200000D03*
X179050000Y-63350000D03*
X179049994Y-60800000D03*
X179100000Y-58250000D03*
X195550000Y-53150000D03*
X191050000Y-58250000D03*
X191050008Y-60800000D03*
X191050000Y-63349996D03*
X232050000Y-67600000D03*
X222150000Y-65500002D03*
X216741108Y-67191110D03*
X212400000Y-58950000D03*
X209800000Y-58700000D03*
X197650000Y-62800000D03*
X194800000Y-67600000D03*
X197350000Y-71400000D03*
X199900000Y-73200000D03*
D18*
X218300000Y-54000000D02*
X209800000Y-54000000D01*
X206400000Y-57400000D02*
X198000000Y-57400000D01*
X209800000Y-54000000D02*
X206400000Y-57400000D01*
X219000000Y-58200000D02*
X220840000Y-56360000D01*
X220840000Y-56360000D02*
X220840000Y-54000000D01*
X178300001Y-62600001D02*
X179050000Y-63350000D01*
X179000000Y-55350000D02*
X177050001Y-57299999D01*
X179000000Y-54000000D02*
X179000000Y-55350000D01*
X177050001Y-61350001D02*
X178300001Y-62600001D01*
X177050001Y-57299999D02*
X177050001Y-61350001D01*
X181540000Y-54000000D02*
X177800001Y-57739999D01*
X177800001Y-57739999D02*
X177800001Y-59550007D01*
X177800001Y-59550007D02*
X178299995Y-60050001D01*
X178299995Y-60050001D02*
X179049994Y-60800000D01*
X184080000Y-55202081D02*
X183082081Y-56200000D01*
X184080000Y-54000000D02*
X184080000Y-55202081D01*
X183082081Y-56200000D02*
X181150000Y-56200000D01*
X181150000Y-56200000D02*
X179100000Y-58250000D01*
X196299999Y-53899999D02*
X195550000Y-53150000D01*
X198950000Y-56550000D02*
X196299999Y-53899999D01*
X223380000Y-52797919D02*
X222932081Y-52350000D01*
X223380000Y-54000000D02*
X223380000Y-52797919D01*
X222932081Y-52350000D02*
X217250000Y-52350000D01*
X217250000Y-52350000D02*
X216350009Y-53249991D01*
X216350009Y-53249991D02*
X209489335Y-53249991D01*
X206189326Y-56550000D02*
X198950000Y-56550000D01*
X209489335Y-53249991D02*
X206189326Y-56550000D01*
X186620000Y-55202081D02*
X187717919Y-56300000D01*
X186620000Y-54000000D02*
X186620000Y-55202081D01*
X187717919Y-56300000D02*
X189100000Y-56300000D01*
X189100000Y-56300000D02*
X191050000Y-58250000D01*
X192349999Y-59500009D02*
X191800007Y-60050001D01*
X191800007Y-60050001D02*
X191050008Y-60800000D01*
X192349999Y-57189999D02*
X192349999Y-59500009D01*
X189160000Y-54000000D02*
X192349999Y-57189999D01*
X191799999Y-62599997D02*
X191050000Y-63349996D01*
X193099999Y-61299997D02*
X191799999Y-62599997D01*
X193099999Y-55399999D02*
X193099999Y-61299997D01*
X191700000Y-54000000D02*
X193099999Y-55399999D01*
X232050000Y-70300000D02*
X232050000Y-67600000D01*
X229800000Y-72550000D02*
X232050000Y-70300000D01*
X216500000Y-72550000D02*
X229800000Y-72550000D01*
X215160000Y-76000000D02*
X215160000Y-73890000D01*
X215160000Y-73890000D02*
X216500000Y-72550000D01*
X212620000Y-73080000D02*
X220199998Y-65500002D01*
X221089340Y-65500002D02*
X222150000Y-65500002D01*
X220199998Y-65500002D02*
X221089340Y-65500002D01*
X212620000Y-76000000D02*
X212620000Y-73080000D01*
X216750000Y-67200002D02*
X216741108Y-67191110D01*
X216750000Y-67882218D02*
X216750000Y-67200002D01*
X210080000Y-76000000D02*
X210080000Y-74552218D01*
X210080000Y-74552218D02*
X216750000Y-67882218D01*
X208389999Y-75150001D02*
X207540000Y-76000000D01*
X208410674Y-75150001D02*
X208389999Y-75150001D01*
X212950000Y-70610675D02*
X208410674Y-75150001D01*
X212950000Y-60560660D02*
X212950000Y-70610675D01*
X212400000Y-60010660D02*
X212950000Y-60560660D01*
X212400000Y-58950000D02*
X212400000Y-60010660D01*
X210549999Y-59449999D02*
X209800000Y-58700000D01*
X212199989Y-61099989D02*
X210549999Y-59449999D01*
X212199989Y-70200011D02*
X212199989Y-61099989D01*
X208100000Y-74300000D02*
X212199989Y-70200011D01*
X205000000Y-76000000D02*
X206700000Y-74300000D01*
X206700000Y-74300000D02*
X208100000Y-74300000D01*
X202460000Y-73610000D02*
X202460000Y-76000000D01*
X197650000Y-62800000D02*
X197650000Y-68800000D01*
X197650000Y-68800000D02*
X202460000Y-73610000D01*
X194800000Y-75960000D02*
X194840000Y-76000000D01*
X194800000Y-67600000D02*
X194800000Y-75960000D01*
X197350000Y-75970000D02*
X197380000Y-76000000D01*
X197350000Y-71400000D02*
X197350000Y-75970000D01*
X199900000Y-75980000D02*
X199920000Y-76000000D01*
X199900000Y-73200000D02*
X199900000Y-75980000D01*
D19*
G36*
X234265000Y-79265000D02*
G01*
X175735000Y-79265000D01*
X175735000Y-74889721D01*
X177965000Y-74889721D01*
X177965000Y-75310279D01*
X178047047Y-75722756D01*
X178207988Y-76111302D01*
X178441637Y-76460983D01*
X178739017Y-76758363D01*
X179088698Y-76992012D01*
X179477244Y-77152953D01*
X179889721Y-77235000D01*
X180310279Y-77235000D01*
X180722756Y-77152953D01*
X181111302Y-76992012D01*
X181460983Y-76758363D01*
X181758363Y-76460983D01*
X181992012Y-76111302D01*
X182152953Y-75722756D01*
X182235000Y-75310279D01*
X182235000Y-74889721D01*
X187465000Y-74889721D01*
X187465000Y-75310279D01*
X187547047Y-75722756D01*
X187707988Y-76111302D01*
X187941637Y-76460983D01*
X188239017Y-76758363D01*
X188588698Y-76992012D01*
X188977244Y-77152953D01*
X189389721Y-77235000D01*
X189810279Y-77235000D01*
X190222756Y-77152953D01*
X190611302Y-76992012D01*
X190960983Y-76758363D01*
X191258363Y-76460983D01*
X191492012Y-76111302D01*
X191538114Y-76000000D01*
X193347815Y-76000000D01*
X193376487Y-76291111D01*
X193461401Y-76571034D01*
X193599294Y-76829014D01*
X193784866Y-77055134D01*
X194010986Y-77240706D01*
X194268966Y-77378599D01*
X194548889Y-77463513D01*
X194767050Y-77485000D01*
X194912950Y-77485000D01*
X195131111Y-77463513D01*
X195411034Y-77378599D01*
X195669014Y-77240706D01*
X195895134Y-77055134D01*
X196080706Y-76829014D01*
X196110000Y-76774209D01*
X196139294Y-76829014D01*
X196324866Y-77055134D01*
X196550986Y-77240706D01*
X196808966Y-77378599D01*
X197088889Y-77463513D01*
X197307050Y-77485000D01*
X197452950Y-77485000D01*
X197671111Y-77463513D01*
X197951034Y-77378599D01*
X198209014Y-77240706D01*
X198435134Y-77055134D01*
X198620706Y-76829014D01*
X198650000Y-76774209D01*
X198679294Y-76829014D01*
X198864866Y-77055134D01*
X199090986Y-77240706D01*
X199348966Y-77378599D01*
X199628889Y-77463513D01*
X199847050Y-77485000D01*
X199992950Y-77485000D01*
X200211111Y-77463513D01*
X200491034Y-77378599D01*
X200749014Y-77240706D01*
X200975134Y-77055134D01*
X201160706Y-76829014D01*
X201190000Y-76774209D01*
X201219294Y-76829014D01*
X201404866Y-77055134D01*
X201630986Y-77240706D01*
X201888966Y-77378599D01*
X202168889Y-77463513D01*
X202387050Y-77485000D01*
X202532950Y-77485000D01*
X202751111Y-77463513D01*
X203031034Y-77378599D01*
X203289014Y-77240706D01*
X203515134Y-77055134D01*
X203700706Y-76829014D01*
X203730000Y-76774209D01*
X203759294Y-76829014D01*
X203944866Y-77055134D01*
X204170986Y-77240706D01*
X204428966Y-77378599D01*
X204708889Y-77463513D01*
X204927050Y-77485000D01*
X205072950Y-77485000D01*
X205291111Y-77463513D01*
X205571034Y-77378599D01*
X205829014Y-77240706D01*
X206055134Y-77055134D01*
X206240706Y-76829014D01*
X206270000Y-76774209D01*
X206299294Y-76829014D01*
X206484866Y-77055134D01*
X206710986Y-77240706D01*
X206968966Y-77378599D01*
X207248889Y-77463513D01*
X207467050Y-77485000D01*
X207612950Y-77485000D01*
X207831111Y-77463513D01*
X208111034Y-77378599D01*
X208369014Y-77240706D01*
X208595134Y-77055134D01*
X208780706Y-76829014D01*
X208810000Y-76774209D01*
X208839294Y-76829014D01*
X209024866Y-77055134D01*
X209250986Y-77240706D01*
X209508966Y-77378599D01*
X209788889Y-77463513D01*
X210007050Y-77485000D01*
X210152950Y-77485000D01*
X210371111Y-77463513D01*
X210651034Y-77378599D01*
X210909014Y-77240706D01*
X211135134Y-77055134D01*
X211320706Y-76829014D01*
X211350000Y-76774209D01*
X211379294Y-76829014D01*
X211564866Y-77055134D01*
X211790986Y-77240706D01*
X212048966Y-77378599D01*
X212328889Y-77463513D01*
X212547050Y-77485000D01*
X212692950Y-77485000D01*
X212911111Y-77463513D01*
X213191034Y-77378599D01*
X213449014Y-77240706D01*
X213675134Y-77055134D01*
X213699607Y-77025313D01*
X213720498Y-77094180D01*
X213779463Y-77204494D01*
X213858815Y-77301185D01*
X213955506Y-77380537D01*
X214065820Y-77439502D01*
X214185518Y-77475812D01*
X214310000Y-77488072D01*
X216010000Y-77488072D01*
X216134482Y-77475812D01*
X216254180Y-77439502D01*
X216364494Y-77380537D01*
X216461185Y-77301185D01*
X216540537Y-77204494D01*
X216599502Y-77094180D01*
X216635812Y-76974482D01*
X216648072Y-76850000D01*
X216648072Y-75150000D01*
X216635812Y-75025518D01*
X216599502Y-74905820D01*
X216540537Y-74795506D01*
X216461185Y-74698815D01*
X216364494Y-74619463D01*
X216254180Y-74560498D01*
X216134482Y-74524188D01*
X216045000Y-74515375D01*
X216045000Y-74256578D01*
X216866579Y-73435000D01*
X218948950Y-73435000D01*
X218939017Y-73441637D01*
X218641637Y-73739017D01*
X218407988Y-74088698D01*
X218247047Y-74477244D01*
X218165000Y-74889721D01*
X218165000Y-75310279D01*
X218247047Y-75722756D01*
X218407988Y-76111302D01*
X218641637Y-76460983D01*
X218939017Y-76758363D01*
X219288698Y-76992012D01*
X219677244Y-77152953D01*
X220089721Y-77235000D01*
X220510279Y-77235000D01*
X220922756Y-77152953D01*
X221311302Y-76992012D01*
X221660983Y-76758363D01*
X221958363Y-76460983D01*
X222192012Y-76111302D01*
X222352953Y-75722756D01*
X222435000Y-75310279D01*
X222435000Y-74889721D01*
X222352953Y-74477244D01*
X222192012Y-74088698D01*
X221958363Y-73739017D01*
X221660983Y-73441637D01*
X221651050Y-73435000D01*
X228448950Y-73435000D01*
X228439017Y-73441637D01*
X228141637Y-73739017D01*
X227907988Y-74088698D01*
X227747047Y-74477244D01*
X227665000Y-74889721D01*
X227665000Y-75310279D01*
X227747047Y-75722756D01*
X227907988Y-76111302D01*
X228141637Y-76460983D01*
X228439017Y-76758363D01*
X228788698Y-76992012D01*
X229177244Y-77152953D01*
X229589721Y-77235000D01*
X230010279Y-77235000D01*
X230422756Y-77152953D01*
X230811302Y-76992012D01*
X231160983Y-76758363D01*
X231458363Y-76460983D01*
X231692012Y-76111302D01*
X231852953Y-75722756D01*
X231935000Y-75310279D01*
X231935000Y-74889721D01*
X231852953Y-74477244D01*
X231692012Y-74088698D01*
X231458363Y-73739017D01*
X231160983Y-73441637D01*
X230811302Y-73207988D01*
X230515935Y-73085643D01*
X232645050Y-70956529D01*
X232678817Y-70928817D01*
X232789411Y-70794059D01*
X232842856Y-70694069D01*
X232871589Y-70640314D01*
X232922195Y-70473490D01*
X232922195Y-70473489D01*
X232935000Y-70343477D01*
X232935000Y-70343469D01*
X232939281Y-70300000D01*
X232935000Y-70256531D01*
X232935000Y-68673685D01*
X233125799Y-68482886D01*
X233277371Y-68256043D01*
X233381775Y-68003989D01*
X233435000Y-67736411D01*
X233435000Y-67463589D01*
X233381775Y-67196011D01*
X233277371Y-66943957D01*
X233125799Y-66717114D01*
X232932886Y-66524201D01*
X232706043Y-66372629D01*
X232453989Y-66268225D01*
X232186411Y-66215000D01*
X231913589Y-66215000D01*
X231646011Y-66268225D01*
X231393957Y-66372629D01*
X231167114Y-66524201D01*
X230974201Y-66717114D01*
X230822629Y-66943957D01*
X230718225Y-67196011D01*
X230665000Y-67463589D01*
X230665000Y-67736411D01*
X230718225Y-68003989D01*
X230822629Y-68256043D01*
X230974201Y-68482886D01*
X231165001Y-68673686D01*
X231165000Y-69933421D01*
X229433422Y-71665000D01*
X216543465Y-71665000D01*
X216499999Y-71660719D01*
X216456533Y-71665000D01*
X216456523Y-71665000D01*
X216326510Y-71677805D01*
X216159687Y-71728411D01*
X216005941Y-71810589D01*
X216005939Y-71810590D01*
X216005940Y-71810590D01*
X215904953Y-71893468D01*
X215904951Y-71893470D01*
X215871183Y-71921183D01*
X215843470Y-71954951D01*
X214564951Y-73233471D01*
X214531184Y-73261183D01*
X214503471Y-73294951D01*
X214503468Y-73294954D01*
X214420590Y-73395941D01*
X214338412Y-73549687D01*
X214287805Y-73716510D01*
X214270719Y-73890000D01*
X214275001Y-73933479D01*
X214275001Y-74515375D01*
X214185518Y-74524188D01*
X214065820Y-74560498D01*
X213955506Y-74619463D01*
X213858815Y-74698815D01*
X213779463Y-74795506D01*
X213720498Y-74905820D01*
X213699607Y-74974687D01*
X213675134Y-74944866D01*
X213505000Y-74805241D01*
X213505000Y-73446578D01*
X220566577Y-66385002D01*
X221076315Y-66385002D01*
X221267114Y-66575801D01*
X221350839Y-66631745D01*
X221189701Y-66872905D01*
X221073989Y-67152257D01*
X221015000Y-67448816D01*
X221015000Y-67751184D01*
X221073989Y-68047743D01*
X221189701Y-68327095D01*
X221357688Y-68578505D01*
X221571495Y-68792312D01*
X221822905Y-68960299D01*
X222102257Y-69076011D01*
X222398816Y-69135000D01*
X222701184Y-69135000D01*
X222997743Y-69076011D01*
X223277095Y-68960299D01*
X223528505Y-68792312D01*
X223742312Y-68578505D01*
X223800000Y-68492169D01*
X223857688Y-68578505D01*
X224071495Y-68792312D01*
X224322905Y-68960299D01*
X224602257Y-69076011D01*
X224898816Y-69135000D01*
X225201184Y-69135000D01*
X225497743Y-69076011D01*
X225777095Y-68960299D01*
X226028505Y-68792312D01*
X226242312Y-68578505D01*
X226300000Y-68492169D01*
X226357688Y-68578505D01*
X226571495Y-68792312D01*
X226822905Y-68960299D01*
X227102257Y-69076011D01*
X227398816Y-69135000D01*
X227701184Y-69135000D01*
X227997743Y-69076011D01*
X228277095Y-68960299D01*
X228528505Y-68792312D01*
X228742312Y-68578505D01*
X228910299Y-68327095D01*
X229026011Y-68047743D01*
X229085000Y-67751184D01*
X229085000Y-67448816D01*
X229026011Y-67152257D01*
X228910299Y-66872905D01*
X228742312Y-66621495D01*
X228528505Y-66407688D01*
X228277095Y-66239701D01*
X227997743Y-66123989D01*
X227701184Y-66065000D01*
X227398816Y-66065000D01*
X227102257Y-66123989D01*
X226822905Y-66239701D01*
X226571495Y-66407688D01*
X226357688Y-66621495D01*
X226300000Y-66707831D01*
X226242312Y-66621495D01*
X226028505Y-66407688D01*
X225777095Y-66239701D01*
X225497743Y-66123989D01*
X225201184Y-66065000D01*
X224898816Y-66065000D01*
X224602257Y-66123989D01*
X224322905Y-66239701D01*
X224071495Y-66407688D01*
X223857688Y-66621495D01*
X223800000Y-66707831D01*
X223742312Y-66621495D01*
X223528505Y-66407688D01*
X223307776Y-66260201D01*
X223377371Y-66156045D01*
X223481775Y-65903991D01*
X223535000Y-65636413D01*
X223535000Y-65363591D01*
X223481775Y-65096013D01*
X223377371Y-64843959D01*
X223225799Y-64617116D01*
X223032886Y-64424203D01*
X222806043Y-64272631D01*
X222553989Y-64168227D01*
X222286411Y-64115002D01*
X222013589Y-64115002D01*
X221746011Y-64168227D01*
X221493957Y-64272631D01*
X221267114Y-64424203D01*
X221076315Y-64615002D01*
X220243467Y-64615002D01*
X220199998Y-64610721D01*
X220156529Y-64615002D01*
X220156521Y-64615002D01*
X220041304Y-64626350D01*
X220026507Y-64627807D01*
X219975901Y-64643159D01*
X219859685Y-64678413D01*
X219705939Y-64760591D01*
X219705937Y-64760592D01*
X219705938Y-64760592D01*
X219604951Y-64843470D01*
X219604949Y-64843472D01*
X219571181Y-64871185D01*
X219543468Y-64904953D01*
X217946399Y-66502022D01*
X217816907Y-66308224D01*
X217623994Y-66115311D01*
X217397151Y-65963739D01*
X217145097Y-65859335D01*
X216877519Y-65806110D01*
X216604697Y-65806110D01*
X216337119Y-65859335D01*
X216085065Y-65963739D01*
X215858222Y-66115311D01*
X215665309Y-66308224D01*
X215513737Y-66535067D01*
X215409333Y-66787121D01*
X215356108Y-67054699D01*
X215356108Y-67327521D01*
X215409333Y-67595099D01*
X215513737Y-67847153D01*
X215521647Y-67858992D01*
X213835000Y-69545639D01*
X213835000Y-60604125D01*
X213839281Y-60560659D01*
X213835000Y-60517193D01*
X213835000Y-60517183D01*
X213822195Y-60387170D01*
X213771589Y-60220347D01*
X213689411Y-60066601D01*
X213578817Y-59931843D01*
X213545045Y-59904127D01*
X213474802Y-59833884D01*
X213475799Y-59832886D01*
X213497772Y-59800000D01*
X223557815Y-59800000D01*
X223586487Y-60091111D01*
X223671401Y-60371034D01*
X223809294Y-60629014D01*
X223994866Y-60855134D01*
X224024687Y-60879607D01*
X223955820Y-60900498D01*
X223845506Y-60959463D01*
X223748815Y-61038815D01*
X223669463Y-61135506D01*
X223610498Y-61245820D01*
X223574188Y-61365518D01*
X223561928Y-61490000D01*
X223561928Y-63190000D01*
X223574188Y-63314482D01*
X223610498Y-63434180D01*
X223669463Y-63544494D01*
X223748815Y-63641185D01*
X223845506Y-63720537D01*
X223955820Y-63779502D01*
X224075518Y-63815812D01*
X224200000Y-63828072D01*
X225900000Y-63828072D01*
X226024482Y-63815812D01*
X226144180Y-63779502D01*
X226254494Y-63720537D01*
X226351185Y-63641185D01*
X226430537Y-63544494D01*
X226489502Y-63434180D01*
X226525812Y-63314482D01*
X226538072Y-63190000D01*
X226538072Y-61490000D01*
X226525812Y-61365518D01*
X226489502Y-61245820D01*
X226430537Y-61135506D01*
X226351185Y-61038815D01*
X226254494Y-60959463D01*
X226144180Y-60900498D01*
X226075313Y-60879607D01*
X226105134Y-60855134D01*
X226290706Y-60629014D01*
X226428599Y-60371034D01*
X226513513Y-60091111D01*
X226542185Y-59800000D01*
X226513513Y-59508889D01*
X226428599Y-59228966D01*
X226290706Y-58970986D01*
X226105134Y-58744866D01*
X225879014Y-58559294D01*
X225621034Y-58421401D01*
X225341111Y-58336487D01*
X225122950Y-58315000D01*
X224977050Y-58315000D01*
X224758889Y-58336487D01*
X224478966Y-58421401D01*
X224220986Y-58559294D01*
X223994866Y-58744866D01*
X223809294Y-58970986D01*
X223671401Y-59228966D01*
X223586487Y-59508889D01*
X223557815Y-59800000D01*
X213497772Y-59800000D01*
X213627371Y-59606043D01*
X213731775Y-59353989D01*
X213785000Y-59086411D01*
X213785000Y-58813589D01*
X213731775Y-58546011D01*
X213627371Y-58293957D01*
X213475799Y-58067114D01*
X213282886Y-57874201D01*
X213056043Y-57722629D01*
X212803989Y-57618225D01*
X212536411Y-57565000D01*
X212263589Y-57565000D01*
X211996011Y-57618225D01*
X211743957Y-57722629D01*
X211517114Y-57874201D01*
X211324201Y-58067114D01*
X211172629Y-58293957D01*
X211144753Y-58361256D01*
X211131775Y-58296011D01*
X211027371Y-58043957D01*
X210875799Y-57817114D01*
X210682886Y-57624201D01*
X210456043Y-57472629D01*
X210203989Y-57368225D01*
X209936411Y-57315000D01*
X209663589Y-57315000D01*
X209396011Y-57368225D01*
X209143957Y-57472629D01*
X208917114Y-57624201D01*
X208724201Y-57817114D01*
X208572629Y-58043957D01*
X208468225Y-58296011D01*
X208415000Y-58563589D01*
X208415000Y-58836411D01*
X208468225Y-59103989D01*
X208572629Y-59356043D01*
X208724201Y-59582886D01*
X208917114Y-59775799D01*
X209143957Y-59927371D01*
X209396011Y-60031775D01*
X209663589Y-60085000D01*
X209933421Y-60085000D01*
X209954952Y-60106531D01*
X209954957Y-60106535D01*
X211314990Y-61466569D01*
X211314989Y-66795643D01*
X211110983Y-66591637D01*
X210761302Y-66357988D01*
X210372756Y-66197047D01*
X209960279Y-66115000D01*
X209539721Y-66115000D01*
X209127244Y-66197047D01*
X208738698Y-66357988D01*
X208389017Y-66591637D01*
X208091637Y-66889017D01*
X207857988Y-67238698D01*
X207697047Y-67627244D01*
X207615000Y-68039721D01*
X207615000Y-68460279D01*
X207697047Y-68872756D01*
X207857988Y-69261302D01*
X208091637Y-69610983D01*
X208389017Y-69908363D01*
X208738698Y-70142012D01*
X209127244Y-70302953D01*
X209539721Y-70385000D01*
X209960279Y-70385000D01*
X210372756Y-70302953D01*
X210761302Y-70142012D01*
X211110983Y-69908363D01*
X211314989Y-69704357D01*
X211314989Y-69833432D01*
X207733422Y-73415000D01*
X206743466Y-73415000D01*
X206699999Y-73410719D01*
X206656533Y-73415000D01*
X206656523Y-73415000D01*
X206526510Y-73427805D01*
X206359687Y-73478411D01*
X206205941Y-73560589D01*
X206198709Y-73566524D01*
X206104953Y-73643468D01*
X206104951Y-73643470D01*
X206071183Y-73671183D01*
X206043470Y-73704951D01*
X205219034Y-74529388D01*
X205072950Y-74515000D01*
X204927050Y-74515000D01*
X204708889Y-74536487D01*
X204428966Y-74621401D01*
X204170986Y-74759294D01*
X203944866Y-74944866D01*
X203759294Y-75170986D01*
X203730000Y-75225791D01*
X203700706Y-75170986D01*
X203515134Y-74944866D01*
X203345000Y-74805241D01*
X203345000Y-73653465D01*
X203349281Y-73609999D01*
X203345000Y-73566533D01*
X203345000Y-73566523D01*
X203332195Y-73436510D01*
X203281589Y-73269687D01*
X203199411Y-73115941D01*
X203160404Y-73068411D01*
X203116532Y-73014953D01*
X203116530Y-73014951D01*
X203088817Y-72981183D01*
X203055051Y-72953472D01*
X200482215Y-70380637D01*
X200872756Y-70302953D01*
X201261302Y-70142012D01*
X201610983Y-69908363D01*
X201908363Y-69610983D01*
X202142012Y-69261302D01*
X202302953Y-68872756D01*
X202385000Y-68460279D01*
X202385000Y-68039721D01*
X202302953Y-67627244D01*
X202142012Y-67238698D01*
X201908363Y-66889017D01*
X201610983Y-66591637D01*
X201261302Y-66357988D01*
X200872756Y-66197047D01*
X200460279Y-66115000D01*
X200039721Y-66115000D01*
X199627244Y-66197047D01*
X199238698Y-66357988D01*
X198889017Y-66591637D01*
X198591637Y-66889017D01*
X198535000Y-66973780D01*
X198535000Y-63873685D01*
X198725799Y-63682886D01*
X198877371Y-63456043D01*
X198981775Y-63203989D01*
X199035000Y-62936411D01*
X199035000Y-62663589D01*
X198981775Y-62396011D01*
X198877371Y-62143957D01*
X198725799Y-61917114D01*
X198532886Y-61724201D01*
X198306043Y-61572629D01*
X198053989Y-61468225D01*
X197786411Y-61415000D01*
X197513589Y-61415000D01*
X197246011Y-61468225D01*
X196993957Y-61572629D01*
X196767114Y-61724201D01*
X196574201Y-61917114D01*
X196422629Y-62143957D01*
X196318225Y-62396011D01*
X196265000Y-62663589D01*
X196265000Y-62936411D01*
X196318225Y-63203989D01*
X196422629Y-63456043D01*
X196574201Y-63682886D01*
X196765000Y-63873685D01*
X196765001Y-68756521D01*
X196760719Y-68800000D01*
X196777805Y-68973490D01*
X196828412Y-69140313D01*
X196910590Y-69294059D01*
X196993468Y-69395046D01*
X196993471Y-69395049D01*
X197021184Y-69428817D01*
X197054952Y-69456530D01*
X197644959Y-70046537D01*
X197486411Y-70015000D01*
X197213589Y-70015000D01*
X196946011Y-70068225D01*
X196693957Y-70172629D01*
X196467114Y-70324201D01*
X196274201Y-70517114D01*
X196122629Y-70743957D01*
X196018225Y-70996011D01*
X195965000Y-71263589D01*
X195965000Y-71536411D01*
X196018225Y-71803989D01*
X196122629Y-72056043D01*
X196274201Y-72282886D01*
X196465000Y-72473685D01*
X196465001Y-74829860D01*
X196324866Y-74944866D01*
X196139294Y-75170986D01*
X196110000Y-75225791D01*
X196080706Y-75170986D01*
X195895134Y-74944866D01*
X195685000Y-74772413D01*
X195685000Y-68673685D01*
X195875799Y-68482886D01*
X196027371Y-68256043D01*
X196131775Y-68003989D01*
X196185000Y-67736411D01*
X196185000Y-67463589D01*
X196131775Y-67196011D01*
X196027371Y-66943957D01*
X195875799Y-66717114D01*
X195682886Y-66524201D01*
X195456043Y-66372629D01*
X195203989Y-66268225D01*
X194936411Y-66215000D01*
X194663589Y-66215000D01*
X194396011Y-66268225D01*
X194143957Y-66372629D01*
X193917114Y-66524201D01*
X193724201Y-66717114D01*
X193572629Y-66943957D01*
X193468225Y-67196011D01*
X193415000Y-67463589D01*
X193415000Y-67736411D01*
X193468225Y-68003989D01*
X193572629Y-68256043D01*
X193724201Y-68482886D01*
X193915000Y-68673685D01*
X193915001Y-74838067D01*
X193784866Y-74944866D01*
X193599294Y-75170986D01*
X193461401Y-75428966D01*
X193376487Y-75708889D01*
X193347815Y-76000000D01*
X191538114Y-76000000D01*
X191652953Y-75722756D01*
X191735000Y-75310279D01*
X191735000Y-74889721D01*
X191652953Y-74477244D01*
X191492012Y-74088698D01*
X191258363Y-73739017D01*
X190960983Y-73441637D01*
X190611302Y-73207988D01*
X190222756Y-73047047D01*
X189810279Y-72965000D01*
X189389721Y-72965000D01*
X188977244Y-73047047D01*
X188588698Y-73207988D01*
X188239017Y-73441637D01*
X187941637Y-73739017D01*
X187707988Y-74088698D01*
X187547047Y-74477244D01*
X187465000Y-74889721D01*
X182235000Y-74889721D01*
X182152953Y-74477244D01*
X181992012Y-74088698D01*
X181758363Y-73739017D01*
X181460983Y-73441637D01*
X181111302Y-73207988D01*
X180722756Y-73047047D01*
X180310279Y-72965000D01*
X179889721Y-72965000D01*
X179477244Y-73047047D01*
X179088698Y-73207988D01*
X178739017Y-73441637D01*
X178441637Y-73739017D01*
X178207988Y-74088698D01*
X178047047Y-74477244D01*
X177965000Y-74889721D01*
X175735000Y-74889721D01*
X175735000Y-67448816D01*
X180815000Y-67448816D01*
X180815000Y-67751184D01*
X180873989Y-68047743D01*
X180989701Y-68327095D01*
X181157688Y-68578505D01*
X181371495Y-68792312D01*
X181622905Y-68960299D01*
X181902257Y-69076011D01*
X182198816Y-69135000D01*
X182501184Y-69135000D01*
X182797743Y-69076011D01*
X183077095Y-68960299D01*
X183328505Y-68792312D01*
X183542312Y-68578505D01*
X183600000Y-68492169D01*
X183657688Y-68578505D01*
X183871495Y-68792312D01*
X184122905Y-68960299D01*
X184402257Y-69076011D01*
X184698816Y-69135000D01*
X185001184Y-69135000D01*
X185297743Y-69076011D01*
X185577095Y-68960299D01*
X185828505Y-68792312D01*
X186042312Y-68578505D01*
X186100000Y-68492169D01*
X186157688Y-68578505D01*
X186371495Y-68792312D01*
X186622905Y-68960299D01*
X186902257Y-69076011D01*
X187198816Y-69135000D01*
X187501184Y-69135000D01*
X187797743Y-69076011D01*
X188077095Y-68960299D01*
X188328505Y-68792312D01*
X188542312Y-68578505D01*
X188710299Y-68327095D01*
X188826011Y-68047743D01*
X188885000Y-67751184D01*
X188885000Y-67448816D01*
X188826011Y-67152257D01*
X188710299Y-66872905D01*
X188542312Y-66621495D01*
X188328505Y-66407688D01*
X188077095Y-66239701D01*
X187797743Y-66123989D01*
X187501184Y-66065000D01*
X187198816Y-66065000D01*
X186902257Y-66123989D01*
X186622905Y-66239701D01*
X186371495Y-66407688D01*
X186157688Y-66621495D01*
X186100000Y-66707831D01*
X186042312Y-66621495D01*
X185828505Y-66407688D01*
X185577095Y-66239701D01*
X185297743Y-66123989D01*
X185001184Y-66065000D01*
X184698816Y-66065000D01*
X184402257Y-66123989D01*
X184122905Y-66239701D01*
X183871495Y-66407688D01*
X183657688Y-66621495D01*
X183600000Y-66707831D01*
X183542312Y-66621495D01*
X183328505Y-66407688D01*
X183077095Y-66239701D01*
X182797743Y-66123989D01*
X182501184Y-66065000D01*
X182198816Y-66065000D01*
X181902257Y-66123989D01*
X181622905Y-66239701D01*
X181371495Y-66407688D01*
X181157688Y-66621495D01*
X180989701Y-66872905D01*
X180873989Y-67152257D01*
X180815000Y-67448816D01*
X175735000Y-67448816D01*
X175735000Y-57299999D01*
X176160720Y-57299999D01*
X176165001Y-57343468D01*
X176165002Y-61306522D01*
X176160720Y-61350001D01*
X176177806Y-61523491D01*
X176228413Y-61690314D01*
X176310591Y-61844060D01*
X176393469Y-61945047D01*
X176393472Y-61945050D01*
X176421185Y-61978818D01*
X176454952Y-62006530D01*
X177665000Y-63216579D01*
X177665000Y-63486411D01*
X177718225Y-63753989D01*
X177822629Y-64006043D01*
X177974201Y-64232886D01*
X178167114Y-64425799D01*
X178393957Y-64577371D01*
X178646011Y-64681775D01*
X178913589Y-64735000D01*
X179186411Y-64735000D01*
X179453989Y-64681775D01*
X179706043Y-64577371D01*
X179932886Y-64425799D01*
X180125799Y-64232886D01*
X180277371Y-64006043D01*
X180381775Y-63753989D01*
X180435000Y-63486411D01*
X180435000Y-63213589D01*
X180381775Y-62946011D01*
X180277371Y-62693957D01*
X180125799Y-62467114D01*
X179932886Y-62274201D01*
X179706043Y-62122629D01*
X179591053Y-62074999D01*
X179706037Y-62027371D01*
X179932880Y-61875799D01*
X180125793Y-61682886D01*
X180277365Y-61456043D01*
X180381769Y-61203989D01*
X180434994Y-60936411D01*
X180434994Y-60663589D01*
X180381769Y-60396011D01*
X180277365Y-60143957D01*
X180125793Y-59917114D01*
X179932880Y-59724201D01*
X179706037Y-59572629D01*
X179616053Y-59535357D01*
X179756043Y-59477371D01*
X179982886Y-59325799D01*
X180175799Y-59132886D01*
X180327371Y-58906043D01*
X180431775Y-58653989D01*
X180485000Y-58386411D01*
X180485000Y-58116578D01*
X180951928Y-57649651D01*
X180951928Y-59260000D01*
X180964188Y-59384482D01*
X181000498Y-59504180D01*
X181014299Y-59530000D01*
X181000498Y-59555820D01*
X180964188Y-59675518D01*
X180951928Y-59800000D01*
X180951928Y-61800000D01*
X180964188Y-61924482D01*
X181000498Y-62044180D01*
X181014299Y-62070000D01*
X181000498Y-62095820D01*
X180964188Y-62215518D01*
X180951928Y-62340000D01*
X180951928Y-64340000D01*
X180964188Y-64464482D01*
X181000498Y-64584180D01*
X181059463Y-64694494D01*
X181138815Y-64791185D01*
X181235506Y-64870537D01*
X181345820Y-64929502D01*
X181465518Y-64965812D01*
X181590000Y-64978072D01*
X184090000Y-64978072D01*
X184214482Y-64965812D01*
X184334180Y-64929502D01*
X184444494Y-64870537D01*
X184541185Y-64791185D01*
X184620537Y-64694494D01*
X184679502Y-64584180D01*
X184715812Y-64464482D01*
X184728072Y-64340000D01*
X184728072Y-62340000D01*
X184715812Y-62215518D01*
X184679502Y-62095820D01*
X184665701Y-62070000D01*
X184679502Y-62044180D01*
X184715812Y-61924482D01*
X184728072Y-61800000D01*
X184728072Y-59800000D01*
X184715812Y-59675518D01*
X184679502Y-59555820D01*
X184665701Y-59530000D01*
X184679502Y-59504180D01*
X184715812Y-59384482D01*
X184728072Y-59260000D01*
X184728072Y-57260000D01*
X184715812Y-57135518D01*
X184679502Y-57015820D01*
X184620537Y-56905506D01*
X184541185Y-56808815D01*
X184444494Y-56729463D01*
X184334180Y-56670498D01*
X184214482Y-56634188D01*
X184090000Y-56621928D01*
X183911731Y-56621928D01*
X184675049Y-55858611D01*
X184708817Y-55830898D01*
X184736533Y-55797127D01*
X184819411Y-55696140D01*
X184901589Y-55542395D01*
X184952195Y-55375571D01*
X184956899Y-55327805D01*
X184965000Y-55245558D01*
X184965000Y-55245550D01*
X184969281Y-55202081D01*
X184968294Y-55192056D01*
X185135134Y-55055134D01*
X185320706Y-54829014D01*
X185350000Y-54774209D01*
X185379294Y-54829014D01*
X185564866Y-55055134D01*
X185731706Y-55192056D01*
X185730719Y-55202081D01*
X185747805Y-55375571D01*
X185798412Y-55542394D01*
X185880590Y-55696140D01*
X185963468Y-55797127D01*
X185963469Y-55797128D01*
X185991184Y-55830898D01*
X186024951Y-55858610D01*
X186788268Y-56621928D01*
X185750000Y-56621928D01*
X185625518Y-56634188D01*
X185505820Y-56670498D01*
X185395506Y-56729463D01*
X185298815Y-56808815D01*
X185219463Y-56905506D01*
X185160498Y-57015820D01*
X185124188Y-57135518D01*
X185111928Y-57260000D01*
X185111928Y-59260000D01*
X185124188Y-59384482D01*
X185160498Y-59504180D01*
X185174299Y-59530000D01*
X185160498Y-59555820D01*
X185124188Y-59675518D01*
X185111928Y-59800000D01*
X185111928Y-61800000D01*
X185124188Y-61924482D01*
X185160498Y-62044180D01*
X185174299Y-62070000D01*
X185160498Y-62095820D01*
X185124188Y-62215518D01*
X185111928Y-62340000D01*
X185111928Y-64340000D01*
X185124188Y-64464482D01*
X185160498Y-64584180D01*
X185219463Y-64694494D01*
X185298815Y-64791185D01*
X185395506Y-64870537D01*
X185505820Y-64929502D01*
X185625518Y-64965812D01*
X185750000Y-64978072D01*
X188250000Y-64978072D01*
X188374482Y-64965812D01*
X188494180Y-64929502D01*
X188604494Y-64870537D01*
X188701185Y-64791185D01*
X188780537Y-64694494D01*
X188839502Y-64584180D01*
X188875812Y-64464482D01*
X188888072Y-64340000D01*
X188888072Y-62340000D01*
X188875812Y-62215518D01*
X188839502Y-62095820D01*
X188825701Y-62070000D01*
X188839502Y-62044180D01*
X188875812Y-61924482D01*
X188888072Y-61800000D01*
X188888072Y-59800000D01*
X188875812Y-59675518D01*
X188839502Y-59555820D01*
X188825701Y-59530000D01*
X188839502Y-59504180D01*
X188875812Y-59384482D01*
X188888072Y-59260000D01*
X188888072Y-57339650D01*
X189665000Y-58116579D01*
X189665000Y-58386411D01*
X189718225Y-58653989D01*
X189822629Y-58906043D01*
X189974201Y-59132886D01*
X190167114Y-59325799D01*
X190393957Y-59477371D01*
X190508948Y-59525002D01*
X190393965Y-59572629D01*
X190167122Y-59724201D01*
X189974209Y-59917114D01*
X189822637Y-60143957D01*
X189718233Y-60396011D01*
X189665008Y-60663589D01*
X189665008Y-60936411D01*
X189718233Y-61203989D01*
X189822637Y-61456043D01*
X189974209Y-61682886D01*
X190167122Y-61875799D01*
X190393965Y-62027371D01*
X190508943Y-62074996D01*
X190393957Y-62122625D01*
X190167114Y-62274197D01*
X189974201Y-62467110D01*
X189822629Y-62693953D01*
X189718225Y-62946007D01*
X189665000Y-63213585D01*
X189665000Y-63486407D01*
X189718225Y-63753985D01*
X189822629Y-64006039D01*
X189974201Y-64232882D01*
X190167114Y-64425795D01*
X190393957Y-64577367D01*
X190646011Y-64681771D01*
X190913589Y-64734996D01*
X191186411Y-64734996D01*
X191453989Y-64681771D01*
X191706043Y-64577367D01*
X191932886Y-64425795D01*
X192125799Y-64232882D01*
X192277371Y-64006039D01*
X192381775Y-63753985D01*
X192435000Y-63486407D01*
X192435000Y-63216575D01*
X192456531Y-63195044D01*
X192456535Y-63195039D01*
X193695048Y-61956527D01*
X193728816Y-61928814D01*
X193798373Y-61844060D01*
X193839410Y-61794056D01*
X193921588Y-61640311D01*
X193972194Y-61473487D01*
X193976196Y-61432854D01*
X193984999Y-61343474D01*
X193984999Y-61343466D01*
X193989280Y-61299997D01*
X193984999Y-61256528D01*
X193984999Y-60598816D01*
X200965000Y-60598816D01*
X200965000Y-60901184D01*
X201023989Y-61197743D01*
X201139701Y-61477095D01*
X201307688Y-61728505D01*
X201521495Y-61942312D01*
X201772905Y-62110299D01*
X202052257Y-62226011D01*
X202348816Y-62285000D01*
X202651184Y-62285000D01*
X202947743Y-62226011D01*
X203227095Y-62110299D01*
X203478505Y-61942312D01*
X203692312Y-61728505D01*
X203750000Y-61642169D01*
X203807688Y-61728505D01*
X204021495Y-61942312D01*
X204272905Y-62110299D01*
X204552257Y-62226011D01*
X204848816Y-62285000D01*
X205151184Y-62285000D01*
X205447743Y-62226011D01*
X205727095Y-62110299D01*
X205978505Y-61942312D01*
X206192312Y-61728505D01*
X206250000Y-61642169D01*
X206307688Y-61728505D01*
X206521495Y-61942312D01*
X206772905Y-62110299D01*
X207052257Y-62226011D01*
X207348816Y-62285000D01*
X207651184Y-62285000D01*
X207947743Y-62226011D01*
X208227095Y-62110299D01*
X208478505Y-61942312D01*
X208692312Y-61728505D01*
X208860299Y-61477095D01*
X208976011Y-61197743D01*
X209035000Y-60901184D01*
X209035000Y-60598816D01*
X208976011Y-60302257D01*
X208860299Y-60022905D01*
X208692312Y-59771495D01*
X208478505Y-59557688D01*
X208227095Y-59389701D01*
X207947743Y-59273989D01*
X207651184Y-59215000D01*
X207348816Y-59215000D01*
X207052257Y-59273989D01*
X206772905Y-59389701D01*
X206521495Y-59557688D01*
X206307688Y-59771495D01*
X206250000Y-59857831D01*
X206192312Y-59771495D01*
X205978505Y-59557688D01*
X205727095Y-59389701D01*
X205447743Y-59273989D01*
X205151184Y-59215000D01*
X204848816Y-59215000D01*
X204552257Y-59273989D01*
X204272905Y-59389701D01*
X204021495Y-59557688D01*
X203807688Y-59771495D01*
X203750000Y-59857831D01*
X203692312Y-59771495D01*
X203478505Y-59557688D01*
X203227095Y-59389701D01*
X202947743Y-59273989D01*
X202651184Y-59215000D01*
X202348816Y-59215000D01*
X202052257Y-59273989D01*
X201772905Y-59389701D01*
X201521495Y-59557688D01*
X201307688Y-59771495D01*
X201139701Y-60022905D01*
X201023989Y-60302257D01*
X200965000Y-60598816D01*
X193984999Y-60598816D01*
X193984999Y-55443468D01*
X193989280Y-55399999D01*
X193984999Y-55356530D01*
X193984999Y-55356522D01*
X193972194Y-55226509D01*
X193932052Y-55094180D01*
X193921588Y-55059685D01*
X193839410Y-54905940D01*
X193756531Y-54804952D01*
X193756529Y-54804950D01*
X193728816Y-54771182D01*
X193695049Y-54743470D01*
X193170612Y-54219033D01*
X193192185Y-54000000D01*
X193163513Y-53708889D01*
X193078599Y-53428966D01*
X192940706Y-53170986D01*
X192811534Y-53013589D01*
X194165000Y-53013589D01*
X194165000Y-53286411D01*
X194218225Y-53553989D01*
X194322629Y-53806043D01*
X194474201Y-54032886D01*
X194667114Y-54225799D01*
X194893957Y-54377371D01*
X195146011Y-54481775D01*
X195413589Y-54535000D01*
X195683421Y-54535000D01*
X195704952Y-54556531D01*
X195704957Y-54556535D01*
X197330225Y-56181804D01*
X197117114Y-56324201D01*
X196924201Y-56517114D01*
X196772629Y-56743957D01*
X196668225Y-56996011D01*
X196615000Y-57263589D01*
X196615000Y-57536411D01*
X196668225Y-57803989D01*
X196772629Y-58056043D01*
X196924201Y-58282886D01*
X197117114Y-58475799D01*
X197343957Y-58627371D01*
X197596011Y-58731775D01*
X197863589Y-58785000D01*
X198136411Y-58785000D01*
X198403989Y-58731775D01*
X198656043Y-58627371D01*
X198882886Y-58475799D01*
X199073685Y-58285000D01*
X206356531Y-58285000D01*
X206400000Y-58289281D01*
X206443469Y-58285000D01*
X206443477Y-58285000D01*
X206573490Y-58272195D01*
X206740313Y-58221589D01*
X206894059Y-58139411D01*
X207028817Y-58028817D01*
X207056534Y-57995044D01*
X210166579Y-54885000D01*
X216815375Y-54885000D01*
X216824188Y-54974482D01*
X216860498Y-55094180D01*
X216919463Y-55204494D01*
X216998815Y-55301185D01*
X217095506Y-55380537D01*
X217205820Y-55439502D01*
X217325518Y-55475812D01*
X217450000Y-55488072D01*
X219150000Y-55488072D01*
X219274482Y-55475812D01*
X219394180Y-55439502D01*
X219504494Y-55380537D01*
X219601185Y-55301185D01*
X219680537Y-55204494D01*
X219739502Y-55094180D01*
X219760393Y-55025313D01*
X219784866Y-55055134D01*
X219955000Y-55194760D01*
X219955000Y-55993421D01*
X219133422Y-56815000D01*
X218863589Y-56815000D01*
X218596011Y-56868225D01*
X218343957Y-56972629D01*
X218117114Y-57124201D01*
X217924201Y-57317114D01*
X217772629Y-57543957D01*
X217668225Y-57796011D01*
X217615000Y-58063589D01*
X217615000Y-58336411D01*
X217668225Y-58603989D01*
X217772629Y-58856043D01*
X217924201Y-59082886D01*
X218117114Y-59275799D01*
X218343957Y-59427371D01*
X218596011Y-59531775D01*
X218863589Y-59585000D01*
X219136411Y-59585000D01*
X219403989Y-59531775D01*
X219656043Y-59427371D01*
X219882886Y-59275799D01*
X220075799Y-59082886D01*
X220227371Y-58856043D01*
X220331775Y-58603989D01*
X220385000Y-58336411D01*
X220385000Y-58066578D01*
X221435050Y-57016529D01*
X221468817Y-56988817D01*
X221579411Y-56854059D01*
X221661589Y-56700313D01*
X221712195Y-56533490D01*
X221725000Y-56403477D01*
X221725000Y-56403469D01*
X221729281Y-56360000D01*
X221725000Y-56316531D01*
X221725000Y-55194759D01*
X221895134Y-55055134D01*
X222080706Y-54829014D01*
X222110000Y-54774209D01*
X222139294Y-54829014D01*
X222324866Y-55055134D01*
X222550986Y-55240706D01*
X222808966Y-55378599D01*
X223088889Y-55463513D01*
X223307050Y-55485000D01*
X223452950Y-55485000D01*
X223671111Y-55463513D01*
X223951034Y-55378599D01*
X224209014Y-55240706D01*
X224435134Y-55055134D01*
X224620706Y-54829014D01*
X224650000Y-54774209D01*
X224679294Y-54829014D01*
X224864866Y-55055134D01*
X225090986Y-55240706D01*
X225348966Y-55378599D01*
X225628889Y-55463513D01*
X225847050Y-55485000D01*
X225992950Y-55485000D01*
X226211111Y-55463513D01*
X226491034Y-55378599D01*
X226749014Y-55240706D01*
X226975134Y-55055134D01*
X227160706Y-54829014D01*
X227190000Y-54774209D01*
X227219294Y-54829014D01*
X227404866Y-55055134D01*
X227630986Y-55240706D01*
X227888966Y-55378599D01*
X228168889Y-55463513D01*
X228387050Y-55485000D01*
X228532950Y-55485000D01*
X228751111Y-55463513D01*
X229031034Y-55378599D01*
X229289014Y-55240706D01*
X229515134Y-55055134D01*
X229700706Y-54829014D01*
X229730000Y-54774209D01*
X229759294Y-54829014D01*
X229944866Y-55055134D01*
X230170986Y-55240706D01*
X230428966Y-55378599D01*
X230708889Y-55463513D01*
X230927050Y-55485000D01*
X231072950Y-55485000D01*
X231291111Y-55463513D01*
X231571034Y-55378599D01*
X231829014Y-55240706D01*
X232055134Y-55055134D01*
X232240706Y-54829014D01*
X232378599Y-54571034D01*
X232463513Y-54291111D01*
X232492185Y-54000000D01*
X232463513Y-53708889D01*
X232378599Y-53428966D01*
X232240706Y-53170986D01*
X232055134Y-52944866D01*
X231829014Y-52759294D01*
X231571034Y-52621401D01*
X231291111Y-52536487D01*
X231072950Y-52515000D01*
X230927050Y-52515000D01*
X230708889Y-52536487D01*
X230428966Y-52621401D01*
X230170986Y-52759294D01*
X229944866Y-52944866D01*
X229759294Y-53170986D01*
X229730000Y-53225791D01*
X229700706Y-53170986D01*
X229515134Y-52944866D01*
X229289014Y-52759294D01*
X229031034Y-52621401D01*
X228751111Y-52536487D01*
X228532950Y-52515000D01*
X228387050Y-52515000D01*
X228168889Y-52536487D01*
X227888966Y-52621401D01*
X227630986Y-52759294D01*
X227404866Y-52944866D01*
X227219294Y-53170986D01*
X227190000Y-53225791D01*
X227160706Y-53170986D01*
X226975134Y-52944866D01*
X226749014Y-52759294D01*
X226491034Y-52621401D01*
X226211111Y-52536487D01*
X225992950Y-52515000D01*
X225847050Y-52515000D01*
X225628889Y-52536487D01*
X225348966Y-52621401D01*
X225090986Y-52759294D01*
X224864866Y-52944866D01*
X224679294Y-53170986D01*
X224650000Y-53225791D01*
X224620706Y-53170986D01*
X224435134Y-52944866D01*
X224268294Y-52807944D01*
X224269281Y-52797918D01*
X224265000Y-52754452D01*
X224265000Y-52754442D01*
X224252195Y-52624429D01*
X224201589Y-52457606D01*
X224119411Y-52303860D01*
X224008817Y-52169102D01*
X223975044Y-52141385D01*
X223588615Y-51754956D01*
X223560898Y-51721183D01*
X223426140Y-51610589D01*
X223272394Y-51528411D01*
X223105571Y-51477805D01*
X222975558Y-51465000D01*
X222975550Y-51465000D01*
X222932081Y-51460719D01*
X222888612Y-51465000D01*
X217293465Y-51465000D01*
X217249999Y-51460719D01*
X217206533Y-51465000D01*
X217206523Y-51465000D01*
X217076510Y-51477805D01*
X216909687Y-51528411D01*
X216755941Y-51610589D01*
X216755939Y-51610590D01*
X216755940Y-51610590D01*
X216654953Y-51693468D01*
X216654951Y-51693470D01*
X216621183Y-51721183D01*
X216593470Y-51754951D01*
X215983431Y-52364991D01*
X209532800Y-52364991D01*
X209489334Y-52360710D01*
X209445868Y-52364991D01*
X209445858Y-52364991D01*
X209315845Y-52377796D01*
X209149022Y-52428402D01*
X208995276Y-52510580D01*
X208989890Y-52515000D01*
X208894288Y-52593459D01*
X208894286Y-52593461D01*
X208860518Y-52621174D01*
X208832805Y-52654942D01*
X207358202Y-54129546D01*
X207440706Y-54029014D01*
X207578599Y-53771034D01*
X207663513Y-53491111D01*
X207692185Y-53200000D01*
X207663513Y-52908889D01*
X207578599Y-52628966D01*
X207440706Y-52370986D01*
X207255134Y-52144866D01*
X207029014Y-51959294D01*
X206771034Y-51821401D01*
X206491111Y-51736487D01*
X206272950Y-51715000D01*
X206127050Y-51715000D01*
X205908889Y-51736487D01*
X205628966Y-51821401D01*
X205370986Y-51959294D01*
X205144866Y-52144866D01*
X205120393Y-52174687D01*
X205099502Y-52105820D01*
X205040537Y-51995506D01*
X204961185Y-51898815D01*
X204864494Y-51819463D01*
X204754180Y-51760498D01*
X204634482Y-51724188D01*
X204510000Y-51711928D01*
X202810000Y-51711928D01*
X202685518Y-51724188D01*
X202565820Y-51760498D01*
X202455506Y-51819463D01*
X202358815Y-51898815D01*
X202279463Y-51995506D01*
X202220498Y-52105820D01*
X202184188Y-52225518D01*
X202171928Y-52350000D01*
X202171928Y-54050000D01*
X202184188Y-54174482D01*
X202220498Y-54294180D01*
X202279463Y-54404494D01*
X202358815Y-54501185D01*
X202455506Y-54580537D01*
X202565820Y-54639502D01*
X202685518Y-54675812D01*
X202810000Y-54688072D01*
X204510000Y-54688072D01*
X204634482Y-54675812D01*
X204754180Y-54639502D01*
X204864494Y-54580537D01*
X204961185Y-54501185D01*
X205040537Y-54404494D01*
X205099502Y-54294180D01*
X205120393Y-54225313D01*
X205144866Y-54255134D01*
X205370986Y-54440706D01*
X205628966Y-54578599D01*
X205908889Y-54663513D01*
X206127050Y-54685000D01*
X206272950Y-54685000D01*
X206491111Y-54663513D01*
X206771034Y-54578599D01*
X207029014Y-54440706D01*
X207129546Y-54358201D01*
X205822748Y-55665000D01*
X199316579Y-55665000D01*
X196956535Y-53304957D01*
X196956531Y-53304952D01*
X196935000Y-53283421D01*
X196935000Y-53013589D01*
X196881775Y-52746011D01*
X196777371Y-52493957D01*
X196625799Y-52267114D01*
X196432886Y-52074201D01*
X196206043Y-51922629D01*
X195953989Y-51818225D01*
X195686411Y-51765000D01*
X195413589Y-51765000D01*
X195146011Y-51818225D01*
X194893957Y-51922629D01*
X194667114Y-52074201D01*
X194474201Y-52267114D01*
X194322629Y-52493957D01*
X194218225Y-52746011D01*
X194165000Y-53013589D01*
X192811534Y-53013589D01*
X192755134Y-52944866D01*
X192529014Y-52759294D01*
X192271034Y-52621401D01*
X191991111Y-52536487D01*
X191772950Y-52515000D01*
X191627050Y-52515000D01*
X191408889Y-52536487D01*
X191128966Y-52621401D01*
X190870986Y-52759294D01*
X190644866Y-52944866D01*
X190459294Y-53170986D01*
X190430000Y-53225791D01*
X190400706Y-53170986D01*
X190215134Y-52944866D01*
X189989014Y-52759294D01*
X189731034Y-52621401D01*
X189451111Y-52536487D01*
X189232950Y-52515000D01*
X189087050Y-52515000D01*
X188868889Y-52536487D01*
X188588966Y-52621401D01*
X188330986Y-52759294D01*
X188104866Y-52944866D01*
X187919294Y-53170986D01*
X187890000Y-53225791D01*
X187860706Y-53170986D01*
X187675134Y-52944866D01*
X187449014Y-52759294D01*
X187191034Y-52621401D01*
X186911111Y-52536487D01*
X186692950Y-52515000D01*
X186547050Y-52515000D01*
X186328889Y-52536487D01*
X186048966Y-52621401D01*
X185790986Y-52759294D01*
X185564866Y-52944866D01*
X185379294Y-53170986D01*
X185350000Y-53225791D01*
X185320706Y-53170986D01*
X185135134Y-52944866D01*
X184909014Y-52759294D01*
X184651034Y-52621401D01*
X184371111Y-52536487D01*
X184152950Y-52515000D01*
X184007050Y-52515000D01*
X183788889Y-52536487D01*
X183508966Y-52621401D01*
X183250986Y-52759294D01*
X183024866Y-52944866D01*
X182839294Y-53170986D01*
X182810000Y-53225791D01*
X182780706Y-53170986D01*
X182595134Y-52944866D01*
X182369014Y-52759294D01*
X182111034Y-52621401D01*
X181831111Y-52536487D01*
X181612950Y-52515000D01*
X181467050Y-52515000D01*
X181248889Y-52536487D01*
X180968966Y-52621401D01*
X180710986Y-52759294D01*
X180484866Y-52944866D01*
X180460393Y-52974687D01*
X180439502Y-52905820D01*
X180380537Y-52795506D01*
X180301185Y-52698815D01*
X180204494Y-52619463D01*
X180094180Y-52560498D01*
X179974482Y-52524188D01*
X179850000Y-52511928D01*
X178150000Y-52511928D01*
X178025518Y-52524188D01*
X177905820Y-52560498D01*
X177795506Y-52619463D01*
X177698815Y-52698815D01*
X177619463Y-52795506D01*
X177560498Y-52905820D01*
X177524188Y-53025518D01*
X177511928Y-53150000D01*
X177511928Y-54850000D01*
X177524188Y-54974482D01*
X177560498Y-55094180D01*
X177619463Y-55204494D01*
X177698815Y-55301185D01*
X177752873Y-55345549D01*
X176454957Y-56643465D01*
X176421184Y-56671182D01*
X176310590Y-56805941D01*
X176228412Y-56959687D01*
X176204228Y-57039410D01*
X176186027Y-57099411D01*
X176177806Y-57126510D01*
X176165001Y-57256523D01*
X176165001Y-57256530D01*
X176160720Y-57299999D01*
X175735000Y-57299999D01*
X175735000Y-50735000D01*
X234265001Y-50735000D01*
X234265000Y-79265000D01*
X234265000Y-79265000D01*
G37*
X234265000Y-79265000D02*
X175735000Y-79265000D01*
X175735000Y-74889721D01*
X177965000Y-74889721D01*
X177965000Y-75310279D01*
X178047047Y-75722756D01*
X178207988Y-76111302D01*
X178441637Y-76460983D01*
X178739017Y-76758363D01*
X179088698Y-76992012D01*
X179477244Y-77152953D01*
X179889721Y-77235000D01*
X180310279Y-77235000D01*
X180722756Y-77152953D01*
X181111302Y-76992012D01*
X181460983Y-76758363D01*
X181758363Y-76460983D01*
X181992012Y-76111302D01*
X182152953Y-75722756D01*
X182235000Y-75310279D01*
X182235000Y-74889721D01*
X187465000Y-74889721D01*
X187465000Y-75310279D01*
X187547047Y-75722756D01*
X187707988Y-76111302D01*
X187941637Y-76460983D01*
X188239017Y-76758363D01*
X188588698Y-76992012D01*
X188977244Y-77152953D01*
X189389721Y-77235000D01*
X189810279Y-77235000D01*
X190222756Y-77152953D01*
X190611302Y-76992012D01*
X190960983Y-76758363D01*
X191258363Y-76460983D01*
X191492012Y-76111302D01*
X191538114Y-76000000D01*
X193347815Y-76000000D01*
X193376487Y-76291111D01*
X193461401Y-76571034D01*
X193599294Y-76829014D01*
X193784866Y-77055134D01*
X194010986Y-77240706D01*
X194268966Y-77378599D01*
X194548889Y-77463513D01*
X194767050Y-77485000D01*
X194912950Y-77485000D01*
X195131111Y-77463513D01*
X195411034Y-77378599D01*
X195669014Y-77240706D01*
X195895134Y-77055134D01*
X196080706Y-76829014D01*
X196110000Y-76774209D01*
X196139294Y-76829014D01*
X196324866Y-77055134D01*
X196550986Y-77240706D01*
X196808966Y-77378599D01*
X197088889Y-77463513D01*
X197307050Y-77485000D01*
X197452950Y-77485000D01*
X197671111Y-77463513D01*
X197951034Y-77378599D01*
X198209014Y-77240706D01*
X198435134Y-77055134D01*
X198620706Y-76829014D01*
X198650000Y-76774209D01*
X198679294Y-76829014D01*
X198864866Y-77055134D01*
X199090986Y-77240706D01*
X199348966Y-77378599D01*
X199628889Y-77463513D01*
X199847050Y-77485000D01*
X199992950Y-77485000D01*
X200211111Y-77463513D01*
X200491034Y-77378599D01*
X200749014Y-77240706D01*
X200975134Y-77055134D01*
X201160706Y-76829014D01*
X201190000Y-76774209D01*
X201219294Y-76829014D01*
X201404866Y-77055134D01*
X201630986Y-77240706D01*
X201888966Y-77378599D01*
X202168889Y-77463513D01*
X202387050Y-77485000D01*
X202532950Y-77485000D01*
X202751111Y-77463513D01*
X203031034Y-77378599D01*
X203289014Y-77240706D01*
X203515134Y-77055134D01*
X203700706Y-76829014D01*
X203730000Y-76774209D01*
X203759294Y-76829014D01*
X203944866Y-77055134D01*
X204170986Y-77240706D01*
X204428966Y-77378599D01*
X204708889Y-77463513D01*
X204927050Y-77485000D01*
X205072950Y-77485000D01*
X205291111Y-77463513D01*
X205571034Y-77378599D01*
X205829014Y-77240706D01*
X206055134Y-77055134D01*
X206240706Y-76829014D01*
X206270000Y-76774209D01*
X206299294Y-76829014D01*
X206484866Y-77055134D01*
X206710986Y-77240706D01*
X206968966Y-77378599D01*
X207248889Y-77463513D01*
X207467050Y-77485000D01*
X207612950Y-77485000D01*
X207831111Y-77463513D01*
X208111034Y-77378599D01*
X208369014Y-77240706D01*
X208595134Y-77055134D01*
X208780706Y-76829014D01*
X208810000Y-76774209D01*
X208839294Y-76829014D01*
X209024866Y-77055134D01*
X209250986Y-77240706D01*
X209508966Y-77378599D01*
X209788889Y-77463513D01*
X210007050Y-77485000D01*
X210152950Y-77485000D01*
X210371111Y-77463513D01*
X210651034Y-77378599D01*
X210909014Y-77240706D01*
X211135134Y-77055134D01*
X211320706Y-76829014D01*
X211350000Y-76774209D01*
X211379294Y-76829014D01*
X211564866Y-77055134D01*
X211790986Y-77240706D01*
X212048966Y-77378599D01*
X212328889Y-77463513D01*
X212547050Y-77485000D01*
X212692950Y-77485000D01*
X212911111Y-77463513D01*
X213191034Y-77378599D01*
X213449014Y-77240706D01*
X213675134Y-77055134D01*
X213699607Y-77025313D01*
X213720498Y-77094180D01*
X213779463Y-77204494D01*
X213858815Y-77301185D01*
X213955506Y-77380537D01*
X214065820Y-77439502D01*
X214185518Y-77475812D01*
X214310000Y-77488072D01*
X216010000Y-77488072D01*
X216134482Y-77475812D01*
X216254180Y-77439502D01*
X216364494Y-77380537D01*
X216461185Y-77301185D01*
X216540537Y-77204494D01*
X216599502Y-77094180D01*
X216635812Y-76974482D01*
X216648072Y-76850000D01*
X216648072Y-75150000D01*
X216635812Y-75025518D01*
X216599502Y-74905820D01*
X216540537Y-74795506D01*
X216461185Y-74698815D01*
X216364494Y-74619463D01*
X216254180Y-74560498D01*
X216134482Y-74524188D01*
X216045000Y-74515375D01*
X216045000Y-74256578D01*
X216866579Y-73435000D01*
X218948950Y-73435000D01*
X218939017Y-73441637D01*
X218641637Y-73739017D01*
X218407988Y-74088698D01*
X218247047Y-74477244D01*
X218165000Y-74889721D01*
X218165000Y-75310279D01*
X218247047Y-75722756D01*
X218407988Y-76111302D01*
X218641637Y-76460983D01*
X218939017Y-76758363D01*
X219288698Y-76992012D01*
X219677244Y-77152953D01*
X220089721Y-77235000D01*
X220510279Y-77235000D01*
X220922756Y-77152953D01*
X221311302Y-76992012D01*
X221660983Y-76758363D01*
X221958363Y-76460983D01*
X222192012Y-76111302D01*
X222352953Y-75722756D01*
X222435000Y-75310279D01*
X222435000Y-74889721D01*
X222352953Y-74477244D01*
X222192012Y-74088698D01*
X221958363Y-73739017D01*
X221660983Y-73441637D01*
X221651050Y-73435000D01*
X228448950Y-73435000D01*
X228439017Y-73441637D01*
X228141637Y-73739017D01*
X227907988Y-74088698D01*
X227747047Y-74477244D01*
X227665000Y-74889721D01*
X227665000Y-75310279D01*
X227747047Y-75722756D01*
X227907988Y-76111302D01*
X228141637Y-76460983D01*
X228439017Y-76758363D01*
X228788698Y-76992012D01*
X229177244Y-77152953D01*
X229589721Y-77235000D01*
X230010279Y-77235000D01*
X230422756Y-77152953D01*
X230811302Y-76992012D01*
X231160983Y-76758363D01*
X231458363Y-76460983D01*
X231692012Y-76111302D01*
X231852953Y-75722756D01*
X231935000Y-75310279D01*
X231935000Y-74889721D01*
X231852953Y-74477244D01*
X231692012Y-74088698D01*
X231458363Y-73739017D01*
X231160983Y-73441637D01*
X230811302Y-73207988D01*
X230515935Y-73085643D01*
X232645050Y-70956529D01*
X232678817Y-70928817D01*
X232789411Y-70794059D01*
X232842856Y-70694069D01*
X232871589Y-70640314D01*
X232922195Y-70473490D01*
X232922195Y-70473489D01*
X232935000Y-70343477D01*
X232935000Y-70343469D01*
X232939281Y-70300000D01*
X232935000Y-70256531D01*
X232935000Y-68673685D01*
X233125799Y-68482886D01*
X233277371Y-68256043D01*
X233381775Y-68003989D01*
X233435000Y-67736411D01*
X233435000Y-67463589D01*
X233381775Y-67196011D01*
X233277371Y-66943957D01*
X233125799Y-66717114D01*
X232932886Y-66524201D01*
X232706043Y-66372629D01*
X232453989Y-66268225D01*
X232186411Y-66215000D01*
X231913589Y-66215000D01*
X231646011Y-66268225D01*
X231393957Y-66372629D01*
X231167114Y-66524201D01*
X230974201Y-66717114D01*
X230822629Y-66943957D01*
X230718225Y-67196011D01*
X230665000Y-67463589D01*
X230665000Y-67736411D01*
X230718225Y-68003989D01*
X230822629Y-68256043D01*
X230974201Y-68482886D01*
X231165001Y-68673686D01*
X231165000Y-69933421D01*
X229433422Y-71665000D01*
X216543465Y-71665000D01*
X216499999Y-71660719D01*
X216456533Y-71665000D01*
X216456523Y-71665000D01*
X216326510Y-71677805D01*
X216159687Y-71728411D01*
X216005941Y-71810589D01*
X216005939Y-71810590D01*
X216005940Y-71810590D01*
X215904953Y-71893468D01*
X215904951Y-71893470D01*
X215871183Y-71921183D01*
X215843470Y-71954951D01*
X214564951Y-73233471D01*
X214531184Y-73261183D01*
X214503471Y-73294951D01*
X214503468Y-73294954D01*
X214420590Y-73395941D01*
X214338412Y-73549687D01*
X214287805Y-73716510D01*
X214270719Y-73890000D01*
X214275001Y-73933479D01*
X214275001Y-74515375D01*
X214185518Y-74524188D01*
X214065820Y-74560498D01*
X213955506Y-74619463D01*
X213858815Y-74698815D01*
X213779463Y-74795506D01*
X213720498Y-74905820D01*
X213699607Y-74974687D01*
X213675134Y-74944866D01*
X213505000Y-74805241D01*
X213505000Y-73446578D01*
X220566577Y-66385002D01*
X221076315Y-66385002D01*
X221267114Y-66575801D01*
X221350839Y-66631745D01*
X221189701Y-66872905D01*
X221073989Y-67152257D01*
X221015000Y-67448816D01*
X221015000Y-67751184D01*
X221073989Y-68047743D01*
X221189701Y-68327095D01*
X221357688Y-68578505D01*
X221571495Y-68792312D01*
X221822905Y-68960299D01*
X222102257Y-69076011D01*
X222398816Y-69135000D01*
X222701184Y-69135000D01*
X222997743Y-69076011D01*
X223277095Y-68960299D01*
X223528505Y-68792312D01*
X223742312Y-68578505D01*
X223800000Y-68492169D01*
X223857688Y-68578505D01*
X224071495Y-68792312D01*
X224322905Y-68960299D01*
X224602257Y-69076011D01*
X224898816Y-69135000D01*
X225201184Y-69135000D01*
X225497743Y-69076011D01*
X225777095Y-68960299D01*
X226028505Y-68792312D01*
X226242312Y-68578505D01*
X226300000Y-68492169D01*
X226357688Y-68578505D01*
X226571495Y-68792312D01*
X226822905Y-68960299D01*
X227102257Y-69076011D01*
X227398816Y-69135000D01*
X227701184Y-69135000D01*
X227997743Y-69076011D01*
X228277095Y-68960299D01*
X228528505Y-68792312D01*
X228742312Y-68578505D01*
X228910299Y-68327095D01*
X229026011Y-68047743D01*
X229085000Y-67751184D01*
X229085000Y-67448816D01*
X229026011Y-67152257D01*
X228910299Y-66872905D01*
X228742312Y-66621495D01*
X228528505Y-66407688D01*
X228277095Y-66239701D01*
X227997743Y-66123989D01*
X227701184Y-66065000D01*
X227398816Y-66065000D01*
X227102257Y-66123989D01*
X226822905Y-66239701D01*
X226571495Y-66407688D01*
X226357688Y-66621495D01*
X226300000Y-66707831D01*
X226242312Y-66621495D01*
X226028505Y-66407688D01*
X225777095Y-66239701D01*
X225497743Y-66123989D01*
X225201184Y-66065000D01*
X224898816Y-66065000D01*
X224602257Y-66123989D01*
X224322905Y-66239701D01*
X224071495Y-66407688D01*
X223857688Y-66621495D01*
X223800000Y-66707831D01*
X223742312Y-66621495D01*
X223528505Y-66407688D01*
X223307776Y-66260201D01*
X223377371Y-66156045D01*
X223481775Y-65903991D01*
X223535000Y-65636413D01*
X223535000Y-65363591D01*
X223481775Y-65096013D01*
X223377371Y-64843959D01*
X223225799Y-64617116D01*
X223032886Y-64424203D01*
X222806043Y-64272631D01*
X222553989Y-64168227D01*
X222286411Y-64115002D01*
X222013589Y-64115002D01*
X221746011Y-64168227D01*
X221493957Y-64272631D01*
X221267114Y-64424203D01*
X221076315Y-64615002D01*
X220243467Y-64615002D01*
X220199998Y-64610721D01*
X220156529Y-64615002D01*
X220156521Y-64615002D01*
X220041304Y-64626350D01*
X220026507Y-64627807D01*
X219975901Y-64643159D01*
X219859685Y-64678413D01*
X219705939Y-64760591D01*
X219705937Y-64760592D01*
X219705938Y-64760592D01*
X219604951Y-64843470D01*
X219604949Y-64843472D01*
X219571181Y-64871185D01*
X219543468Y-64904953D01*
X217946399Y-66502022D01*
X217816907Y-66308224D01*
X217623994Y-66115311D01*
X217397151Y-65963739D01*
X217145097Y-65859335D01*
X216877519Y-65806110D01*
X216604697Y-65806110D01*
X216337119Y-65859335D01*
X216085065Y-65963739D01*
X215858222Y-66115311D01*
X215665309Y-66308224D01*
X215513737Y-66535067D01*
X215409333Y-66787121D01*
X215356108Y-67054699D01*
X215356108Y-67327521D01*
X215409333Y-67595099D01*
X215513737Y-67847153D01*
X215521647Y-67858992D01*
X213835000Y-69545639D01*
X213835000Y-60604125D01*
X213839281Y-60560659D01*
X213835000Y-60517193D01*
X213835000Y-60517183D01*
X213822195Y-60387170D01*
X213771589Y-60220347D01*
X213689411Y-60066601D01*
X213578817Y-59931843D01*
X213545045Y-59904127D01*
X213474802Y-59833884D01*
X213475799Y-59832886D01*
X213497772Y-59800000D01*
X223557815Y-59800000D01*
X223586487Y-60091111D01*
X223671401Y-60371034D01*
X223809294Y-60629014D01*
X223994866Y-60855134D01*
X224024687Y-60879607D01*
X223955820Y-60900498D01*
X223845506Y-60959463D01*
X223748815Y-61038815D01*
X223669463Y-61135506D01*
X223610498Y-61245820D01*
X223574188Y-61365518D01*
X223561928Y-61490000D01*
X223561928Y-63190000D01*
X223574188Y-63314482D01*
X223610498Y-63434180D01*
X223669463Y-63544494D01*
X223748815Y-63641185D01*
X223845506Y-63720537D01*
X223955820Y-63779502D01*
X224075518Y-63815812D01*
X224200000Y-63828072D01*
X225900000Y-63828072D01*
X226024482Y-63815812D01*
X226144180Y-63779502D01*
X226254494Y-63720537D01*
X226351185Y-63641185D01*
X226430537Y-63544494D01*
X226489502Y-63434180D01*
X226525812Y-63314482D01*
X226538072Y-63190000D01*
X226538072Y-61490000D01*
X226525812Y-61365518D01*
X226489502Y-61245820D01*
X226430537Y-61135506D01*
X226351185Y-61038815D01*
X226254494Y-60959463D01*
X226144180Y-60900498D01*
X226075313Y-60879607D01*
X226105134Y-60855134D01*
X226290706Y-60629014D01*
X226428599Y-60371034D01*
X226513513Y-60091111D01*
X226542185Y-59800000D01*
X226513513Y-59508889D01*
X226428599Y-59228966D01*
X226290706Y-58970986D01*
X226105134Y-58744866D01*
X225879014Y-58559294D01*
X225621034Y-58421401D01*
X225341111Y-58336487D01*
X225122950Y-58315000D01*
X224977050Y-58315000D01*
X224758889Y-58336487D01*
X224478966Y-58421401D01*
X224220986Y-58559294D01*
X223994866Y-58744866D01*
X223809294Y-58970986D01*
X223671401Y-59228966D01*
X223586487Y-59508889D01*
X223557815Y-59800000D01*
X213497772Y-59800000D01*
X213627371Y-59606043D01*
X213731775Y-59353989D01*
X213785000Y-59086411D01*
X213785000Y-58813589D01*
X213731775Y-58546011D01*
X213627371Y-58293957D01*
X213475799Y-58067114D01*
X213282886Y-57874201D01*
X213056043Y-57722629D01*
X212803989Y-57618225D01*
X212536411Y-57565000D01*
X212263589Y-57565000D01*
X211996011Y-57618225D01*
X211743957Y-57722629D01*
X211517114Y-57874201D01*
X211324201Y-58067114D01*
X211172629Y-58293957D01*
X211144753Y-58361256D01*
X211131775Y-58296011D01*
X211027371Y-58043957D01*
X210875799Y-57817114D01*
X210682886Y-57624201D01*
X210456043Y-57472629D01*
X210203989Y-57368225D01*
X209936411Y-57315000D01*
X209663589Y-57315000D01*
X209396011Y-57368225D01*
X209143957Y-57472629D01*
X208917114Y-57624201D01*
X208724201Y-57817114D01*
X208572629Y-58043957D01*
X208468225Y-58296011D01*
X208415000Y-58563589D01*
X208415000Y-58836411D01*
X208468225Y-59103989D01*
X208572629Y-59356043D01*
X208724201Y-59582886D01*
X208917114Y-59775799D01*
X209143957Y-59927371D01*
X209396011Y-60031775D01*
X209663589Y-60085000D01*
X209933421Y-60085000D01*
X209954952Y-60106531D01*
X209954957Y-60106535D01*
X211314990Y-61466569D01*
X211314989Y-66795643D01*
X211110983Y-66591637D01*
X210761302Y-66357988D01*
X210372756Y-66197047D01*
X209960279Y-66115000D01*
X209539721Y-66115000D01*
X209127244Y-66197047D01*
X208738698Y-66357988D01*
X208389017Y-66591637D01*
X208091637Y-66889017D01*
X207857988Y-67238698D01*
X207697047Y-67627244D01*
X207615000Y-68039721D01*
X207615000Y-68460279D01*
X207697047Y-68872756D01*
X207857988Y-69261302D01*
X208091637Y-69610983D01*
X208389017Y-69908363D01*
X208738698Y-70142012D01*
X209127244Y-70302953D01*
X209539721Y-70385000D01*
X209960279Y-70385000D01*
X210372756Y-70302953D01*
X210761302Y-70142012D01*
X211110983Y-69908363D01*
X211314989Y-69704357D01*
X211314989Y-69833432D01*
X207733422Y-73415000D01*
X206743466Y-73415000D01*
X206699999Y-73410719D01*
X206656533Y-73415000D01*
X206656523Y-73415000D01*
X206526510Y-73427805D01*
X206359687Y-73478411D01*
X206205941Y-73560589D01*
X206198709Y-73566524D01*
X206104953Y-73643468D01*
X206104951Y-73643470D01*
X206071183Y-73671183D01*
X206043470Y-73704951D01*
X205219034Y-74529388D01*
X205072950Y-74515000D01*
X204927050Y-74515000D01*
X204708889Y-74536487D01*
X204428966Y-74621401D01*
X204170986Y-74759294D01*
X203944866Y-74944866D01*
X203759294Y-75170986D01*
X203730000Y-75225791D01*
X203700706Y-75170986D01*
X203515134Y-74944866D01*
X203345000Y-74805241D01*
X203345000Y-73653465D01*
X203349281Y-73609999D01*
X203345000Y-73566533D01*
X203345000Y-73566523D01*
X203332195Y-73436510D01*
X203281589Y-73269687D01*
X203199411Y-73115941D01*
X203160404Y-73068411D01*
X203116532Y-73014953D01*
X203116530Y-73014951D01*
X203088817Y-72981183D01*
X203055051Y-72953472D01*
X200482215Y-70380637D01*
X200872756Y-70302953D01*
X201261302Y-70142012D01*
X201610983Y-69908363D01*
X201908363Y-69610983D01*
X202142012Y-69261302D01*
X202302953Y-68872756D01*
X202385000Y-68460279D01*
X202385000Y-68039721D01*
X202302953Y-67627244D01*
X202142012Y-67238698D01*
X201908363Y-66889017D01*
X201610983Y-66591637D01*
X201261302Y-66357988D01*
X200872756Y-66197047D01*
X200460279Y-66115000D01*
X200039721Y-66115000D01*
X199627244Y-66197047D01*
X199238698Y-66357988D01*
X198889017Y-66591637D01*
X198591637Y-66889017D01*
X198535000Y-66973780D01*
X198535000Y-63873685D01*
X198725799Y-63682886D01*
X198877371Y-63456043D01*
X198981775Y-63203989D01*
X199035000Y-62936411D01*
X199035000Y-62663589D01*
X198981775Y-62396011D01*
X198877371Y-62143957D01*
X198725799Y-61917114D01*
X198532886Y-61724201D01*
X198306043Y-61572629D01*
X198053989Y-61468225D01*
X197786411Y-61415000D01*
X197513589Y-61415000D01*
X197246011Y-61468225D01*
X196993957Y-61572629D01*
X196767114Y-61724201D01*
X196574201Y-61917114D01*
X196422629Y-62143957D01*
X196318225Y-62396011D01*
X196265000Y-62663589D01*
X196265000Y-62936411D01*
X196318225Y-63203989D01*
X196422629Y-63456043D01*
X196574201Y-63682886D01*
X196765000Y-63873685D01*
X196765001Y-68756521D01*
X196760719Y-68800000D01*
X196777805Y-68973490D01*
X196828412Y-69140313D01*
X196910590Y-69294059D01*
X196993468Y-69395046D01*
X196993471Y-69395049D01*
X197021184Y-69428817D01*
X197054952Y-69456530D01*
X197644959Y-70046537D01*
X197486411Y-70015000D01*
X197213589Y-70015000D01*
X196946011Y-70068225D01*
X196693957Y-70172629D01*
X196467114Y-70324201D01*
X196274201Y-70517114D01*
X196122629Y-70743957D01*
X196018225Y-70996011D01*
X195965000Y-71263589D01*
X195965000Y-71536411D01*
X196018225Y-71803989D01*
X196122629Y-72056043D01*
X196274201Y-72282886D01*
X196465000Y-72473685D01*
X196465001Y-74829860D01*
X196324866Y-74944866D01*
X196139294Y-75170986D01*
X196110000Y-75225791D01*
X196080706Y-75170986D01*
X195895134Y-74944866D01*
X195685000Y-74772413D01*
X195685000Y-68673685D01*
X195875799Y-68482886D01*
X196027371Y-68256043D01*
X196131775Y-68003989D01*
X196185000Y-67736411D01*
X196185000Y-67463589D01*
X196131775Y-67196011D01*
X196027371Y-66943957D01*
X195875799Y-66717114D01*
X195682886Y-66524201D01*
X195456043Y-66372629D01*
X195203989Y-66268225D01*
X194936411Y-66215000D01*
X194663589Y-66215000D01*
X194396011Y-66268225D01*
X194143957Y-66372629D01*
X193917114Y-66524201D01*
X193724201Y-66717114D01*
X193572629Y-66943957D01*
X193468225Y-67196011D01*
X193415000Y-67463589D01*
X193415000Y-67736411D01*
X193468225Y-68003989D01*
X193572629Y-68256043D01*
X193724201Y-68482886D01*
X193915000Y-68673685D01*
X193915001Y-74838067D01*
X193784866Y-74944866D01*
X193599294Y-75170986D01*
X193461401Y-75428966D01*
X193376487Y-75708889D01*
X193347815Y-76000000D01*
X191538114Y-76000000D01*
X191652953Y-75722756D01*
X191735000Y-75310279D01*
X191735000Y-74889721D01*
X191652953Y-74477244D01*
X191492012Y-74088698D01*
X191258363Y-73739017D01*
X190960983Y-73441637D01*
X190611302Y-73207988D01*
X190222756Y-73047047D01*
X189810279Y-72965000D01*
X189389721Y-72965000D01*
X188977244Y-73047047D01*
X188588698Y-73207988D01*
X188239017Y-73441637D01*
X187941637Y-73739017D01*
X187707988Y-74088698D01*
X187547047Y-74477244D01*
X187465000Y-74889721D01*
X182235000Y-74889721D01*
X182152953Y-74477244D01*
X181992012Y-74088698D01*
X181758363Y-73739017D01*
X181460983Y-73441637D01*
X181111302Y-73207988D01*
X180722756Y-73047047D01*
X180310279Y-72965000D01*
X179889721Y-72965000D01*
X179477244Y-73047047D01*
X179088698Y-73207988D01*
X178739017Y-73441637D01*
X178441637Y-73739017D01*
X178207988Y-74088698D01*
X178047047Y-74477244D01*
X177965000Y-74889721D01*
X175735000Y-74889721D01*
X175735000Y-67448816D01*
X180815000Y-67448816D01*
X180815000Y-67751184D01*
X180873989Y-68047743D01*
X180989701Y-68327095D01*
X181157688Y-68578505D01*
X181371495Y-68792312D01*
X181622905Y-68960299D01*
X181902257Y-69076011D01*
X182198816Y-69135000D01*
X182501184Y-69135000D01*
X182797743Y-69076011D01*
X183077095Y-68960299D01*
X183328505Y-68792312D01*
X183542312Y-68578505D01*
X183600000Y-68492169D01*
X183657688Y-68578505D01*
X183871495Y-68792312D01*
X184122905Y-68960299D01*
X184402257Y-69076011D01*
X184698816Y-69135000D01*
X185001184Y-69135000D01*
X185297743Y-69076011D01*
X185577095Y-68960299D01*
X185828505Y-68792312D01*
X186042312Y-68578505D01*
X186100000Y-68492169D01*
X186157688Y-68578505D01*
X186371495Y-68792312D01*
X186622905Y-68960299D01*
X186902257Y-69076011D01*
X187198816Y-69135000D01*
X187501184Y-69135000D01*
X187797743Y-69076011D01*
X188077095Y-68960299D01*
X188328505Y-68792312D01*
X188542312Y-68578505D01*
X188710299Y-68327095D01*
X188826011Y-68047743D01*
X188885000Y-67751184D01*
X188885000Y-67448816D01*
X188826011Y-67152257D01*
X188710299Y-66872905D01*
X188542312Y-66621495D01*
X188328505Y-66407688D01*
X188077095Y-66239701D01*
X187797743Y-66123989D01*
X187501184Y-66065000D01*
X187198816Y-66065000D01*
X186902257Y-66123989D01*
X186622905Y-66239701D01*
X186371495Y-66407688D01*
X186157688Y-66621495D01*
X186100000Y-66707831D01*
X186042312Y-66621495D01*
X185828505Y-66407688D01*
X185577095Y-66239701D01*
X185297743Y-66123989D01*
X185001184Y-66065000D01*
X184698816Y-66065000D01*
X184402257Y-66123989D01*
X184122905Y-66239701D01*
X183871495Y-66407688D01*
X183657688Y-66621495D01*
X183600000Y-66707831D01*
X183542312Y-66621495D01*
X183328505Y-66407688D01*
X183077095Y-66239701D01*
X182797743Y-66123989D01*
X182501184Y-66065000D01*
X182198816Y-66065000D01*
X181902257Y-66123989D01*
X181622905Y-66239701D01*
X181371495Y-66407688D01*
X181157688Y-66621495D01*
X180989701Y-66872905D01*
X180873989Y-67152257D01*
X180815000Y-67448816D01*
X175735000Y-67448816D01*
X175735000Y-57299999D01*
X176160720Y-57299999D01*
X176165001Y-57343468D01*
X176165002Y-61306522D01*
X176160720Y-61350001D01*
X176177806Y-61523491D01*
X176228413Y-61690314D01*
X176310591Y-61844060D01*
X176393469Y-61945047D01*
X176393472Y-61945050D01*
X176421185Y-61978818D01*
X176454952Y-62006530D01*
X177665000Y-63216579D01*
X177665000Y-63486411D01*
X177718225Y-63753989D01*
X177822629Y-64006043D01*
X177974201Y-64232886D01*
X178167114Y-64425799D01*
X178393957Y-64577371D01*
X178646011Y-64681775D01*
X178913589Y-64735000D01*
X179186411Y-64735000D01*
X179453989Y-64681775D01*
X179706043Y-64577371D01*
X179932886Y-64425799D01*
X180125799Y-64232886D01*
X180277371Y-64006043D01*
X180381775Y-63753989D01*
X180435000Y-63486411D01*
X180435000Y-63213589D01*
X180381775Y-62946011D01*
X180277371Y-62693957D01*
X180125799Y-62467114D01*
X179932886Y-62274201D01*
X179706043Y-62122629D01*
X179591053Y-62074999D01*
X179706037Y-62027371D01*
X179932880Y-61875799D01*
X180125793Y-61682886D01*
X180277365Y-61456043D01*
X180381769Y-61203989D01*
X180434994Y-60936411D01*
X180434994Y-60663589D01*
X180381769Y-60396011D01*
X180277365Y-60143957D01*
X180125793Y-59917114D01*
X179932880Y-59724201D01*
X179706037Y-59572629D01*
X179616053Y-59535357D01*
X179756043Y-59477371D01*
X179982886Y-59325799D01*
X180175799Y-59132886D01*
X180327371Y-58906043D01*
X180431775Y-58653989D01*
X180485000Y-58386411D01*
X180485000Y-58116578D01*
X180951928Y-57649651D01*
X180951928Y-59260000D01*
X180964188Y-59384482D01*
X181000498Y-59504180D01*
X181014299Y-59530000D01*
X181000498Y-59555820D01*
X180964188Y-59675518D01*
X180951928Y-59800000D01*
X180951928Y-61800000D01*
X180964188Y-61924482D01*
X181000498Y-62044180D01*
X181014299Y-62070000D01*
X181000498Y-62095820D01*
X180964188Y-62215518D01*
X180951928Y-62340000D01*
X180951928Y-64340000D01*
X180964188Y-64464482D01*
X181000498Y-64584180D01*
X181059463Y-64694494D01*
X181138815Y-64791185D01*
X181235506Y-64870537D01*
X181345820Y-64929502D01*
X181465518Y-64965812D01*
X181590000Y-64978072D01*
X184090000Y-64978072D01*
X184214482Y-64965812D01*
X184334180Y-64929502D01*
X184444494Y-64870537D01*
X184541185Y-64791185D01*
X184620537Y-64694494D01*
X184679502Y-64584180D01*
X184715812Y-64464482D01*
X184728072Y-64340000D01*
X184728072Y-62340000D01*
X184715812Y-62215518D01*
X184679502Y-62095820D01*
X184665701Y-62070000D01*
X184679502Y-62044180D01*
X184715812Y-61924482D01*
X184728072Y-61800000D01*
X184728072Y-59800000D01*
X184715812Y-59675518D01*
X184679502Y-59555820D01*
X184665701Y-59530000D01*
X184679502Y-59504180D01*
X184715812Y-59384482D01*
X184728072Y-59260000D01*
X184728072Y-57260000D01*
X184715812Y-57135518D01*
X184679502Y-57015820D01*
X184620537Y-56905506D01*
X184541185Y-56808815D01*
X184444494Y-56729463D01*
X184334180Y-56670498D01*
X184214482Y-56634188D01*
X184090000Y-56621928D01*
X183911731Y-56621928D01*
X184675049Y-55858611D01*
X184708817Y-55830898D01*
X184736533Y-55797127D01*
X184819411Y-55696140D01*
X184901589Y-55542395D01*
X184952195Y-55375571D01*
X184956899Y-55327805D01*
X184965000Y-55245558D01*
X184965000Y-55245550D01*
X184969281Y-55202081D01*
X184968294Y-55192056D01*
X185135134Y-55055134D01*
X185320706Y-54829014D01*
X185350000Y-54774209D01*
X185379294Y-54829014D01*
X185564866Y-55055134D01*
X185731706Y-55192056D01*
X185730719Y-55202081D01*
X185747805Y-55375571D01*
X185798412Y-55542394D01*
X185880590Y-55696140D01*
X185963468Y-55797127D01*
X185963469Y-55797128D01*
X185991184Y-55830898D01*
X186024951Y-55858610D01*
X186788268Y-56621928D01*
X185750000Y-56621928D01*
X185625518Y-56634188D01*
X185505820Y-56670498D01*
X185395506Y-56729463D01*
X185298815Y-56808815D01*
X185219463Y-56905506D01*
X185160498Y-57015820D01*
X185124188Y-57135518D01*
X185111928Y-57260000D01*
X185111928Y-59260000D01*
X185124188Y-59384482D01*
X185160498Y-59504180D01*
X185174299Y-59530000D01*
X185160498Y-59555820D01*
X185124188Y-59675518D01*
X185111928Y-59800000D01*
X185111928Y-61800000D01*
X185124188Y-61924482D01*
X185160498Y-62044180D01*
X185174299Y-62070000D01*
X185160498Y-62095820D01*
X185124188Y-62215518D01*
X185111928Y-62340000D01*
X185111928Y-64340000D01*
X185124188Y-64464482D01*
X185160498Y-64584180D01*
X185219463Y-64694494D01*
X185298815Y-64791185D01*
X185395506Y-64870537D01*
X185505820Y-64929502D01*
X185625518Y-64965812D01*
X185750000Y-64978072D01*
X188250000Y-64978072D01*
X188374482Y-64965812D01*
X188494180Y-64929502D01*
X188604494Y-64870537D01*
X188701185Y-64791185D01*
X188780537Y-64694494D01*
X188839502Y-64584180D01*
X188875812Y-64464482D01*
X188888072Y-64340000D01*
X188888072Y-62340000D01*
X188875812Y-62215518D01*
X188839502Y-62095820D01*
X188825701Y-62070000D01*
X188839502Y-62044180D01*
X188875812Y-61924482D01*
X188888072Y-61800000D01*
X188888072Y-59800000D01*
X188875812Y-59675518D01*
X188839502Y-59555820D01*
X188825701Y-59530000D01*
X188839502Y-59504180D01*
X188875812Y-59384482D01*
X188888072Y-59260000D01*
X188888072Y-57339650D01*
X189665000Y-58116579D01*
X189665000Y-58386411D01*
X189718225Y-58653989D01*
X189822629Y-58906043D01*
X189974201Y-59132886D01*
X190167114Y-59325799D01*
X190393957Y-59477371D01*
X190508948Y-59525002D01*
X190393965Y-59572629D01*
X190167122Y-59724201D01*
X189974209Y-59917114D01*
X189822637Y-60143957D01*
X189718233Y-60396011D01*
X189665008Y-60663589D01*
X189665008Y-60936411D01*
X189718233Y-61203989D01*
X189822637Y-61456043D01*
X189974209Y-61682886D01*
X190167122Y-61875799D01*
X190393965Y-62027371D01*
X190508943Y-62074996D01*
X190393957Y-62122625D01*
X190167114Y-62274197D01*
X189974201Y-62467110D01*
X189822629Y-62693953D01*
X189718225Y-62946007D01*
X189665000Y-63213585D01*
X189665000Y-63486407D01*
X189718225Y-63753985D01*
X189822629Y-64006039D01*
X189974201Y-64232882D01*
X190167114Y-64425795D01*
X190393957Y-64577367D01*
X190646011Y-64681771D01*
X190913589Y-64734996D01*
X191186411Y-64734996D01*
X191453989Y-64681771D01*
X191706043Y-64577367D01*
X191932886Y-64425795D01*
X192125799Y-64232882D01*
X192277371Y-64006039D01*
X192381775Y-63753985D01*
X192435000Y-63486407D01*
X192435000Y-63216575D01*
X192456531Y-63195044D01*
X192456535Y-63195039D01*
X193695048Y-61956527D01*
X193728816Y-61928814D01*
X193798373Y-61844060D01*
X193839410Y-61794056D01*
X193921588Y-61640311D01*
X193972194Y-61473487D01*
X193976196Y-61432854D01*
X193984999Y-61343474D01*
X193984999Y-61343466D01*
X193989280Y-61299997D01*
X193984999Y-61256528D01*
X193984999Y-60598816D01*
X200965000Y-60598816D01*
X200965000Y-60901184D01*
X201023989Y-61197743D01*
X201139701Y-61477095D01*
X201307688Y-61728505D01*
X201521495Y-61942312D01*
X201772905Y-62110299D01*
X202052257Y-62226011D01*
X202348816Y-62285000D01*
X202651184Y-62285000D01*
X202947743Y-62226011D01*
X203227095Y-62110299D01*
X203478505Y-61942312D01*
X203692312Y-61728505D01*
X203750000Y-61642169D01*
X203807688Y-61728505D01*
X204021495Y-61942312D01*
X204272905Y-62110299D01*
X204552257Y-62226011D01*
X204848816Y-62285000D01*
X205151184Y-62285000D01*
X205447743Y-62226011D01*
X205727095Y-62110299D01*
X205978505Y-61942312D01*
X206192312Y-61728505D01*
X206250000Y-61642169D01*
X206307688Y-61728505D01*
X206521495Y-61942312D01*
X206772905Y-62110299D01*
X207052257Y-62226011D01*
X207348816Y-62285000D01*
X207651184Y-62285000D01*
X207947743Y-62226011D01*
X208227095Y-62110299D01*
X208478505Y-61942312D01*
X208692312Y-61728505D01*
X208860299Y-61477095D01*
X208976011Y-61197743D01*
X209035000Y-60901184D01*
X209035000Y-60598816D01*
X208976011Y-60302257D01*
X208860299Y-60022905D01*
X208692312Y-59771495D01*
X208478505Y-59557688D01*
X208227095Y-59389701D01*
X207947743Y-59273989D01*
X207651184Y-59215000D01*
X207348816Y-59215000D01*
X207052257Y-59273989D01*
X206772905Y-59389701D01*
X206521495Y-59557688D01*
X206307688Y-59771495D01*
X206250000Y-59857831D01*
X206192312Y-59771495D01*
X205978505Y-59557688D01*
X205727095Y-59389701D01*
X205447743Y-59273989D01*
X205151184Y-59215000D01*
X204848816Y-59215000D01*
X204552257Y-59273989D01*
X204272905Y-59389701D01*
X204021495Y-59557688D01*
X203807688Y-59771495D01*
X203750000Y-59857831D01*
X203692312Y-59771495D01*
X203478505Y-59557688D01*
X203227095Y-59389701D01*
X202947743Y-59273989D01*
X202651184Y-59215000D01*
X202348816Y-59215000D01*
X202052257Y-59273989D01*
X201772905Y-59389701D01*
X201521495Y-59557688D01*
X201307688Y-59771495D01*
X201139701Y-60022905D01*
X201023989Y-60302257D01*
X200965000Y-60598816D01*
X193984999Y-60598816D01*
X193984999Y-55443468D01*
X193989280Y-55399999D01*
X193984999Y-55356530D01*
X193984999Y-55356522D01*
X193972194Y-55226509D01*
X193932052Y-55094180D01*
X193921588Y-55059685D01*
X193839410Y-54905940D01*
X193756531Y-54804952D01*
X193756529Y-54804950D01*
X193728816Y-54771182D01*
X193695049Y-54743470D01*
X193170612Y-54219033D01*
X193192185Y-54000000D01*
X193163513Y-53708889D01*
X193078599Y-53428966D01*
X192940706Y-53170986D01*
X192811534Y-53013589D01*
X194165000Y-53013589D01*
X194165000Y-53286411D01*
X194218225Y-53553989D01*
X194322629Y-53806043D01*
X194474201Y-54032886D01*
X194667114Y-54225799D01*
X194893957Y-54377371D01*
X195146011Y-54481775D01*
X195413589Y-54535000D01*
X195683421Y-54535000D01*
X195704952Y-54556531D01*
X195704957Y-54556535D01*
X197330225Y-56181804D01*
X197117114Y-56324201D01*
X196924201Y-56517114D01*
X196772629Y-56743957D01*
X196668225Y-56996011D01*
X196615000Y-57263589D01*
X196615000Y-57536411D01*
X196668225Y-57803989D01*
X196772629Y-58056043D01*
X196924201Y-58282886D01*
X197117114Y-58475799D01*
X197343957Y-58627371D01*
X197596011Y-58731775D01*
X197863589Y-58785000D01*
X198136411Y-58785000D01*
X198403989Y-58731775D01*
X198656043Y-58627371D01*
X198882886Y-58475799D01*
X199073685Y-58285000D01*
X206356531Y-58285000D01*
X206400000Y-58289281D01*
X206443469Y-58285000D01*
X206443477Y-58285000D01*
X206573490Y-58272195D01*
X206740313Y-58221589D01*
X206894059Y-58139411D01*
X207028817Y-58028817D01*
X207056534Y-57995044D01*
X210166579Y-54885000D01*
X216815375Y-54885000D01*
X216824188Y-54974482D01*
X216860498Y-55094180D01*
X216919463Y-55204494D01*
X216998815Y-55301185D01*
X217095506Y-55380537D01*
X217205820Y-55439502D01*
X217325518Y-55475812D01*
X217450000Y-55488072D01*
X219150000Y-55488072D01*
X219274482Y-55475812D01*
X219394180Y-55439502D01*
X219504494Y-55380537D01*
X219601185Y-55301185D01*
X219680537Y-55204494D01*
X219739502Y-55094180D01*
X219760393Y-55025313D01*
X219784866Y-55055134D01*
X219955000Y-55194760D01*
X219955000Y-55993421D01*
X219133422Y-56815000D01*
X218863589Y-56815000D01*
X218596011Y-56868225D01*
X218343957Y-56972629D01*
X218117114Y-57124201D01*
X217924201Y-57317114D01*
X217772629Y-57543957D01*
X217668225Y-57796011D01*
X217615000Y-58063589D01*
X217615000Y-58336411D01*
X217668225Y-58603989D01*
X217772629Y-58856043D01*
X217924201Y-59082886D01*
X218117114Y-59275799D01*
X218343957Y-59427371D01*
X218596011Y-59531775D01*
X218863589Y-59585000D01*
X219136411Y-59585000D01*
X219403989Y-59531775D01*
X219656043Y-59427371D01*
X219882886Y-59275799D01*
X220075799Y-59082886D01*
X220227371Y-58856043D01*
X220331775Y-58603989D01*
X220385000Y-58336411D01*
X220385000Y-58066578D01*
X221435050Y-57016529D01*
X221468817Y-56988817D01*
X221579411Y-56854059D01*
X221661589Y-56700313D01*
X221712195Y-56533490D01*
X221725000Y-56403477D01*
X221725000Y-56403469D01*
X221729281Y-56360000D01*
X221725000Y-56316531D01*
X221725000Y-55194759D01*
X221895134Y-55055134D01*
X222080706Y-54829014D01*
X222110000Y-54774209D01*
X222139294Y-54829014D01*
X222324866Y-55055134D01*
X222550986Y-55240706D01*
X222808966Y-55378599D01*
X223088889Y-55463513D01*
X223307050Y-55485000D01*
X223452950Y-55485000D01*
X223671111Y-55463513D01*
X223951034Y-55378599D01*
X224209014Y-55240706D01*
X224435134Y-55055134D01*
X224620706Y-54829014D01*
X224650000Y-54774209D01*
X224679294Y-54829014D01*
X224864866Y-55055134D01*
X225090986Y-55240706D01*
X225348966Y-55378599D01*
X225628889Y-55463513D01*
X225847050Y-55485000D01*
X225992950Y-55485000D01*
X226211111Y-55463513D01*
X226491034Y-55378599D01*
X226749014Y-55240706D01*
X226975134Y-55055134D01*
X227160706Y-54829014D01*
X227190000Y-54774209D01*
X227219294Y-54829014D01*
X227404866Y-55055134D01*
X227630986Y-55240706D01*
X227888966Y-55378599D01*
X228168889Y-55463513D01*
X228387050Y-55485000D01*
X228532950Y-55485000D01*
X228751111Y-55463513D01*
X229031034Y-55378599D01*
X229289014Y-55240706D01*
X229515134Y-55055134D01*
X229700706Y-54829014D01*
X229730000Y-54774209D01*
X229759294Y-54829014D01*
X229944866Y-55055134D01*
X230170986Y-55240706D01*
X230428966Y-55378599D01*
X230708889Y-55463513D01*
X230927050Y-55485000D01*
X231072950Y-55485000D01*
X231291111Y-55463513D01*
X231571034Y-55378599D01*
X231829014Y-55240706D01*
X232055134Y-55055134D01*
X232240706Y-54829014D01*
X232378599Y-54571034D01*
X232463513Y-54291111D01*
X232492185Y-54000000D01*
X232463513Y-53708889D01*
X232378599Y-53428966D01*
X232240706Y-53170986D01*
X232055134Y-52944866D01*
X231829014Y-52759294D01*
X231571034Y-52621401D01*
X231291111Y-52536487D01*
X231072950Y-52515000D01*
X230927050Y-52515000D01*
X230708889Y-52536487D01*
X230428966Y-52621401D01*
X230170986Y-52759294D01*
X229944866Y-52944866D01*
X229759294Y-53170986D01*
X229730000Y-53225791D01*
X229700706Y-53170986D01*
X229515134Y-52944866D01*
X229289014Y-52759294D01*
X229031034Y-52621401D01*
X228751111Y-52536487D01*
X228532950Y-52515000D01*
X228387050Y-52515000D01*
X228168889Y-52536487D01*
X227888966Y-52621401D01*
X227630986Y-52759294D01*
X227404866Y-52944866D01*
X227219294Y-53170986D01*
X227190000Y-53225791D01*
X227160706Y-53170986D01*
X226975134Y-52944866D01*
X226749014Y-52759294D01*
X226491034Y-52621401D01*
X226211111Y-52536487D01*
X225992950Y-52515000D01*
X225847050Y-52515000D01*
X225628889Y-52536487D01*
X225348966Y-52621401D01*
X225090986Y-52759294D01*
X224864866Y-52944866D01*
X224679294Y-53170986D01*
X224650000Y-53225791D01*
X224620706Y-53170986D01*
X224435134Y-52944866D01*
X224268294Y-52807944D01*
X224269281Y-52797918D01*
X224265000Y-52754452D01*
X224265000Y-52754442D01*
X224252195Y-52624429D01*
X224201589Y-52457606D01*
X224119411Y-52303860D01*
X224008817Y-52169102D01*
X223975044Y-52141385D01*
X223588615Y-51754956D01*
X223560898Y-51721183D01*
X223426140Y-51610589D01*
X223272394Y-51528411D01*
X223105571Y-51477805D01*
X222975558Y-51465000D01*
X222975550Y-51465000D01*
X222932081Y-51460719D01*
X222888612Y-51465000D01*
X217293465Y-51465000D01*
X217249999Y-51460719D01*
X217206533Y-51465000D01*
X217206523Y-51465000D01*
X217076510Y-51477805D01*
X216909687Y-51528411D01*
X216755941Y-51610589D01*
X216755939Y-51610590D01*
X216755940Y-51610590D01*
X216654953Y-51693468D01*
X216654951Y-51693470D01*
X216621183Y-51721183D01*
X216593470Y-51754951D01*
X215983431Y-52364991D01*
X209532800Y-52364991D01*
X209489334Y-52360710D01*
X209445868Y-52364991D01*
X209445858Y-52364991D01*
X209315845Y-52377796D01*
X209149022Y-52428402D01*
X208995276Y-52510580D01*
X208989890Y-52515000D01*
X208894288Y-52593459D01*
X208894286Y-52593461D01*
X208860518Y-52621174D01*
X208832805Y-52654942D01*
X207358202Y-54129546D01*
X207440706Y-54029014D01*
X207578599Y-53771034D01*
X207663513Y-53491111D01*
X207692185Y-53200000D01*
X207663513Y-52908889D01*
X207578599Y-52628966D01*
X207440706Y-52370986D01*
X207255134Y-52144866D01*
X207029014Y-51959294D01*
X206771034Y-51821401D01*
X206491111Y-51736487D01*
X206272950Y-51715000D01*
X206127050Y-51715000D01*
X205908889Y-51736487D01*
X205628966Y-51821401D01*
X205370986Y-51959294D01*
X205144866Y-52144866D01*
X205120393Y-52174687D01*
X205099502Y-52105820D01*
X205040537Y-51995506D01*
X204961185Y-51898815D01*
X204864494Y-51819463D01*
X204754180Y-51760498D01*
X204634482Y-51724188D01*
X204510000Y-51711928D01*
X202810000Y-51711928D01*
X202685518Y-51724188D01*
X202565820Y-51760498D01*
X202455506Y-51819463D01*
X202358815Y-51898815D01*
X202279463Y-51995506D01*
X202220498Y-52105820D01*
X202184188Y-52225518D01*
X202171928Y-52350000D01*
X202171928Y-54050000D01*
X202184188Y-54174482D01*
X202220498Y-54294180D01*
X202279463Y-54404494D01*
X202358815Y-54501185D01*
X202455506Y-54580537D01*
X202565820Y-54639502D01*
X202685518Y-54675812D01*
X202810000Y-54688072D01*
X204510000Y-54688072D01*
X204634482Y-54675812D01*
X204754180Y-54639502D01*
X204864494Y-54580537D01*
X204961185Y-54501185D01*
X205040537Y-54404494D01*
X205099502Y-54294180D01*
X205120393Y-54225313D01*
X205144866Y-54255134D01*
X205370986Y-54440706D01*
X205628966Y-54578599D01*
X205908889Y-54663513D01*
X206127050Y-54685000D01*
X206272950Y-54685000D01*
X206491111Y-54663513D01*
X206771034Y-54578599D01*
X207029014Y-54440706D01*
X207129546Y-54358201D01*
X205822748Y-55665000D01*
X199316579Y-55665000D01*
X196956535Y-53304957D01*
X196956531Y-53304952D01*
X196935000Y-53283421D01*
X196935000Y-53013589D01*
X196881775Y-52746011D01*
X196777371Y-52493957D01*
X196625799Y-52267114D01*
X196432886Y-52074201D01*
X196206043Y-51922629D01*
X195953989Y-51818225D01*
X195686411Y-51765000D01*
X195413589Y-51765000D01*
X195146011Y-51818225D01*
X194893957Y-51922629D01*
X194667114Y-52074201D01*
X194474201Y-52267114D01*
X194322629Y-52493957D01*
X194218225Y-52746011D01*
X194165000Y-53013589D01*
X192811534Y-53013589D01*
X192755134Y-52944866D01*
X192529014Y-52759294D01*
X192271034Y-52621401D01*
X191991111Y-52536487D01*
X191772950Y-52515000D01*
X191627050Y-52515000D01*
X191408889Y-52536487D01*
X191128966Y-52621401D01*
X190870986Y-52759294D01*
X190644866Y-52944866D01*
X190459294Y-53170986D01*
X190430000Y-53225791D01*
X190400706Y-53170986D01*
X190215134Y-52944866D01*
X189989014Y-52759294D01*
X189731034Y-52621401D01*
X189451111Y-52536487D01*
X189232950Y-52515000D01*
X189087050Y-52515000D01*
X188868889Y-52536487D01*
X188588966Y-52621401D01*
X188330986Y-52759294D01*
X188104866Y-52944866D01*
X187919294Y-53170986D01*
X187890000Y-53225791D01*
X187860706Y-53170986D01*
X187675134Y-52944866D01*
X187449014Y-52759294D01*
X187191034Y-52621401D01*
X186911111Y-52536487D01*
X186692950Y-52515000D01*
X186547050Y-52515000D01*
X186328889Y-52536487D01*
X186048966Y-52621401D01*
X185790986Y-52759294D01*
X185564866Y-52944866D01*
X185379294Y-53170986D01*
X185350000Y-53225791D01*
X185320706Y-53170986D01*
X185135134Y-52944866D01*
X184909014Y-52759294D01*
X184651034Y-52621401D01*
X184371111Y-52536487D01*
X184152950Y-52515000D01*
X184007050Y-52515000D01*
X183788889Y-52536487D01*
X183508966Y-52621401D01*
X183250986Y-52759294D01*
X183024866Y-52944866D01*
X182839294Y-53170986D01*
X182810000Y-53225791D01*
X182780706Y-53170986D01*
X182595134Y-52944866D01*
X182369014Y-52759294D01*
X182111034Y-52621401D01*
X181831111Y-52536487D01*
X181612950Y-52515000D01*
X181467050Y-52515000D01*
X181248889Y-52536487D01*
X180968966Y-52621401D01*
X180710986Y-52759294D01*
X180484866Y-52944866D01*
X180460393Y-52974687D01*
X180439502Y-52905820D01*
X180380537Y-52795506D01*
X180301185Y-52698815D01*
X180204494Y-52619463D01*
X180094180Y-52560498D01*
X179974482Y-52524188D01*
X179850000Y-52511928D01*
X178150000Y-52511928D01*
X178025518Y-52524188D01*
X177905820Y-52560498D01*
X177795506Y-52619463D01*
X177698815Y-52698815D01*
X177619463Y-52795506D01*
X177560498Y-52905820D01*
X177524188Y-53025518D01*
X177511928Y-53150000D01*
X177511928Y-54850000D01*
X177524188Y-54974482D01*
X177560498Y-55094180D01*
X177619463Y-55204494D01*
X177698815Y-55301185D01*
X177752873Y-55345549D01*
X176454957Y-56643465D01*
X176421184Y-56671182D01*
X176310590Y-56805941D01*
X176228412Y-56959687D01*
X176204228Y-57039410D01*
X176186027Y-57099411D01*
X176177806Y-57126510D01*
X176165001Y-57256523D01*
X176165001Y-57256530D01*
X176160720Y-57299999D01*
X175735000Y-57299999D01*
X175735000Y-50735000D01*
X234265001Y-50735000D01*
X234265000Y-79265000D01*
G36*
X211735000Y-74805240D02*
G01*
X211564866Y-74944866D01*
X211379294Y-75170986D01*
X211350000Y-75225791D01*
X211320706Y-75170986D01*
X211135134Y-74944866D01*
X211027370Y-74856426D01*
X211735001Y-74148796D01*
X211735000Y-74805240D01*
X211735000Y-74805240D01*
G37*
X211735000Y-74805240D02*
X211564866Y-74944866D01*
X211379294Y-75170986D01*
X211350000Y-75225791D01*
X211320706Y-75170986D01*
X211135134Y-74944866D01*
X211027370Y-74856426D01*
X211735001Y-74148796D01*
X211735000Y-74805240D01*
G36*
X201575000Y-73976579D02*
G01*
X201575001Y-74805240D01*
X201404866Y-74944866D01*
X201219294Y-75170986D01*
X201190000Y-75225791D01*
X201160706Y-75170986D01*
X200975134Y-74944866D01*
X200785000Y-74788827D01*
X200785000Y-74273685D01*
X200975799Y-74082886D01*
X201127371Y-73856043D01*
X201223174Y-73624753D01*
X201575000Y-73976579D01*
X201575000Y-73976579D01*
G37*
X201575000Y-73976579D02*
X201575001Y-74805240D01*
X201404866Y-74944866D01*
X201219294Y-75170986D01*
X201190000Y-75225791D01*
X201160706Y-75170986D01*
X200975134Y-74944866D01*
X200785000Y-74788827D01*
X200785000Y-74273685D01*
X200975799Y-74082886D01*
X201127371Y-73856043D01*
X201223174Y-73624753D01*
X201575000Y-73976579D01*
G36*
X199475247Y-71876826D02*
G01*
X199243957Y-71972629D01*
X199017114Y-72124201D01*
X198824201Y-72317114D01*
X198672629Y-72543957D01*
X198568225Y-72796011D01*
X198515000Y-73063589D01*
X198515000Y-73336411D01*
X198568225Y-73603989D01*
X198672629Y-73856043D01*
X198824201Y-74082886D01*
X199015000Y-74273685D01*
X199015001Y-74821654D01*
X198864866Y-74944866D01*
X198679294Y-75170986D01*
X198650000Y-75225791D01*
X198620706Y-75170986D01*
X198435134Y-74944866D01*
X198235000Y-74780620D01*
X198235000Y-72473685D01*
X198425799Y-72282886D01*
X198577371Y-72056043D01*
X198681775Y-71803989D01*
X198735000Y-71536411D01*
X198735000Y-71263589D01*
X198703463Y-71105041D01*
X199475247Y-71876826D01*
X199475247Y-71876826D01*
G37*
X199475247Y-71876826D02*
X199243957Y-71972629D01*
X199017114Y-72124201D01*
X198824201Y-72317114D01*
X198672629Y-72543957D01*
X198568225Y-72796011D01*
X198515000Y-73063589D01*
X198515000Y-73336411D01*
X198568225Y-73603989D01*
X198672629Y-73856043D01*
X198824201Y-74082886D01*
X199015000Y-74273685D01*
X199015001Y-74821654D01*
X198864866Y-74944866D01*
X198679294Y-75170986D01*
X198650000Y-75225791D01*
X198620706Y-75170986D01*
X198435134Y-74944866D01*
X198235000Y-74780620D01*
X198235000Y-72473685D01*
X198425799Y-72282886D01*
X198577371Y-72056043D01*
X198681775Y-71803989D01*
X198735000Y-71536411D01*
X198735000Y-71263589D01*
X198703463Y-71105041D01*
X199475247Y-71876826D01*
G36*
X192214999Y-55766578D02*
G01*
X192214999Y-55803420D01*
X191885494Y-55473915D01*
X191919033Y-55470612D01*
X192214999Y-55766578D01*
X192214999Y-55766578D01*
G37*
X192214999Y-55766578D02*
X192214999Y-55803420D01*
X191885494Y-55473915D01*
X191919033Y-55470612D01*
X192214999Y-55766578D01*
G36*
X187919294Y-54829014D02*
G01*
X188104866Y-55055134D01*
X188330986Y-55240706D01*
X188588966Y-55378599D01*
X188708964Y-55415000D01*
X188084498Y-55415000D01*
X187697445Y-55027948D01*
X187860706Y-54829014D01*
X187890000Y-54774209D01*
X187919294Y-54829014D01*
X187919294Y-54829014D01*
G37*
X187919294Y-54829014D02*
X188104866Y-55055134D01*
X188330986Y-55240706D01*
X188588966Y-55378599D01*
X188708964Y-55415000D01*
X188084498Y-55415000D01*
X187697445Y-55027948D01*
X187860706Y-54829014D01*
X187890000Y-54774209D01*
X187919294Y-54829014D01*
G36*
X182839294Y-54829014D02*
G01*
X183002555Y-55027948D01*
X182715503Y-55315000D01*
X182230020Y-55315000D01*
X182369014Y-55240706D01*
X182595134Y-55055134D01*
X182780706Y-54829014D01*
X182810000Y-54774209D01*
X182839294Y-54829014D01*
X182839294Y-54829014D01*
G37*
X182839294Y-54829014D02*
X183002555Y-55027948D01*
X182715503Y-55315000D01*
X182230020Y-55315000D01*
X182369014Y-55240706D01*
X182595134Y-55055134D01*
X182780706Y-54829014D01*
X182810000Y-54774209D01*
X182839294Y-54829014D01*
M02*
