G04 #@! TF.GenerationSoftware,KiCad,Pcbnew,(5.1.4)-1*
G04 #@! TF.CreationDate,2019-12-04T23:16:08+01:00*
G04 #@! TF.ProjectId,instru_bab_v2,696e7374-7275-45f6-9261-625f76322e6b,rev?*
G04 #@! TF.SameCoordinates,Original*
G04 #@! TF.FileFunction,Soldermask,Bot*
G04 #@! TF.FilePolarity,Negative*
%FSLAX46Y46*%
G04 Gerber Fmt 4.6, Leading zero omitted, Abs format (unit mm)*
G04 Created by KiCad (PCBNEW (5.1.4)-1) date 2019-12-04 23:16:08*
%MOMM*%
%LPD*%
G04 APERTURE LIST*
%ADD10C,0.200000*%
%ADD11R,2.100000X2.100000*%
%ADD12O,2.100000X2.100000*%
%ADD13C,2.200000*%
%ADD14C,3.400000*%
%ADD15R,2.900000X2.400000*%
%ADD16R,1.100000X1.700000*%
%ADD17R,1.300000X1.200000*%
%ADD18C,1.900000*%
G04 APERTURE END LIST*
D10*
X239666666Y-50000000D02*
G75*
G03X239666666Y-50000000I-1666666J0D01*
G01*
X235500000Y-50000000D02*
X240500000Y-50000000D01*
X238000000Y-47500000D02*
X238000000Y-52500000D01*
X170666666Y-50900000D02*
G75*
G03X170666666Y-50900000I-1666666J0D01*
G01*
X166500000Y-50900000D02*
X171500000Y-50900000D01*
X169000000Y-48400000D02*
X169000000Y-53400000D01*
X170666666Y-80000000D02*
G75*
G03X170666666Y-80000000I-1666666J0D01*
G01*
X166500000Y-80000000D02*
X171500000Y-80000000D01*
X169000000Y-77500000D02*
X169000000Y-82500000D01*
X239666666Y-80000000D02*
G75*
G03X239666666Y-80000000I-1666666J0D01*
G01*
X235500000Y-80000000D02*
X240500000Y-80000000D01*
X238000000Y-77500000D02*
X238000000Y-82500000D01*
X235000000Y-50000000D02*
X175000000Y-50000000D01*
X235000000Y-80000000D02*
X235000000Y-50000000D01*
X175000000Y-80000000D02*
X235000000Y-80000000D01*
X175000000Y-50000000D02*
X175000000Y-80000000D01*
D11*
X215160000Y-76000000D03*
D12*
X212620000Y-76000000D03*
X210080000Y-76000000D03*
X207540000Y-76000000D03*
X205000000Y-76000000D03*
X202460000Y-76000000D03*
X199920000Y-76000000D03*
X197380000Y-76000000D03*
X194840000Y-76000000D03*
D13*
X187350000Y-67600000D03*
X184850000Y-67600000D03*
X182350000Y-67600000D03*
D14*
X189600000Y-75100000D03*
X180100000Y-75100000D03*
D15*
X187000000Y-63340000D03*
X182840000Y-63340000D03*
X187000000Y-60800000D03*
X182840000Y-60800000D03*
X187000000Y-58260000D03*
X182840000Y-58260000D03*
D16*
X222400000Y-59800000D03*
X220500000Y-59800000D03*
D17*
X198000000Y-55100000D03*
X198000000Y-53200000D03*
X200000000Y-54150000D03*
D13*
X227550000Y-67600000D03*
X225050000Y-67600000D03*
X222550000Y-67600000D03*
D14*
X229800000Y-75100000D03*
X220300000Y-75100000D03*
D13*
X207500000Y-60750000D03*
X205000000Y-60750000D03*
X202500000Y-60750000D03*
D14*
X209750000Y-68250000D03*
X200250000Y-68250000D03*
D11*
X179000000Y-54000000D03*
D12*
X181540000Y-54000000D03*
X184080000Y-54000000D03*
X186620000Y-54000000D03*
X189160000Y-54000000D03*
X191700000Y-54000000D03*
D11*
X218300000Y-54000000D03*
D12*
X220840000Y-54000000D03*
X223380000Y-54000000D03*
X225920000Y-54000000D03*
X228460000Y-54000000D03*
X231000000Y-54000000D03*
D11*
X225050000Y-62340000D03*
D12*
X225050000Y-59800000D03*
D16*
X210300000Y-53200000D03*
X212200000Y-53200000D03*
D11*
X203660000Y-53200000D03*
D12*
X206200000Y-53200000D03*
D18*
X198000000Y-57400000D03*
X219000000Y-58200000D03*
X179050000Y-63350000D03*
X179049994Y-60800000D03*
X179100000Y-58250000D03*
X195550000Y-53150000D03*
X191050000Y-58250000D03*
X191050008Y-60800000D03*
X191050000Y-63349996D03*
X232050000Y-67600000D03*
X222150000Y-65500002D03*
X216741108Y-67191110D03*
X212400000Y-58950000D03*
X209800000Y-58700000D03*
X197650000Y-62800000D03*
X194800000Y-67600000D03*
X197350000Y-71400000D03*
X199900000Y-73200000D03*
M02*
