G04 #@! TF.GenerationSoftware,KiCad,Pcbnew,(5.1.4)-1*
G04 #@! TF.CreationDate,2019-12-04T23:16:08+01:00*
G04 #@! TF.ProjectId,instru_bab_v2,696e7374-7275-45f6-9261-625f76322e6b,rev?*
G04 #@! TF.SameCoordinates,Original*
G04 #@! TF.FileFunction,Copper,L2,Bot*
G04 #@! TF.FilePolarity,Positive*
%FSLAX46Y46*%
G04 Gerber Fmt 4.6, Leading zero omitted, Abs format (unit mm)*
G04 Created by KiCad (PCBNEW (5.1.4)-1) date 2019-12-04 23:16:08*
%MOMM*%
%LPD*%
G04 APERTURE LIST*
%ADD10C,0.200000*%
%ADD11C,0.300000*%
%ADD12R,1.700000X1.700000*%
%ADD13O,1.700000X1.700000*%
%ADD14C,1.800000*%
%ADD15C,3.000000*%
%ADD16R,2.500000X2.000000*%
%ADD17R,0.700000X1.300000*%
%ADD18R,0.900000X0.800000*%
%ADD19C,1.500000*%
%ADD20C,0.500000*%
%ADD21C,0.254000*%
G04 APERTURE END LIST*
D10*
X239666666Y-50000000D02*
G75*
G03X239666666Y-50000000I-1666666J0D01*
G01*
X235500000Y-50000000D02*
X240500000Y-50000000D01*
X238000000Y-47500000D02*
X238000000Y-52500000D01*
X170666666Y-50900000D02*
G75*
G03X170666666Y-50900000I-1666666J0D01*
G01*
X166500000Y-50900000D02*
X171500000Y-50900000D01*
X169000000Y-48400000D02*
X169000000Y-53400000D01*
X170666666Y-80000000D02*
G75*
G03X170666666Y-80000000I-1666666J0D01*
G01*
X166500000Y-80000000D02*
X171500000Y-80000000D01*
X169000000Y-77500000D02*
X169000000Y-82500000D01*
X239666666Y-80000000D02*
G75*
G03X239666666Y-80000000I-1666666J0D01*
G01*
X235500000Y-80000000D02*
X240500000Y-80000000D01*
X238000000Y-77500000D02*
X238000000Y-82500000D01*
D11*
X-75964285Y-187767857D02*
X-76178571Y-187839285D01*
X-76250000Y-187910714D01*
X-76321428Y-188053571D01*
X-76321428Y-188267857D01*
X-76250000Y-188410714D01*
X-76178571Y-188482142D01*
X-76035714Y-188553571D01*
X-75464285Y-188553571D01*
X-75464285Y-187053571D01*
X-75964285Y-187053571D01*
X-76107142Y-187125000D01*
X-76178571Y-187196428D01*
X-76250000Y-187339285D01*
X-76250000Y-187482142D01*
X-76178571Y-187625000D01*
X-76107142Y-187696428D01*
X-75964285Y-187767857D01*
X-75464285Y-187767857D01*
X-76892857Y-188125000D02*
X-77607142Y-188125000D01*
X-76750000Y-188553571D02*
X-77250000Y-187053571D01*
X-77750000Y-188553571D01*
X-78750000Y-187767857D02*
X-78964285Y-187839285D01*
X-79035714Y-187910714D01*
X-79107142Y-188053571D01*
X-79107142Y-188267857D01*
X-79035714Y-188410714D01*
X-78964285Y-188482142D01*
X-78821428Y-188553571D01*
X-78250000Y-188553571D01*
X-78250000Y-187053571D01*
X-78750000Y-187053571D01*
X-78892857Y-187125000D01*
X-78964285Y-187196428D01*
X-79035714Y-187339285D01*
X-79035714Y-187482142D01*
X-78964285Y-187625000D01*
X-78892857Y-187696428D01*
X-78750000Y-187767857D01*
X-78250000Y-187767857D01*
X-81535714Y-188482142D02*
X-81392857Y-188553571D01*
X-81107142Y-188553571D01*
X-80964285Y-188482142D01*
X-80892857Y-188410714D01*
X-80821428Y-188267857D01*
X-80821428Y-187839285D01*
X-80892857Y-187696428D01*
X-80964285Y-187625000D01*
X-81107142Y-187553571D01*
X-81392857Y-187553571D01*
X-81535714Y-187625000D01*
X-82821428Y-188553571D02*
X-82821428Y-187767857D01*
X-82750000Y-187625000D01*
X-82607142Y-187553571D01*
X-82321428Y-187553571D01*
X-82178571Y-187625000D01*
X-82821428Y-188482142D02*
X-82678571Y-188553571D01*
X-82321428Y-188553571D01*
X-82178571Y-188482142D01*
X-82107142Y-188339285D01*
X-82107142Y-188196428D01*
X-82178571Y-188053571D01*
X-82321428Y-187982142D01*
X-82678571Y-187982142D01*
X-82821428Y-187910714D01*
X-83535714Y-188553571D02*
X-83535714Y-187553571D01*
X-83535714Y-187839285D02*
X-83607142Y-187696428D01*
X-83678571Y-187625000D01*
X-83821428Y-187553571D01*
X-83964285Y-187553571D01*
X-84250000Y-187553571D02*
X-84821428Y-187553571D01*
X-84464285Y-187053571D02*
X-84464285Y-188339285D01*
X-84535714Y-188482142D01*
X-84678571Y-188553571D01*
X-84821428Y-188553571D01*
X-85892857Y-188482142D02*
X-85750000Y-188553571D01*
X-85464285Y-188553571D01*
X-85321428Y-188482142D01*
X-85250000Y-188339285D01*
X-85250000Y-187767857D01*
X-85321428Y-187625000D01*
X-85464285Y-187553571D01*
X-85750000Y-187553571D01*
X-85892857Y-187625000D01*
X-85964285Y-187767857D01*
X-85964285Y-187910714D01*
X-85250000Y-188053571D01*
X-88392857Y-188553571D02*
X-88392857Y-187053571D01*
X-88392857Y-188482142D02*
X-88250000Y-188553571D01*
X-87964285Y-188553571D01*
X-87821428Y-188482142D01*
X-87750000Y-188410714D01*
X-87678571Y-188267857D01*
X-87678571Y-187839285D01*
X-87750000Y-187696428D01*
X-87821428Y-187625000D01*
X-87964285Y-187553571D01*
X-88250000Y-187553571D01*
X-88392857Y-187625000D01*
X-89678571Y-188482142D02*
X-89535714Y-188553571D01*
X-89250000Y-188553571D01*
X-89107142Y-188482142D01*
X-89035714Y-188339285D01*
X-89035714Y-187767857D01*
X-89107142Y-187625000D01*
X-89250000Y-187553571D01*
X-89535714Y-187553571D01*
X-89678571Y-187625000D01*
X-89750000Y-187767857D01*
X-89750000Y-187910714D01*
X-89035714Y-188053571D01*
X-92178571Y-188482142D02*
X-92035714Y-188553571D01*
X-91750000Y-188553571D01*
X-91607142Y-188482142D01*
X-91535714Y-188410714D01*
X-91464285Y-188267857D01*
X-91464285Y-187839285D01*
X-91535714Y-187696428D01*
X-91607142Y-187625000D01*
X-91750000Y-187553571D01*
X-92035714Y-187553571D01*
X-92178571Y-187625000D01*
X-93035714Y-188553571D02*
X-92892857Y-188482142D01*
X-92821428Y-188410714D01*
X-92750000Y-188267857D01*
X-92750000Y-187839285D01*
X-92821428Y-187696428D01*
X-92892857Y-187625000D01*
X-93035714Y-187553571D01*
X-93250000Y-187553571D01*
X-93392857Y-187625000D01*
X-93464285Y-187696428D01*
X-93535714Y-187839285D01*
X-93535714Y-188267857D01*
X-93464285Y-188410714D01*
X-93392857Y-188482142D01*
X-93250000Y-188553571D01*
X-93035714Y-188553571D01*
X-94178571Y-187553571D02*
X-94178571Y-188553571D01*
X-94178571Y-187696428D02*
X-94250000Y-187625000D01*
X-94392857Y-187553571D01*
X-94607142Y-187553571D01*
X-94750000Y-187625000D01*
X-94821428Y-187767857D01*
X-94821428Y-188553571D01*
X-95321428Y-187553571D02*
X-95892857Y-187553571D01*
X-95535714Y-187053571D02*
X-95535714Y-188339285D01*
X-95607142Y-188482142D01*
X-95750000Y-188553571D01*
X-95892857Y-188553571D01*
X-96392857Y-188553571D02*
X-96392857Y-187553571D01*
X-96392857Y-187839285D02*
X-96464285Y-187696428D01*
X-96535714Y-187625000D01*
X-96678571Y-187553571D01*
X-96821428Y-187553571D01*
X-97535714Y-188553571D02*
X-97392857Y-188482142D01*
X-97321428Y-188410714D01*
X-97250000Y-188267857D01*
X-97250000Y-187839285D01*
X-97321428Y-187696428D01*
X-97392857Y-187625000D01*
X-97535714Y-187553571D01*
X-97750000Y-187553571D01*
X-97892857Y-187625000D01*
X-97964285Y-187696428D01*
X-98035714Y-187839285D01*
X-98035714Y-188267857D01*
X-97964285Y-188410714D01*
X-97892857Y-188482142D01*
X-97750000Y-188553571D01*
X-97535714Y-188553571D01*
X-98892857Y-188553571D02*
X-98750000Y-188482142D01*
X-98678571Y-188339285D01*
X-98678571Y-187053571D01*
X-100035714Y-188482142D02*
X-99892857Y-188553571D01*
X-99607142Y-188553571D01*
X-99464285Y-188482142D01*
X-99392857Y-188339285D01*
X-99392857Y-187767857D01*
X-99464285Y-187625000D01*
X-99607142Y-187553571D01*
X-99892857Y-187553571D01*
X-100035714Y-187625000D01*
X-100107142Y-187767857D01*
X-100107142Y-187910714D01*
X-99392857Y-188053571D01*
X-83071428Y-191103571D02*
X-83071428Y-189603571D01*
X-83642857Y-189603571D01*
X-83785714Y-189675000D01*
X-83857142Y-189746428D01*
X-83928571Y-189889285D01*
X-83928571Y-190103571D01*
X-83857142Y-190246428D01*
X-83785714Y-190317857D01*
X-83642857Y-190389285D01*
X-83071428Y-190389285D01*
X-84571428Y-191103571D02*
X-84571428Y-190103571D01*
X-84571428Y-190389285D02*
X-84642857Y-190246428D01*
X-84714285Y-190175000D01*
X-84857142Y-190103571D01*
X-85000000Y-190103571D01*
X-85714285Y-191103571D02*
X-85571428Y-191032142D01*
X-85500000Y-190960714D01*
X-85428571Y-190817857D01*
X-85428571Y-190389285D01*
X-85500000Y-190246428D01*
X-85571428Y-190175000D01*
X-85714285Y-190103571D01*
X-85928571Y-190103571D01*
X-86071428Y-190175000D01*
X-86142857Y-190246428D01*
X-86214285Y-190389285D01*
X-86214285Y-190817857D01*
X-86142857Y-190960714D01*
X-86071428Y-191032142D01*
X-85928571Y-191103571D01*
X-85714285Y-191103571D01*
X-86642857Y-190103571D02*
X-87214285Y-190103571D01*
X-86857142Y-189603571D02*
X-86857142Y-190889285D01*
X-86928571Y-191032142D01*
X-87071428Y-191103571D01*
X-87214285Y-191103571D01*
X-87928571Y-191103571D02*
X-87785714Y-191032142D01*
X-87714285Y-190960714D01*
X-87642857Y-190817857D01*
X-87642857Y-190389285D01*
X-87714285Y-190246428D01*
X-87785714Y-190175000D01*
X-87928571Y-190103571D01*
X-88142857Y-190103571D01*
X-88285714Y-190175000D01*
X-88357142Y-190246428D01*
X-88428571Y-190389285D01*
X-88428571Y-190817857D01*
X-88357142Y-190960714D01*
X-88285714Y-191032142D01*
X-88142857Y-191103571D01*
X-87928571Y-191103571D01*
X-90714285Y-190317857D02*
X-90928571Y-190389285D01*
X-91000000Y-190460714D01*
X-91071428Y-190603571D01*
X-91071428Y-190817857D01*
X-91000000Y-190960714D01*
X-90928571Y-191032142D01*
X-90785714Y-191103571D01*
X-90214285Y-191103571D01*
X-90214285Y-189603571D01*
X-90714285Y-189603571D01*
X-90857142Y-189675000D01*
X-90928571Y-189746428D01*
X-91000000Y-189889285D01*
X-91000000Y-190032142D01*
X-90928571Y-190175000D01*
X-90857142Y-190246428D01*
X-90714285Y-190317857D01*
X-90214285Y-190317857D01*
X-91642857Y-189746428D02*
X-91714285Y-189675000D01*
X-91857142Y-189603571D01*
X-92214285Y-189603571D01*
X-92357142Y-189675000D01*
X-92428571Y-189746428D01*
X-92500000Y-189889285D01*
X-92500000Y-190032142D01*
X-92428571Y-190246428D01*
X-91571428Y-191103571D01*
X-92500000Y-191103571D01*
D10*
X235000000Y-50000000D02*
X175000000Y-50000000D01*
X235000000Y-80000000D02*
X235000000Y-50000000D01*
X175000000Y-80000000D02*
X235000000Y-80000000D01*
X175000000Y-50000000D02*
X175000000Y-80000000D01*
D12*
X215160000Y-76000000D03*
D13*
X212620000Y-76000000D03*
X210080000Y-76000000D03*
X207540000Y-76000000D03*
X205000000Y-76000000D03*
X202460000Y-76000000D03*
X199920000Y-76000000D03*
X197380000Y-76000000D03*
X194840000Y-76000000D03*
D14*
X187350000Y-67600000D03*
X184850000Y-67600000D03*
X182350000Y-67600000D03*
D15*
X189600000Y-75100000D03*
X180100000Y-75100000D03*
D16*
X187000000Y-63340000D03*
X182840000Y-63340000D03*
X187000000Y-60800000D03*
X182840000Y-60800000D03*
X187000000Y-58260000D03*
X182840000Y-58260000D03*
D17*
X222400000Y-59800000D03*
X220500000Y-59800000D03*
D18*
X198000000Y-55100000D03*
X198000000Y-53200000D03*
X200000000Y-54150000D03*
D14*
X227550000Y-67600000D03*
X225050000Y-67600000D03*
X222550000Y-67600000D03*
D15*
X229800000Y-75100000D03*
X220300000Y-75100000D03*
D14*
X207500000Y-60750000D03*
X205000000Y-60750000D03*
X202500000Y-60750000D03*
D15*
X209750000Y-68250000D03*
X200250000Y-68250000D03*
D12*
X179000000Y-54000000D03*
D13*
X181540000Y-54000000D03*
X184080000Y-54000000D03*
X186620000Y-54000000D03*
X189160000Y-54000000D03*
X191700000Y-54000000D03*
D12*
X218300000Y-54000000D03*
D13*
X220840000Y-54000000D03*
X223380000Y-54000000D03*
X225920000Y-54000000D03*
X228460000Y-54000000D03*
X231000000Y-54000000D03*
D12*
X225050000Y-62340000D03*
D13*
X225050000Y-59800000D03*
D17*
X210300000Y-53200000D03*
X212200000Y-53200000D03*
D12*
X203660000Y-53200000D03*
D13*
X206200000Y-53200000D03*
D19*
X198000000Y-57400000D03*
X219000000Y-58200000D03*
X179050000Y-63350000D03*
X179049994Y-60800000D03*
X179100000Y-58250000D03*
X195550000Y-53150000D03*
X191050000Y-58250000D03*
X191050008Y-60800000D03*
X191050000Y-63349996D03*
X232050000Y-67600000D03*
X222150000Y-65500002D03*
X216741108Y-67191110D03*
X212400000Y-58950000D03*
X209800000Y-58700000D03*
X197650000Y-62800000D03*
X194800000Y-67600000D03*
X197350000Y-71400000D03*
X199900000Y-73200000D03*
D20*
X206200000Y-53200000D02*
X210300000Y-53200000D01*
X198000000Y-57400000D02*
X198000000Y-55100000D01*
X219000000Y-59800000D02*
X219650000Y-59800000D01*
X217650000Y-59800000D02*
X219000000Y-59800000D01*
X219000000Y-59800000D02*
X219000000Y-58200000D01*
X212200000Y-53200000D02*
X212200000Y-54350000D01*
X212200000Y-54350000D02*
X217650000Y-59800000D01*
X219650000Y-59800000D02*
X220500000Y-59800000D01*
X182840000Y-63340000D02*
X179060000Y-63340000D01*
X179060000Y-63340000D02*
X179050000Y-63350000D01*
X182840000Y-60800000D02*
X179049994Y-60800000D01*
X182830000Y-58250000D02*
X182840000Y-58260000D01*
X179100000Y-58250000D02*
X182830000Y-58250000D01*
X197950000Y-53150000D02*
X198000000Y-53200000D01*
X195550000Y-53150000D02*
X197950000Y-53150000D01*
X202310000Y-53200000D02*
X203660000Y-53200000D01*
X201110000Y-52000000D02*
X202310000Y-53200000D01*
X198300000Y-52000000D02*
X201110000Y-52000000D01*
X198000000Y-53200000D02*
X198000000Y-52300000D01*
X198000000Y-52300000D02*
X198300000Y-52000000D01*
X217640002Y-62340000D02*
X225050000Y-62340000D01*
X211250002Y-55950000D02*
X217640002Y-62340000D01*
X202750000Y-55950000D02*
X211250002Y-55950000D01*
X200000000Y-54150000D02*
X200950000Y-54150000D01*
X200950000Y-54150000D02*
X202750000Y-55950000D01*
X222400000Y-59800000D02*
X225050000Y-59800000D01*
X187010000Y-58250000D02*
X187000000Y-58260000D01*
X191050000Y-58250000D02*
X187010000Y-58250000D01*
X187000000Y-60800000D02*
X191050008Y-60800000D01*
X191040004Y-63340000D02*
X191050000Y-63349996D01*
X187000000Y-63340000D02*
X191040004Y-63340000D01*
X227550000Y-67600000D02*
X232050000Y-67600000D01*
X222950002Y-65500002D02*
X222150000Y-65500002D01*
X225050000Y-67600000D02*
X222950002Y-65500002D01*
X222550000Y-67600000D02*
X217149998Y-67600000D01*
X217149998Y-67600000D02*
X216741108Y-67191110D01*
X203399999Y-59850001D02*
X202500000Y-60750000D01*
X205800000Y-57450000D02*
X203399999Y-59850001D01*
X212400000Y-58950000D02*
X210900000Y-57450000D01*
X210900000Y-57450000D02*
X205800000Y-57450000D01*
X207050000Y-58700000D02*
X205000000Y-60750000D01*
X209800000Y-58700000D02*
X207050000Y-58700000D01*
X205022002Y-62800000D02*
X197650000Y-62800000D01*
X207500000Y-60750000D02*
X205450000Y-62800000D01*
X205450000Y-62800000D02*
X205022002Y-62800000D01*
X187350000Y-67600000D02*
X194800000Y-67600000D01*
X194950001Y-69000001D02*
X197350000Y-71400000D01*
X184850000Y-67600000D02*
X186250001Y-69000001D01*
X186250001Y-69000001D02*
X194950001Y-69000001D01*
X197300000Y-73200000D02*
X199900000Y-73200000D01*
X193900000Y-69800000D02*
X197300000Y-73200000D01*
X182350000Y-67600000D02*
X184550000Y-69800000D01*
X184550000Y-69800000D02*
X193900000Y-69800000D01*
D21*
G36*
X234265000Y-79265000D02*
G01*
X175735000Y-79265000D01*
X175735000Y-74889721D01*
X177965000Y-74889721D01*
X177965000Y-75310279D01*
X178047047Y-75722756D01*
X178207988Y-76111302D01*
X178441637Y-76460983D01*
X178739017Y-76758363D01*
X179088698Y-76992012D01*
X179477244Y-77152953D01*
X179889721Y-77235000D01*
X180310279Y-77235000D01*
X180722756Y-77152953D01*
X181111302Y-76992012D01*
X181460983Y-76758363D01*
X181758363Y-76460983D01*
X181992012Y-76111302D01*
X182152953Y-75722756D01*
X182235000Y-75310279D01*
X182235000Y-74889721D01*
X187465000Y-74889721D01*
X187465000Y-75310279D01*
X187547047Y-75722756D01*
X187707988Y-76111302D01*
X187941637Y-76460983D01*
X188239017Y-76758363D01*
X188588698Y-76992012D01*
X188977244Y-77152953D01*
X189389721Y-77235000D01*
X189810279Y-77235000D01*
X190222756Y-77152953D01*
X190611302Y-76992012D01*
X190960983Y-76758363D01*
X191258363Y-76460983D01*
X191492012Y-76111302D01*
X191652953Y-75722756D01*
X191735000Y-75310279D01*
X191735000Y-74889721D01*
X191652953Y-74477244D01*
X191492012Y-74088698D01*
X191258363Y-73739017D01*
X190960983Y-73441637D01*
X190611302Y-73207988D01*
X190222756Y-73047047D01*
X189810279Y-72965000D01*
X189389721Y-72965000D01*
X188977244Y-73047047D01*
X188588698Y-73207988D01*
X188239017Y-73441637D01*
X187941637Y-73739017D01*
X187707988Y-74088698D01*
X187547047Y-74477244D01*
X187465000Y-74889721D01*
X182235000Y-74889721D01*
X182152953Y-74477244D01*
X181992012Y-74088698D01*
X181758363Y-73739017D01*
X181460983Y-73441637D01*
X181111302Y-73207988D01*
X180722756Y-73047047D01*
X180310279Y-72965000D01*
X179889721Y-72965000D01*
X179477244Y-73047047D01*
X179088698Y-73207988D01*
X178739017Y-73441637D01*
X178441637Y-73739017D01*
X178207988Y-74088698D01*
X178047047Y-74477244D01*
X177965000Y-74889721D01*
X175735000Y-74889721D01*
X175735000Y-67448816D01*
X180815000Y-67448816D01*
X180815000Y-67751184D01*
X180873989Y-68047743D01*
X180989701Y-68327095D01*
X181157688Y-68578505D01*
X181371495Y-68792312D01*
X181622905Y-68960299D01*
X181902257Y-69076011D01*
X182198816Y-69135000D01*
X182501184Y-69135000D01*
X182611482Y-69113060D01*
X183893470Y-70395049D01*
X183921183Y-70428817D01*
X183954951Y-70456530D01*
X183954953Y-70456532D01*
X184028772Y-70517114D01*
X184055941Y-70539411D01*
X184209687Y-70621589D01*
X184376510Y-70672195D01*
X184506523Y-70685000D01*
X184506531Y-70685000D01*
X184550000Y-70689281D01*
X184593469Y-70685000D01*
X193533422Y-70685000D01*
X196643470Y-73795049D01*
X196671183Y-73828817D01*
X196704951Y-73856530D01*
X196704953Y-73856532D01*
X196776452Y-73915210D01*
X196805941Y-73939411D01*
X196959687Y-74021589D01*
X197126510Y-74072195D01*
X197256523Y-74085000D01*
X197256533Y-74085000D01*
X197299999Y-74089281D01*
X197343465Y-74085000D01*
X198826315Y-74085000D01*
X199017114Y-74275799D01*
X199243957Y-74427371D01*
X199496011Y-74531775D01*
X199585646Y-74549605D01*
X199348966Y-74621401D01*
X199090986Y-74759294D01*
X198864866Y-74944866D01*
X198679294Y-75170986D01*
X198650000Y-75225791D01*
X198620706Y-75170986D01*
X198435134Y-74944866D01*
X198209014Y-74759294D01*
X197951034Y-74621401D01*
X197671111Y-74536487D01*
X197452950Y-74515000D01*
X197307050Y-74515000D01*
X197088889Y-74536487D01*
X196808966Y-74621401D01*
X196550986Y-74759294D01*
X196324866Y-74944866D01*
X196139294Y-75170986D01*
X196110000Y-75225791D01*
X196080706Y-75170986D01*
X195895134Y-74944866D01*
X195669014Y-74759294D01*
X195411034Y-74621401D01*
X195131111Y-74536487D01*
X194912950Y-74515000D01*
X194767050Y-74515000D01*
X194548889Y-74536487D01*
X194268966Y-74621401D01*
X194010986Y-74759294D01*
X193784866Y-74944866D01*
X193599294Y-75170986D01*
X193461401Y-75428966D01*
X193376487Y-75708889D01*
X193347815Y-76000000D01*
X193376487Y-76291111D01*
X193461401Y-76571034D01*
X193599294Y-76829014D01*
X193784866Y-77055134D01*
X194010986Y-77240706D01*
X194268966Y-77378599D01*
X194548889Y-77463513D01*
X194767050Y-77485000D01*
X194912950Y-77485000D01*
X195131111Y-77463513D01*
X195411034Y-77378599D01*
X195669014Y-77240706D01*
X195895134Y-77055134D01*
X196080706Y-76829014D01*
X196110000Y-76774209D01*
X196139294Y-76829014D01*
X196324866Y-77055134D01*
X196550986Y-77240706D01*
X196808966Y-77378599D01*
X197088889Y-77463513D01*
X197307050Y-77485000D01*
X197452950Y-77485000D01*
X197671111Y-77463513D01*
X197951034Y-77378599D01*
X198209014Y-77240706D01*
X198435134Y-77055134D01*
X198620706Y-76829014D01*
X198650000Y-76774209D01*
X198679294Y-76829014D01*
X198864866Y-77055134D01*
X199090986Y-77240706D01*
X199348966Y-77378599D01*
X199628889Y-77463513D01*
X199847050Y-77485000D01*
X199992950Y-77485000D01*
X200211111Y-77463513D01*
X200491034Y-77378599D01*
X200749014Y-77240706D01*
X200975134Y-77055134D01*
X201160706Y-76829014D01*
X201190000Y-76774209D01*
X201219294Y-76829014D01*
X201404866Y-77055134D01*
X201630986Y-77240706D01*
X201888966Y-77378599D01*
X202168889Y-77463513D01*
X202387050Y-77485000D01*
X202532950Y-77485000D01*
X202751111Y-77463513D01*
X203031034Y-77378599D01*
X203289014Y-77240706D01*
X203515134Y-77055134D01*
X203700706Y-76829014D01*
X203730000Y-76774209D01*
X203759294Y-76829014D01*
X203944866Y-77055134D01*
X204170986Y-77240706D01*
X204428966Y-77378599D01*
X204708889Y-77463513D01*
X204927050Y-77485000D01*
X205072950Y-77485000D01*
X205291111Y-77463513D01*
X205571034Y-77378599D01*
X205829014Y-77240706D01*
X206055134Y-77055134D01*
X206240706Y-76829014D01*
X206270000Y-76774209D01*
X206299294Y-76829014D01*
X206484866Y-77055134D01*
X206710986Y-77240706D01*
X206968966Y-77378599D01*
X207248889Y-77463513D01*
X207467050Y-77485000D01*
X207612950Y-77485000D01*
X207831111Y-77463513D01*
X208111034Y-77378599D01*
X208369014Y-77240706D01*
X208595134Y-77055134D01*
X208780706Y-76829014D01*
X208810000Y-76774209D01*
X208839294Y-76829014D01*
X209024866Y-77055134D01*
X209250986Y-77240706D01*
X209508966Y-77378599D01*
X209788889Y-77463513D01*
X210007050Y-77485000D01*
X210152950Y-77485000D01*
X210371111Y-77463513D01*
X210651034Y-77378599D01*
X210909014Y-77240706D01*
X211135134Y-77055134D01*
X211320706Y-76829014D01*
X211350000Y-76774209D01*
X211379294Y-76829014D01*
X211564866Y-77055134D01*
X211790986Y-77240706D01*
X212048966Y-77378599D01*
X212328889Y-77463513D01*
X212547050Y-77485000D01*
X212692950Y-77485000D01*
X212911111Y-77463513D01*
X213191034Y-77378599D01*
X213449014Y-77240706D01*
X213675134Y-77055134D01*
X213699607Y-77025313D01*
X213720498Y-77094180D01*
X213779463Y-77204494D01*
X213858815Y-77301185D01*
X213955506Y-77380537D01*
X214065820Y-77439502D01*
X214185518Y-77475812D01*
X214310000Y-77488072D01*
X216010000Y-77488072D01*
X216134482Y-77475812D01*
X216254180Y-77439502D01*
X216364494Y-77380537D01*
X216461185Y-77301185D01*
X216540537Y-77204494D01*
X216599502Y-77094180D01*
X216635812Y-76974482D01*
X216648072Y-76850000D01*
X216648072Y-75150000D01*
X216635812Y-75025518D01*
X216599502Y-74905820D01*
X216590897Y-74889721D01*
X218165000Y-74889721D01*
X218165000Y-75310279D01*
X218247047Y-75722756D01*
X218407988Y-76111302D01*
X218641637Y-76460983D01*
X218939017Y-76758363D01*
X219288698Y-76992012D01*
X219677244Y-77152953D01*
X220089721Y-77235000D01*
X220510279Y-77235000D01*
X220922756Y-77152953D01*
X221311302Y-76992012D01*
X221660983Y-76758363D01*
X221958363Y-76460983D01*
X222192012Y-76111302D01*
X222352953Y-75722756D01*
X222435000Y-75310279D01*
X222435000Y-74889721D01*
X227665000Y-74889721D01*
X227665000Y-75310279D01*
X227747047Y-75722756D01*
X227907988Y-76111302D01*
X228141637Y-76460983D01*
X228439017Y-76758363D01*
X228788698Y-76992012D01*
X229177244Y-77152953D01*
X229589721Y-77235000D01*
X230010279Y-77235000D01*
X230422756Y-77152953D01*
X230811302Y-76992012D01*
X231160983Y-76758363D01*
X231458363Y-76460983D01*
X231692012Y-76111302D01*
X231852953Y-75722756D01*
X231935000Y-75310279D01*
X231935000Y-74889721D01*
X231852953Y-74477244D01*
X231692012Y-74088698D01*
X231458363Y-73739017D01*
X231160983Y-73441637D01*
X230811302Y-73207988D01*
X230422756Y-73047047D01*
X230010279Y-72965000D01*
X229589721Y-72965000D01*
X229177244Y-73047047D01*
X228788698Y-73207988D01*
X228439017Y-73441637D01*
X228141637Y-73739017D01*
X227907988Y-74088698D01*
X227747047Y-74477244D01*
X227665000Y-74889721D01*
X222435000Y-74889721D01*
X222352953Y-74477244D01*
X222192012Y-74088698D01*
X221958363Y-73739017D01*
X221660983Y-73441637D01*
X221311302Y-73207988D01*
X220922756Y-73047047D01*
X220510279Y-72965000D01*
X220089721Y-72965000D01*
X219677244Y-73047047D01*
X219288698Y-73207988D01*
X218939017Y-73441637D01*
X218641637Y-73739017D01*
X218407988Y-74088698D01*
X218247047Y-74477244D01*
X218165000Y-74889721D01*
X216590897Y-74889721D01*
X216540537Y-74795506D01*
X216461185Y-74698815D01*
X216364494Y-74619463D01*
X216254180Y-74560498D01*
X216134482Y-74524188D01*
X216010000Y-74511928D01*
X214310000Y-74511928D01*
X214185518Y-74524188D01*
X214065820Y-74560498D01*
X213955506Y-74619463D01*
X213858815Y-74698815D01*
X213779463Y-74795506D01*
X213720498Y-74905820D01*
X213699607Y-74974687D01*
X213675134Y-74944866D01*
X213449014Y-74759294D01*
X213191034Y-74621401D01*
X212911111Y-74536487D01*
X212692950Y-74515000D01*
X212547050Y-74515000D01*
X212328889Y-74536487D01*
X212048966Y-74621401D01*
X211790986Y-74759294D01*
X211564866Y-74944866D01*
X211379294Y-75170986D01*
X211350000Y-75225791D01*
X211320706Y-75170986D01*
X211135134Y-74944866D01*
X210909014Y-74759294D01*
X210651034Y-74621401D01*
X210371111Y-74536487D01*
X210152950Y-74515000D01*
X210007050Y-74515000D01*
X209788889Y-74536487D01*
X209508966Y-74621401D01*
X209250986Y-74759294D01*
X209024866Y-74944866D01*
X208839294Y-75170986D01*
X208810000Y-75225791D01*
X208780706Y-75170986D01*
X208595134Y-74944866D01*
X208369014Y-74759294D01*
X208111034Y-74621401D01*
X207831111Y-74536487D01*
X207612950Y-74515000D01*
X207467050Y-74515000D01*
X207248889Y-74536487D01*
X206968966Y-74621401D01*
X206710986Y-74759294D01*
X206484866Y-74944866D01*
X206299294Y-75170986D01*
X206270000Y-75225791D01*
X206240706Y-75170986D01*
X206055134Y-74944866D01*
X205829014Y-74759294D01*
X205571034Y-74621401D01*
X205291111Y-74536487D01*
X205072950Y-74515000D01*
X204927050Y-74515000D01*
X204708889Y-74536487D01*
X204428966Y-74621401D01*
X204170986Y-74759294D01*
X203944866Y-74944866D01*
X203759294Y-75170986D01*
X203730000Y-75225791D01*
X203700706Y-75170986D01*
X203515134Y-74944866D01*
X203289014Y-74759294D01*
X203031034Y-74621401D01*
X202751111Y-74536487D01*
X202532950Y-74515000D01*
X202387050Y-74515000D01*
X202168889Y-74536487D01*
X201888966Y-74621401D01*
X201630986Y-74759294D01*
X201404866Y-74944866D01*
X201219294Y-75170986D01*
X201190000Y-75225791D01*
X201160706Y-75170986D01*
X200975134Y-74944866D01*
X200749014Y-74759294D01*
X200491034Y-74621401D01*
X200238513Y-74544799D01*
X200303989Y-74531775D01*
X200556043Y-74427371D01*
X200782886Y-74275799D01*
X200975799Y-74082886D01*
X201127371Y-73856043D01*
X201231775Y-73603989D01*
X201285000Y-73336411D01*
X201285000Y-73063589D01*
X201231775Y-72796011D01*
X201127371Y-72543957D01*
X200975799Y-72317114D01*
X200782886Y-72124201D01*
X200556043Y-71972629D01*
X200303989Y-71868225D01*
X200036411Y-71815000D01*
X199763589Y-71815000D01*
X199496011Y-71868225D01*
X199243957Y-71972629D01*
X199017114Y-72124201D01*
X198826315Y-72315000D01*
X198393685Y-72315000D01*
X198425799Y-72282886D01*
X198577371Y-72056043D01*
X198681775Y-71803989D01*
X198735000Y-71536411D01*
X198735000Y-71263589D01*
X198681775Y-70996011D01*
X198577371Y-70743957D01*
X198425799Y-70517114D01*
X198232886Y-70324201D01*
X198006043Y-70172629D01*
X197753989Y-70068225D01*
X197486411Y-70015000D01*
X197216579Y-70015000D01*
X195780132Y-68578553D01*
X195875799Y-68482886D01*
X196027371Y-68256043D01*
X196116974Y-68039721D01*
X198115000Y-68039721D01*
X198115000Y-68460279D01*
X198197047Y-68872756D01*
X198357988Y-69261302D01*
X198591637Y-69610983D01*
X198889017Y-69908363D01*
X199238698Y-70142012D01*
X199627244Y-70302953D01*
X200039721Y-70385000D01*
X200460279Y-70385000D01*
X200872756Y-70302953D01*
X201261302Y-70142012D01*
X201610983Y-69908363D01*
X201908363Y-69610983D01*
X202142012Y-69261302D01*
X202302953Y-68872756D01*
X202385000Y-68460279D01*
X202385000Y-68039721D01*
X207615000Y-68039721D01*
X207615000Y-68460279D01*
X207697047Y-68872756D01*
X207857988Y-69261302D01*
X208091637Y-69610983D01*
X208389017Y-69908363D01*
X208738698Y-70142012D01*
X209127244Y-70302953D01*
X209539721Y-70385000D01*
X209960279Y-70385000D01*
X210372756Y-70302953D01*
X210761302Y-70142012D01*
X211110983Y-69908363D01*
X211408363Y-69610983D01*
X211642012Y-69261302D01*
X211802953Y-68872756D01*
X211885000Y-68460279D01*
X211885000Y-68039721D01*
X211802953Y-67627244D01*
X211642012Y-67238698D01*
X211519068Y-67054699D01*
X215356108Y-67054699D01*
X215356108Y-67327521D01*
X215409333Y-67595099D01*
X215513737Y-67847153D01*
X215665309Y-68073996D01*
X215858222Y-68266909D01*
X216085065Y-68418481D01*
X216337119Y-68522885D01*
X216604697Y-68576110D01*
X216877519Y-68576110D01*
X217145097Y-68522885D01*
X217236560Y-68485000D01*
X221295210Y-68485000D01*
X221357688Y-68578505D01*
X221571495Y-68792312D01*
X221822905Y-68960299D01*
X222102257Y-69076011D01*
X222398816Y-69135000D01*
X222701184Y-69135000D01*
X222997743Y-69076011D01*
X223277095Y-68960299D01*
X223528505Y-68792312D01*
X223742312Y-68578505D01*
X223800000Y-68492169D01*
X223857688Y-68578505D01*
X224071495Y-68792312D01*
X224322905Y-68960299D01*
X224602257Y-69076011D01*
X224898816Y-69135000D01*
X225201184Y-69135000D01*
X225497743Y-69076011D01*
X225777095Y-68960299D01*
X226028505Y-68792312D01*
X226242312Y-68578505D01*
X226300000Y-68492169D01*
X226357688Y-68578505D01*
X226571495Y-68792312D01*
X226822905Y-68960299D01*
X227102257Y-69076011D01*
X227398816Y-69135000D01*
X227701184Y-69135000D01*
X227997743Y-69076011D01*
X228277095Y-68960299D01*
X228528505Y-68792312D01*
X228742312Y-68578505D01*
X228804790Y-68485000D01*
X230976315Y-68485000D01*
X231167114Y-68675799D01*
X231393957Y-68827371D01*
X231646011Y-68931775D01*
X231913589Y-68985000D01*
X232186411Y-68985000D01*
X232453989Y-68931775D01*
X232706043Y-68827371D01*
X232932886Y-68675799D01*
X233125799Y-68482886D01*
X233277371Y-68256043D01*
X233381775Y-68003989D01*
X233435000Y-67736411D01*
X233435000Y-67463589D01*
X233381775Y-67196011D01*
X233277371Y-66943957D01*
X233125799Y-66717114D01*
X232932886Y-66524201D01*
X232706043Y-66372629D01*
X232453989Y-66268225D01*
X232186411Y-66215000D01*
X231913589Y-66215000D01*
X231646011Y-66268225D01*
X231393957Y-66372629D01*
X231167114Y-66524201D01*
X230976315Y-66715000D01*
X228804790Y-66715000D01*
X228742312Y-66621495D01*
X228528505Y-66407688D01*
X228277095Y-66239701D01*
X227997743Y-66123989D01*
X227701184Y-66065000D01*
X227398816Y-66065000D01*
X227102257Y-66123989D01*
X226822905Y-66239701D01*
X226571495Y-66407688D01*
X226357688Y-66621495D01*
X226300000Y-66707831D01*
X226242312Y-66621495D01*
X226028505Y-66407688D01*
X225777095Y-66239701D01*
X225497743Y-66123989D01*
X225201184Y-66065000D01*
X224898816Y-66065000D01*
X224788518Y-66086940D01*
X223606536Y-64904958D01*
X223578819Y-64871185D01*
X223444061Y-64760591D01*
X223290315Y-64678413D01*
X223260767Y-64669450D01*
X223225799Y-64617116D01*
X223032886Y-64424203D01*
X222806043Y-64272631D01*
X222553989Y-64168227D01*
X222286411Y-64115002D01*
X222013589Y-64115002D01*
X221746011Y-64168227D01*
X221493957Y-64272631D01*
X221267114Y-64424203D01*
X221074201Y-64617116D01*
X220922629Y-64843959D01*
X220818225Y-65096013D01*
X220765000Y-65363591D01*
X220765000Y-65636413D01*
X220818225Y-65903991D01*
X220922629Y-66156045D01*
X221074201Y-66382888D01*
X221267114Y-66575801D01*
X221350839Y-66631745D01*
X221295210Y-66715000D01*
X218043010Y-66715000D01*
X217968479Y-66535067D01*
X217816907Y-66308224D01*
X217623994Y-66115311D01*
X217397151Y-65963739D01*
X217145097Y-65859335D01*
X216877519Y-65806110D01*
X216604697Y-65806110D01*
X216337119Y-65859335D01*
X216085065Y-65963739D01*
X215858222Y-66115311D01*
X215665309Y-66308224D01*
X215513737Y-66535067D01*
X215409333Y-66787121D01*
X215356108Y-67054699D01*
X211519068Y-67054699D01*
X211408363Y-66889017D01*
X211110983Y-66591637D01*
X210761302Y-66357988D01*
X210372756Y-66197047D01*
X209960279Y-66115000D01*
X209539721Y-66115000D01*
X209127244Y-66197047D01*
X208738698Y-66357988D01*
X208389017Y-66591637D01*
X208091637Y-66889017D01*
X207857988Y-67238698D01*
X207697047Y-67627244D01*
X207615000Y-68039721D01*
X202385000Y-68039721D01*
X202302953Y-67627244D01*
X202142012Y-67238698D01*
X201908363Y-66889017D01*
X201610983Y-66591637D01*
X201261302Y-66357988D01*
X200872756Y-66197047D01*
X200460279Y-66115000D01*
X200039721Y-66115000D01*
X199627244Y-66197047D01*
X199238698Y-66357988D01*
X198889017Y-66591637D01*
X198591637Y-66889017D01*
X198357988Y-67238698D01*
X198197047Y-67627244D01*
X198115000Y-68039721D01*
X196116974Y-68039721D01*
X196131775Y-68003989D01*
X196185000Y-67736411D01*
X196185000Y-67463589D01*
X196131775Y-67196011D01*
X196027371Y-66943957D01*
X195875799Y-66717114D01*
X195682886Y-66524201D01*
X195456043Y-66372629D01*
X195203989Y-66268225D01*
X194936411Y-66215000D01*
X194663589Y-66215000D01*
X194396011Y-66268225D01*
X194143957Y-66372629D01*
X193917114Y-66524201D01*
X193726315Y-66715000D01*
X188604790Y-66715000D01*
X188542312Y-66621495D01*
X188328505Y-66407688D01*
X188077095Y-66239701D01*
X187797743Y-66123989D01*
X187501184Y-66065000D01*
X187198816Y-66065000D01*
X186902257Y-66123989D01*
X186622905Y-66239701D01*
X186371495Y-66407688D01*
X186157688Y-66621495D01*
X186100000Y-66707831D01*
X186042312Y-66621495D01*
X185828505Y-66407688D01*
X185577095Y-66239701D01*
X185297743Y-66123989D01*
X185001184Y-66065000D01*
X184698816Y-66065000D01*
X184402257Y-66123989D01*
X184122905Y-66239701D01*
X183871495Y-66407688D01*
X183657688Y-66621495D01*
X183600000Y-66707831D01*
X183542312Y-66621495D01*
X183328505Y-66407688D01*
X183077095Y-66239701D01*
X182797743Y-66123989D01*
X182501184Y-66065000D01*
X182198816Y-66065000D01*
X181902257Y-66123989D01*
X181622905Y-66239701D01*
X181371495Y-66407688D01*
X181157688Y-66621495D01*
X180989701Y-66872905D01*
X180873989Y-67152257D01*
X180815000Y-67448816D01*
X175735000Y-67448816D01*
X175735000Y-60663589D01*
X177664994Y-60663589D01*
X177664994Y-60936411D01*
X177718219Y-61203989D01*
X177822623Y-61456043D01*
X177974195Y-61682886D01*
X178167108Y-61875799D01*
X178393951Y-62027371D01*
X178508941Y-62075001D01*
X178393957Y-62122629D01*
X178167114Y-62274201D01*
X177974201Y-62467114D01*
X177822629Y-62693957D01*
X177718225Y-62946011D01*
X177665000Y-63213589D01*
X177665000Y-63486411D01*
X177718225Y-63753989D01*
X177822629Y-64006043D01*
X177974201Y-64232886D01*
X178167114Y-64425799D01*
X178393957Y-64577371D01*
X178646011Y-64681775D01*
X178913589Y-64735000D01*
X179186411Y-64735000D01*
X179453989Y-64681775D01*
X179706043Y-64577371D01*
X179932886Y-64425799D01*
X180125799Y-64232886D01*
X180131068Y-64225000D01*
X180951928Y-64225000D01*
X180951928Y-64340000D01*
X180964188Y-64464482D01*
X181000498Y-64584180D01*
X181059463Y-64694494D01*
X181138815Y-64791185D01*
X181235506Y-64870537D01*
X181345820Y-64929502D01*
X181465518Y-64965812D01*
X181590000Y-64978072D01*
X184090000Y-64978072D01*
X184214482Y-64965812D01*
X184334180Y-64929502D01*
X184444494Y-64870537D01*
X184541185Y-64791185D01*
X184620537Y-64694494D01*
X184679502Y-64584180D01*
X184715812Y-64464482D01*
X184728072Y-64340000D01*
X184728072Y-62340000D01*
X184715812Y-62215518D01*
X184679502Y-62095820D01*
X184665701Y-62070000D01*
X184679502Y-62044180D01*
X184715812Y-61924482D01*
X184728072Y-61800000D01*
X184728072Y-59800000D01*
X184715812Y-59675518D01*
X184679502Y-59555820D01*
X184665701Y-59530000D01*
X184679502Y-59504180D01*
X184715812Y-59384482D01*
X184728072Y-59260000D01*
X184728072Y-57260000D01*
X185111928Y-57260000D01*
X185111928Y-59260000D01*
X185124188Y-59384482D01*
X185160498Y-59504180D01*
X185174299Y-59530000D01*
X185160498Y-59555820D01*
X185124188Y-59675518D01*
X185111928Y-59800000D01*
X185111928Y-61800000D01*
X185124188Y-61924482D01*
X185160498Y-62044180D01*
X185174299Y-62070000D01*
X185160498Y-62095820D01*
X185124188Y-62215518D01*
X185111928Y-62340000D01*
X185111928Y-64340000D01*
X185124188Y-64464482D01*
X185160498Y-64584180D01*
X185219463Y-64694494D01*
X185298815Y-64791185D01*
X185395506Y-64870537D01*
X185505820Y-64929502D01*
X185625518Y-64965812D01*
X185750000Y-64978072D01*
X188250000Y-64978072D01*
X188374482Y-64965812D01*
X188494180Y-64929502D01*
X188604494Y-64870537D01*
X188701185Y-64791185D01*
X188780537Y-64694494D01*
X188839502Y-64584180D01*
X188875812Y-64464482D01*
X188888072Y-64340000D01*
X188888072Y-64225000D01*
X189968934Y-64225000D01*
X189974201Y-64232882D01*
X190167114Y-64425795D01*
X190393957Y-64577367D01*
X190646011Y-64681771D01*
X190913589Y-64734996D01*
X191186411Y-64734996D01*
X191453989Y-64681771D01*
X191706043Y-64577367D01*
X191932886Y-64425795D01*
X192125799Y-64232882D01*
X192277371Y-64006039D01*
X192381775Y-63753985D01*
X192435000Y-63486407D01*
X192435000Y-63213585D01*
X192381775Y-62946007D01*
X192277371Y-62693953D01*
X192125799Y-62467110D01*
X191932886Y-62274197D01*
X191706043Y-62122625D01*
X191591065Y-62075000D01*
X191706051Y-62027371D01*
X191932894Y-61875799D01*
X192125807Y-61682886D01*
X192277379Y-61456043D01*
X192381783Y-61203989D01*
X192435008Y-60936411D01*
X192435008Y-60663589D01*
X192381783Y-60396011D01*
X192277379Y-60143957D01*
X192125807Y-59917114D01*
X191932894Y-59724201D01*
X191706051Y-59572629D01*
X191591060Y-59524998D01*
X191706043Y-59477371D01*
X191932886Y-59325799D01*
X192125799Y-59132886D01*
X192277371Y-58906043D01*
X192381775Y-58653989D01*
X192435000Y-58386411D01*
X192435000Y-58113589D01*
X192381775Y-57846011D01*
X192277371Y-57593957D01*
X192125799Y-57367114D01*
X191932886Y-57174201D01*
X191706043Y-57022629D01*
X191453989Y-56918225D01*
X191186411Y-56865000D01*
X190913589Y-56865000D01*
X190646011Y-56918225D01*
X190393957Y-57022629D01*
X190167114Y-57174201D01*
X189976315Y-57365000D01*
X188888072Y-57365000D01*
X188888072Y-57260000D01*
X188875812Y-57135518D01*
X188839502Y-57015820D01*
X188780537Y-56905506D01*
X188701185Y-56808815D01*
X188604494Y-56729463D01*
X188494180Y-56670498D01*
X188374482Y-56634188D01*
X188250000Y-56621928D01*
X185750000Y-56621928D01*
X185625518Y-56634188D01*
X185505820Y-56670498D01*
X185395506Y-56729463D01*
X185298815Y-56808815D01*
X185219463Y-56905506D01*
X185160498Y-57015820D01*
X185124188Y-57135518D01*
X185111928Y-57260000D01*
X184728072Y-57260000D01*
X184715812Y-57135518D01*
X184679502Y-57015820D01*
X184620537Y-56905506D01*
X184541185Y-56808815D01*
X184444494Y-56729463D01*
X184334180Y-56670498D01*
X184214482Y-56634188D01*
X184090000Y-56621928D01*
X181590000Y-56621928D01*
X181465518Y-56634188D01*
X181345820Y-56670498D01*
X181235506Y-56729463D01*
X181138815Y-56808815D01*
X181059463Y-56905506D01*
X181000498Y-57015820D01*
X180964188Y-57135518D01*
X180951928Y-57260000D01*
X180951928Y-57365000D01*
X180173685Y-57365000D01*
X179982886Y-57174201D01*
X179756043Y-57022629D01*
X179503989Y-56918225D01*
X179236411Y-56865000D01*
X178963589Y-56865000D01*
X178696011Y-56918225D01*
X178443957Y-57022629D01*
X178217114Y-57174201D01*
X178024201Y-57367114D01*
X177872629Y-57593957D01*
X177768225Y-57846011D01*
X177715000Y-58113589D01*
X177715000Y-58386411D01*
X177768225Y-58653989D01*
X177872629Y-58906043D01*
X178024201Y-59132886D01*
X178217114Y-59325799D01*
X178443957Y-59477371D01*
X178533941Y-59514643D01*
X178393951Y-59572629D01*
X178167108Y-59724201D01*
X177974195Y-59917114D01*
X177822623Y-60143957D01*
X177718219Y-60396011D01*
X177664994Y-60663589D01*
X175735000Y-60663589D01*
X175735000Y-53150000D01*
X177511928Y-53150000D01*
X177511928Y-54850000D01*
X177524188Y-54974482D01*
X177560498Y-55094180D01*
X177619463Y-55204494D01*
X177698815Y-55301185D01*
X177795506Y-55380537D01*
X177905820Y-55439502D01*
X178025518Y-55475812D01*
X178150000Y-55488072D01*
X179850000Y-55488072D01*
X179974482Y-55475812D01*
X180094180Y-55439502D01*
X180204494Y-55380537D01*
X180301185Y-55301185D01*
X180380537Y-55204494D01*
X180439502Y-55094180D01*
X180460393Y-55025313D01*
X180484866Y-55055134D01*
X180710986Y-55240706D01*
X180968966Y-55378599D01*
X181248889Y-55463513D01*
X181467050Y-55485000D01*
X181612950Y-55485000D01*
X181831111Y-55463513D01*
X182111034Y-55378599D01*
X182369014Y-55240706D01*
X182595134Y-55055134D01*
X182780706Y-54829014D01*
X182810000Y-54774209D01*
X182839294Y-54829014D01*
X183024866Y-55055134D01*
X183250986Y-55240706D01*
X183508966Y-55378599D01*
X183788889Y-55463513D01*
X184007050Y-55485000D01*
X184152950Y-55485000D01*
X184371111Y-55463513D01*
X184651034Y-55378599D01*
X184909014Y-55240706D01*
X185135134Y-55055134D01*
X185320706Y-54829014D01*
X185350000Y-54774209D01*
X185379294Y-54829014D01*
X185564866Y-55055134D01*
X185790986Y-55240706D01*
X186048966Y-55378599D01*
X186328889Y-55463513D01*
X186547050Y-55485000D01*
X186692950Y-55485000D01*
X186911111Y-55463513D01*
X187191034Y-55378599D01*
X187449014Y-55240706D01*
X187675134Y-55055134D01*
X187860706Y-54829014D01*
X187890000Y-54774209D01*
X187919294Y-54829014D01*
X188104866Y-55055134D01*
X188330986Y-55240706D01*
X188588966Y-55378599D01*
X188868889Y-55463513D01*
X189087050Y-55485000D01*
X189232950Y-55485000D01*
X189451111Y-55463513D01*
X189731034Y-55378599D01*
X189989014Y-55240706D01*
X190215134Y-55055134D01*
X190400706Y-54829014D01*
X190430000Y-54774209D01*
X190459294Y-54829014D01*
X190644866Y-55055134D01*
X190870986Y-55240706D01*
X191128966Y-55378599D01*
X191408889Y-55463513D01*
X191627050Y-55485000D01*
X191772950Y-55485000D01*
X191991111Y-55463513D01*
X192271034Y-55378599D01*
X192529014Y-55240706D01*
X192755134Y-55055134D01*
X192940706Y-54829014D01*
X193078599Y-54571034D01*
X193163513Y-54291111D01*
X193192185Y-54000000D01*
X193163513Y-53708889D01*
X193078599Y-53428966D01*
X192940706Y-53170986D01*
X192811534Y-53013589D01*
X194165000Y-53013589D01*
X194165000Y-53286411D01*
X194218225Y-53553989D01*
X194322629Y-53806043D01*
X194474201Y-54032886D01*
X194667114Y-54225799D01*
X194893957Y-54377371D01*
X195146011Y-54481775D01*
X195413589Y-54535000D01*
X195686411Y-54535000D01*
X195953989Y-54481775D01*
X196206043Y-54377371D01*
X196432886Y-54225799D01*
X196623685Y-54035000D01*
X197085532Y-54035000D01*
X197098815Y-54051185D01*
X197195506Y-54130537D01*
X197231918Y-54150000D01*
X197195506Y-54169463D01*
X197098815Y-54248815D01*
X197019463Y-54345506D01*
X196960498Y-54455820D01*
X196924188Y-54575518D01*
X196911928Y-54700000D01*
X196911928Y-55500000D01*
X196924188Y-55624482D01*
X196960498Y-55744180D01*
X197019463Y-55854494D01*
X197098815Y-55951185D01*
X197115001Y-55964468D01*
X197115000Y-56326315D01*
X196924201Y-56517114D01*
X196772629Y-56743957D01*
X196668225Y-56996011D01*
X196615000Y-57263589D01*
X196615000Y-57536411D01*
X196668225Y-57803989D01*
X196772629Y-58056043D01*
X196924201Y-58282886D01*
X197117114Y-58475799D01*
X197343957Y-58627371D01*
X197596011Y-58731775D01*
X197863589Y-58785000D01*
X198136411Y-58785000D01*
X198403989Y-58731775D01*
X198656043Y-58627371D01*
X198882886Y-58475799D01*
X199075799Y-58282886D01*
X199227371Y-58056043D01*
X199331775Y-57803989D01*
X199385000Y-57536411D01*
X199385000Y-57263589D01*
X199331775Y-56996011D01*
X199227371Y-56743957D01*
X199075799Y-56517114D01*
X198885000Y-56326315D01*
X198885000Y-55964468D01*
X198901185Y-55951185D01*
X198980537Y-55854494D01*
X199039502Y-55744180D01*
X199075812Y-55624482D01*
X199088072Y-55500000D01*
X199088072Y-54988095D01*
X199098815Y-55001185D01*
X199195506Y-55080537D01*
X199305820Y-55139502D01*
X199425518Y-55175812D01*
X199550000Y-55188072D01*
X200450000Y-55188072D01*
X200574482Y-55175812D01*
X200689380Y-55140958D01*
X202093470Y-56545049D01*
X202121183Y-56578817D01*
X202154951Y-56606530D01*
X202154953Y-56606532D01*
X202173713Y-56621928D01*
X202255941Y-56689411D01*
X202409687Y-56771589D01*
X202576510Y-56822195D01*
X202706523Y-56835000D01*
X202706533Y-56835000D01*
X202749999Y-56839281D01*
X202793465Y-56835000D01*
X205159844Y-56835000D01*
X205143470Y-56854951D01*
X202804957Y-59193465D01*
X202804952Y-59193469D01*
X202761482Y-59236939D01*
X202651184Y-59215000D01*
X202348816Y-59215000D01*
X202052257Y-59273989D01*
X201772905Y-59389701D01*
X201521495Y-59557688D01*
X201307688Y-59771495D01*
X201139701Y-60022905D01*
X201023989Y-60302257D01*
X200965000Y-60598816D01*
X200965000Y-60901184D01*
X201023989Y-61197743D01*
X201139701Y-61477095D01*
X201307688Y-61728505D01*
X201494183Y-61915000D01*
X198723685Y-61915000D01*
X198532886Y-61724201D01*
X198306043Y-61572629D01*
X198053989Y-61468225D01*
X197786411Y-61415000D01*
X197513589Y-61415000D01*
X197246011Y-61468225D01*
X196993957Y-61572629D01*
X196767114Y-61724201D01*
X196574201Y-61917114D01*
X196422629Y-62143957D01*
X196318225Y-62396011D01*
X196265000Y-62663589D01*
X196265000Y-62936411D01*
X196318225Y-63203989D01*
X196422629Y-63456043D01*
X196574201Y-63682886D01*
X196767114Y-63875799D01*
X196993957Y-64027371D01*
X197246011Y-64131775D01*
X197513589Y-64185000D01*
X197786411Y-64185000D01*
X198053989Y-64131775D01*
X198306043Y-64027371D01*
X198532886Y-63875799D01*
X198723685Y-63685000D01*
X205406531Y-63685000D01*
X205450000Y-63689281D01*
X205493469Y-63685000D01*
X205493477Y-63685000D01*
X205623490Y-63672195D01*
X205790313Y-63621589D01*
X205944059Y-63539411D01*
X206078817Y-63428817D01*
X206106534Y-63395044D01*
X207238518Y-62263060D01*
X207348816Y-62285000D01*
X207651184Y-62285000D01*
X207947743Y-62226011D01*
X208227095Y-62110299D01*
X208478505Y-61942312D01*
X208692312Y-61728505D01*
X208860299Y-61477095D01*
X208976011Y-61197743D01*
X209035000Y-60901184D01*
X209035000Y-60598816D01*
X208976011Y-60302257D01*
X208860299Y-60022905D01*
X208692312Y-59771495D01*
X208505817Y-59585000D01*
X208726315Y-59585000D01*
X208917114Y-59775799D01*
X209143957Y-59927371D01*
X209396011Y-60031775D01*
X209663589Y-60085000D01*
X209936411Y-60085000D01*
X210203989Y-60031775D01*
X210456043Y-59927371D01*
X210682886Y-59775799D01*
X210875799Y-59582886D01*
X211027371Y-59356043D01*
X211055247Y-59288744D01*
X211068225Y-59353989D01*
X211172629Y-59606043D01*
X211324201Y-59832886D01*
X211517114Y-60025799D01*
X211743957Y-60177371D01*
X211996011Y-60281775D01*
X212263589Y-60335000D01*
X212536411Y-60335000D01*
X212803989Y-60281775D01*
X213056043Y-60177371D01*
X213282886Y-60025799D01*
X213475799Y-59832886D01*
X213627371Y-59606043D01*
X213635307Y-59586884D01*
X216983472Y-62935049D01*
X217011185Y-62968817D01*
X217044953Y-62996530D01*
X217044955Y-62996532D01*
X217145943Y-63079411D01*
X217299688Y-63161589D01*
X217393346Y-63190000D01*
X217466512Y-63212195D01*
X217596525Y-63225000D01*
X217596533Y-63225000D01*
X217640002Y-63229281D01*
X217683471Y-63225000D01*
X223565375Y-63225000D01*
X223574188Y-63314482D01*
X223610498Y-63434180D01*
X223669463Y-63544494D01*
X223748815Y-63641185D01*
X223845506Y-63720537D01*
X223955820Y-63779502D01*
X224075518Y-63815812D01*
X224200000Y-63828072D01*
X225900000Y-63828072D01*
X226024482Y-63815812D01*
X226144180Y-63779502D01*
X226254494Y-63720537D01*
X226351185Y-63641185D01*
X226430537Y-63544494D01*
X226489502Y-63434180D01*
X226525812Y-63314482D01*
X226538072Y-63190000D01*
X226538072Y-61490000D01*
X226525812Y-61365518D01*
X226489502Y-61245820D01*
X226430537Y-61135506D01*
X226351185Y-61038815D01*
X226254494Y-60959463D01*
X226144180Y-60900498D01*
X226075313Y-60879607D01*
X226105134Y-60855134D01*
X226290706Y-60629014D01*
X226428599Y-60371034D01*
X226513513Y-60091111D01*
X226542185Y-59800000D01*
X226513513Y-59508889D01*
X226428599Y-59228966D01*
X226290706Y-58970986D01*
X226105134Y-58744866D01*
X225879014Y-58559294D01*
X225621034Y-58421401D01*
X225341111Y-58336487D01*
X225122950Y-58315000D01*
X224977050Y-58315000D01*
X224758889Y-58336487D01*
X224478966Y-58421401D01*
X224220986Y-58559294D01*
X223994866Y-58744866D01*
X223855241Y-58915000D01*
X223342287Y-58915000D01*
X223339502Y-58905820D01*
X223280537Y-58795506D01*
X223201185Y-58698815D01*
X223104494Y-58619463D01*
X222994180Y-58560498D01*
X222874482Y-58524188D01*
X222750000Y-58511928D01*
X222050000Y-58511928D01*
X221925518Y-58524188D01*
X221805820Y-58560498D01*
X221695506Y-58619463D01*
X221598815Y-58698815D01*
X221519463Y-58795506D01*
X221460498Y-58905820D01*
X221450000Y-58940427D01*
X221439502Y-58905820D01*
X221380537Y-58795506D01*
X221301185Y-58698815D01*
X221204494Y-58619463D01*
X221094180Y-58560498D01*
X220974482Y-58524188D01*
X220850000Y-58511928D01*
X220350087Y-58511928D01*
X220385000Y-58336411D01*
X220385000Y-58063589D01*
X220331775Y-57796011D01*
X220227371Y-57543957D01*
X220075799Y-57317114D01*
X219882886Y-57124201D01*
X219656043Y-56972629D01*
X219403989Y-56868225D01*
X219136411Y-56815000D01*
X218863589Y-56815000D01*
X218596011Y-56868225D01*
X218343957Y-56972629D01*
X218117114Y-57124201D01*
X217924201Y-57317114D01*
X217772629Y-57543957D01*
X217668225Y-57796011D01*
X217615000Y-58063589D01*
X217615000Y-58336411D01*
X217658953Y-58557374D01*
X213152595Y-54051017D01*
X213175812Y-53974482D01*
X213188072Y-53850000D01*
X213188072Y-53150000D01*
X216811928Y-53150000D01*
X216811928Y-54850000D01*
X216824188Y-54974482D01*
X216860498Y-55094180D01*
X216919463Y-55204494D01*
X216998815Y-55301185D01*
X217095506Y-55380537D01*
X217205820Y-55439502D01*
X217325518Y-55475812D01*
X217450000Y-55488072D01*
X219150000Y-55488072D01*
X219274482Y-55475812D01*
X219394180Y-55439502D01*
X219504494Y-55380537D01*
X219601185Y-55301185D01*
X219680537Y-55204494D01*
X219739502Y-55094180D01*
X219760393Y-55025313D01*
X219784866Y-55055134D01*
X220010986Y-55240706D01*
X220268966Y-55378599D01*
X220548889Y-55463513D01*
X220767050Y-55485000D01*
X220912950Y-55485000D01*
X221131111Y-55463513D01*
X221411034Y-55378599D01*
X221669014Y-55240706D01*
X221895134Y-55055134D01*
X222080706Y-54829014D01*
X222110000Y-54774209D01*
X222139294Y-54829014D01*
X222324866Y-55055134D01*
X222550986Y-55240706D01*
X222808966Y-55378599D01*
X223088889Y-55463513D01*
X223307050Y-55485000D01*
X223452950Y-55485000D01*
X223671111Y-55463513D01*
X223951034Y-55378599D01*
X224209014Y-55240706D01*
X224435134Y-55055134D01*
X224620706Y-54829014D01*
X224650000Y-54774209D01*
X224679294Y-54829014D01*
X224864866Y-55055134D01*
X225090986Y-55240706D01*
X225348966Y-55378599D01*
X225628889Y-55463513D01*
X225847050Y-55485000D01*
X225992950Y-55485000D01*
X226211111Y-55463513D01*
X226491034Y-55378599D01*
X226749014Y-55240706D01*
X226975134Y-55055134D01*
X227160706Y-54829014D01*
X227190000Y-54774209D01*
X227219294Y-54829014D01*
X227404866Y-55055134D01*
X227630986Y-55240706D01*
X227888966Y-55378599D01*
X228168889Y-55463513D01*
X228387050Y-55485000D01*
X228532950Y-55485000D01*
X228751111Y-55463513D01*
X229031034Y-55378599D01*
X229289014Y-55240706D01*
X229515134Y-55055134D01*
X229700706Y-54829014D01*
X229730000Y-54774209D01*
X229759294Y-54829014D01*
X229944866Y-55055134D01*
X230170986Y-55240706D01*
X230428966Y-55378599D01*
X230708889Y-55463513D01*
X230927050Y-55485000D01*
X231072950Y-55485000D01*
X231291111Y-55463513D01*
X231571034Y-55378599D01*
X231829014Y-55240706D01*
X232055134Y-55055134D01*
X232240706Y-54829014D01*
X232378599Y-54571034D01*
X232463513Y-54291111D01*
X232492185Y-54000000D01*
X232463513Y-53708889D01*
X232378599Y-53428966D01*
X232240706Y-53170986D01*
X232055134Y-52944866D01*
X231829014Y-52759294D01*
X231571034Y-52621401D01*
X231291111Y-52536487D01*
X231072950Y-52515000D01*
X230927050Y-52515000D01*
X230708889Y-52536487D01*
X230428966Y-52621401D01*
X230170986Y-52759294D01*
X229944866Y-52944866D01*
X229759294Y-53170986D01*
X229730000Y-53225791D01*
X229700706Y-53170986D01*
X229515134Y-52944866D01*
X229289014Y-52759294D01*
X229031034Y-52621401D01*
X228751111Y-52536487D01*
X228532950Y-52515000D01*
X228387050Y-52515000D01*
X228168889Y-52536487D01*
X227888966Y-52621401D01*
X227630986Y-52759294D01*
X227404866Y-52944866D01*
X227219294Y-53170986D01*
X227190000Y-53225791D01*
X227160706Y-53170986D01*
X226975134Y-52944866D01*
X226749014Y-52759294D01*
X226491034Y-52621401D01*
X226211111Y-52536487D01*
X225992950Y-52515000D01*
X225847050Y-52515000D01*
X225628889Y-52536487D01*
X225348966Y-52621401D01*
X225090986Y-52759294D01*
X224864866Y-52944866D01*
X224679294Y-53170986D01*
X224650000Y-53225791D01*
X224620706Y-53170986D01*
X224435134Y-52944866D01*
X224209014Y-52759294D01*
X223951034Y-52621401D01*
X223671111Y-52536487D01*
X223452950Y-52515000D01*
X223307050Y-52515000D01*
X223088889Y-52536487D01*
X222808966Y-52621401D01*
X222550986Y-52759294D01*
X222324866Y-52944866D01*
X222139294Y-53170986D01*
X222110000Y-53225791D01*
X222080706Y-53170986D01*
X221895134Y-52944866D01*
X221669014Y-52759294D01*
X221411034Y-52621401D01*
X221131111Y-52536487D01*
X220912950Y-52515000D01*
X220767050Y-52515000D01*
X220548889Y-52536487D01*
X220268966Y-52621401D01*
X220010986Y-52759294D01*
X219784866Y-52944866D01*
X219760393Y-52974687D01*
X219739502Y-52905820D01*
X219680537Y-52795506D01*
X219601185Y-52698815D01*
X219504494Y-52619463D01*
X219394180Y-52560498D01*
X219274482Y-52524188D01*
X219150000Y-52511928D01*
X217450000Y-52511928D01*
X217325518Y-52524188D01*
X217205820Y-52560498D01*
X217095506Y-52619463D01*
X216998815Y-52698815D01*
X216919463Y-52795506D01*
X216860498Y-52905820D01*
X216824188Y-53025518D01*
X216811928Y-53150000D01*
X213188072Y-53150000D01*
X213188072Y-52550000D01*
X213175812Y-52425518D01*
X213139502Y-52305820D01*
X213080537Y-52195506D01*
X213001185Y-52098815D01*
X212904494Y-52019463D01*
X212794180Y-51960498D01*
X212674482Y-51924188D01*
X212550000Y-51911928D01*
X211850000Y-51911928D01*
X211725518Y-51924188D01*
X211605820Y-51960498D01*
X211495506Y-52019463D01*
X211398815Y-52098815D01*
X211319463Y-52195506D01*
X211260498Y-52305820D01*
X211250000Y-52340427D01*
X211239502Y-52305820D01*
X211180537Y-52195506D01*
X211101185Y-52098815D01*
X211004494Y-52019463D01*
X210894180Y-51960498D01*
X210774482Y-51924188D01*
X210650000Y-51911928D01*
X209950000Y-51911928D01*
X209825518Y-51924188D01*
X209705820Y-51960498D01*
X209595506Y-52019463D01*
X209498815Y-52098815D01*
X209419463Y-52195506D01*
X209360498Y-52305820D01*
X209357713Y-52315000D01*
X207394759Y-52315000D01*
X207255134Y-52144866D01*
X207029014Y-51959294D01*
X206771034Y-51821401D01*
X206491111Y-51736487D01*
X206272950Y-51715000D01*
X206127050Y-51715000D01*
X205908889Y-51736487D01*
X205628966Y-51821401D01*
X205370986Y-51959294D01*
X205144866Y-52144866D01*
X205120393Y-52174687D01*
X205099502Y-52105820D01*
X205040537Y-51995506D01*
X204961185Y-51898815D01*
X204864494Y-51819463D01*
X204754180Y-51760498D01*
X204634482Y-51724188D01*
X204510000Y-51711928D01*
X202810000Y-51711928D01*
X202685518Y-51724188D01*
X202565820Y-51760498D01*
X202455506Y-51819463D01*
X202358815Y-51898815D01*
X202314451Y-51952873D01*
X201766534Y-51404956D01*
X201738817Y-51371183D01*
X201604059Y-51260589D01*
X201450313Y-51178411D01*
X201283490Y-51127805D01*
X201153477Y-51115000D01*
X201153469Y-51115000D01*
X201110000Y-51110719D01*
X201066531Y-51115000D01*
X198343466Y-51115000D01*
X198299999Y-51110719D01*
X198256533Y-51115000D01*
X198256523Y-51115000D01*
X198126510Y-51127805D01*
X197959687Y-51178411D01*
X197805941Y-51260589D01*
X197671183Y-51371183D01*
X197643466Y-51404956D01*
X197404952Y-51643470D01*
X197371184Y-51671183D01*
X197343471Y-51704951D01*
X197343468Y-51704954D01*
X197260590Y-51805941D01*
X197178412Y-51959687D01*
X197127805Y-52126510D01*
X197121010Y-52195506D01*
X197115000Y-52256523D01*
X197115000Y-52256531D01*
X197114166Y-52265000D01*
X196623685Y-52265000D01*
X196432886Y-52074201D01*
X196206043Y-51922629D01*
X195953989Y-51818225D01*
X195686411Y-51765000D01*
X195413589Y-51765000D01*
X195146011Y-51818225D01*
X194893957Y-51922629D01*
X194667114Y-52074201D01*
X194474201Y-52267114D01*
X194322629Y-52493957D01*
X194218225Y-52746011D01*
X194165000Y-53013589D01*
X192811534Y-53013589D01*
X192755134Y-52944866D01*
X192529014Y-52759294D01*
X192271034Y-52621401D01*
X191991111Y-52536487D01*
X191772950Y-52515000D01*
X191627050Y-52515000D01*
X191408889Y-52536487D01*
X191128966Y-52621401D01*
X190870986Y-52759294D01*
X190644866Y-52944866D01*
X190459294Y-53170986D01*
X190430000Y-53225791D01*
X190400706Y-53170986D01*
X190215134Y-52944866D01*
X189989014Y-52759294D01*
X189731034Y-52621401D01*
X189451111Y-52536487D01*
X189232950Y-52515000D01*
X189087050Y-52515000D01*
X188868889Y-52536487D01*
X188588966Y-52621401D01*
X188330986Y-52759294D01*
X188104866Y-52944866D01*
X187919294Y-53170986D01*
X187890000Y-53225791D01*
X187860706Y-53170986D01*
X187675134Y-52944866D01*
X187449014Y-52759294D01*
X187191034Y-52621401D01*
X186911111Y-52536487D01*
X186692950Y-52515000D01*
X186547050Y-52515000D01*
X186328889Y-52536487D01*
X186048966Y-52621401D01*
X185790986Y-52759294D01*
X185564866Y-52944866D01*
X185379294Y-53170986D01*
X185350000Y-53225791D01*
X185320706Y-53170986D01*
X185135134Y-52944866D01*
X184909014Y-52759294D01*
X184651034Y-52621401D01*
X184371111Y-52536487D01*
X184152950Y-52515000D01*
X184007050Y-52515000D01*
X183788889Y-52536487D01*
X183508966Y-52621401D01*
X183250986Y-52759294D01*
X183024866Y-52944866D01*
X182839294Y-53170986D01*
X182810000Y-53225791D01*
X182780706Y-53170986D01*
X182595134Y-52944866D01*
X182369014Y-52759294D01*
X182111034Y-52621401D01*
X181831111Y-52536487D01*
X181612950Y-52515000D01*
X181467050Y-52515000D01*
X181248889Y-52536487D01*
X180968966Y-52621401D01*
X180710986Y-52759294D01*
X180484866Y-52944866D01*
X180460393Y-52974687D01*
X180439502Y-52905820D01*
X180380537Y-52795506D01*
X180301185Y-52698815D01*
X180204494Y-52619463D01*
X180094180Y-52560498D01*
X179974482Y-52524188D01*
X179850000Y-52511928D01*
X178150000Y-52511928D01*
X178025518Y-52524188D01*
X177905820Y-52560498D01*
X177795506Y-52619463D01*
X177698815Y-52698815D01*
X177619463Y-52795506D01*
X177560498Y-52905820D01*
X177524188Y-53025518D01*
X177511928Y-53150000D01*
X175735000Y-53150000D01*
X175735000Y-50735000D01*
X234265001Y-50735000D01*
X234265000Y-79265000D01*
X234265000Y-79265000D01*
G37*
X234265000Y-79265000D02*
X175735000Y-79265000D01*
X175735000Y-74889721D01*
X177965000Y-74889721D01*
X177965000Y-75310279D01*
X178047047Y-75722756D01*
X178207988Y-76111302D01*
X178441637Y-76460983D01*
X178739017Y-76758363D01*
X179088698Y-76992012D01*
X179477244Y-77152953D01*
X179889721Y-77235000D01*
X180310279Y-77235000D01*
X180722756Y-77152953D01*
X181111302Y-76992012D01*
X181460983Y-76758363D01*
X181758363Y-76460983D01*
X181992012Y-76111302D01*
X182152953Y-75722756D01*
X182235000Y-75310279D01*
X182235000Y-74889721D01*
X187465000Y-74889721D01*
X187465000Y-75310279D01*
X187547047Y-75722756D01*
X187707988Y-76111302D01*
X187941637Y-76460983D01*
X188239017Y-76758363D01*
X188588698Y-76992012D01*
X188977244Y-77152953D01*
X189389721Y-77235000D01*
X189810279Y-77235000D01*
X190222756Y-77152953D01*
X190611302Y-76992012D01*
X190960983Y-76758363D01*
X191258363Y-76460983D01*
X191492012Y-76111302D01*
X191652953Y-75722756D01*
X191735000Y-75310279D01*
X191735000Y-74889721D01*
X191652953Y-74477244D01*
X191492012Y-74088698D01*
X191258363Y-73739017D01*
X190960983Y-73441637D01*
X190611302Y-73207988D01*
X190222756Y-73047047D01*
X189810279Y-72965000D01*
X189389721Y-72965000D01*
X188977244Y-73047047D01*
X188588698Y-73207988D01*
X188239017Y-73441637D01*
X187941637Y-73739017D01*
X187707988Y-74088698D01*
X187547047Y-74477244D01*
X187465000Y-74889721D01*
X182235000Y-74889721D01*
X182152953Y-74477244D01*
X181992012Y-74088698D01*
X181758363Y-73739017D01*
X181460983Y-73441637D01*
X181111302Y-73207988D01*
X180722756Y-73047047D01*
X180310279Y-72965000D01*
X179889721Y-72965000D01*
X179477244Y-73047047D01*
X179088698Y-73207988D01*
X178739017Y-73441637D01*
X178441637Y-73739017D01*
X178207988Y-74088698D01*
X178047047Y-74477244D01*
X177965000Y-74889721D01*
X175735000Y-74889721D01*
X175735000Y-67448816D01*
X180815000Y-67448816D01*
X180815000Y-67751184D01*
X180873989Y-68047743D01*
X180989701Y-68327095D01*
X181157688Y-68578505D01*
X181371495Y-68792312D01*
X181622905Y-68960299D01*
X181902257Y-69076011D01*
X182198816Y-69135000D01*
X182501184Y-69135000D01*
X182611482Y-69113060D01*
X183893470Y-70395049D01*
X183921183Y-70428817D01*
X183954951Y-70456530D01*
X183954953Y-70456532D01*
X184028772Y-70517114D01*
X184055941Y-70539411D01*
X184209687Y-70621589D01*
X184376510Y-70672195D01*
X184506523Y-70685000D01*
X184506531Y-70685000D01*
X184550000Y-70689281D01*
X184593469Y-70685000D01*
X193533422Y-70685000D01*
X196643470Y-73795049D01*
X196671183Y-73828817D01*
X196704951Y-73856530D01*
X196704953Y-73856532D01*
X196776452Y-73915210D01*
X196805941Y-73939411D01*
X196959687Y-74021589D01*
X197126510Y-74072195D01*
X197256523Y-74085000D01*
X197256533Y-74085000D01*
X197299999Y-74089281D01*
X197343465Y-74085000D01*
X198826315Y-74085000D01*
X199017114Y-74275799D01*
X199243957Y-74427371D01*
X199496011Y-74531775D01*
X199585646Y-74549605D01*
X199348966Y-74621401D01*
X199090986Y-74759294D01*
X198864866Y-74944866D01*
X198679294Y-75170986D01*
X198650000Y-75225791D01*
X198620706Y-75170986D01*
X198435134Y-74944866D01*
X198209014Y-74759294D01*
X197951034Y-74621401D01*
X197671111Y-74536487D01*
X197452950Y-74515000D01*
X197307050Y-74515000D01*
X197088889Y-74536487D01*
X196808966Y-74621401D01*
X196550986Y-74759294D01*
X196324866Y-74944866D01*
X196139294Y-75170986D01*
X196110000Y-75225791D01*
X196080706Y-75170986D01*
X195895134Y-74944866D01*
X195669014Y-74759294D01*
X195411034Y-74621401D01*
X195131111Y-74536487D01*
X194912950Y-74515000D01*
X194767050Y-74515000D01*
X194548889Y-74536487D01*
X194268966Y-74621401D01*
X194010986Y-74759294D01*
X193784866Y-74944866D01*
X193599294Y-75170986D01*
X193461401Y-75428966D01*
X193376487Y-75708889D01*
X193347815Y-76000000D01*
X193376487Y-76291111D01*
X193461401Y-76571034D01*
X193599294Y-76829014D01*
X193784866Y-77055134D01*
X194010986Y-77240706D01*
X194268966Y-77378599D01*
X194548889Y-77463513D01*
X194767050Y-77485000D01*
X194912950Y-77485000D01*
X195131111Y-77463513D01*
X195411034Y-77378599D01*
X195669014Y-77240706D01*
X195895134Y-77055134D01*
X196080706Y-76829014D01*
X196110000Y-76774209D01*
X196139294Y-76829014D01*
X196324866Y-77055134D01*
X196550986Y-77240706D01*
X196808966Y-77378599D01*
X197088889Y-77463513D01*
X197307050Y-77485000D01*
X197452950Y-77485000D01*
X197671111Y-77463513D01*
X197951034Y-77378599D01*
X198209014Y-77240706D01*
X198435134Y-77055134D01*
X198620706Y-76829014D01*
X198650000Y-76774209D01*
X198679294Y-76829014D01*
X198864866Y-77055134D01*
X199090986Y-77240706D01*
X199348966Y-77378599D01*
X199628889Y-77463513D01*
X199847050Y-77485000D01*
X199992950Y-77485000D01*
X200211111Y-77463513D01*
X200491034Y-77378599D01*
X200749014Y-77240706D01*
X200975134Y-77055134D01*
X201160706Y-76829014D01*
X201190000Y-76774209D01*
X201219294Y-76829014D01*
X201404866Y-77055134D01*
X201630986Y-77240706D01*
X201888966Y-77378599D01*
X202168889Y-77463513D01*
X202387050Y-77485000D01*
X202532950Y-77485000D01*
X202751111Y-77463513D01*
X203031034Y-77378599D01*
X203289014Y-77240706D01*
X203515134Y-77055134D01*
X203700706Y-76829014D01*
X203730000Y-76774209D01*
X203759294Y-76829014D01*
X203944866Y-77055134D01*
X204170986Y-77240706D01*
X204428966Y-77378599D01*
X204708889Y-77463513D01*
X204927050Y-77485000D01*
X205072950Y-77485000D01*
X205291111Y-77463513D01*
X205571034Y-77378599D01*
X205829014Y-77240706D01*
X206055134Y-77055134D01*
X206240706Y-76829014D01*
X206270000Y-76774209D01*
X206299294Y-76829014D01*
X206484866Y-77055134D01*
X206710986Y-77240706D01*
X206968966Y-77378599D01*
X207248889Y-77463513D01*
X207467050Y-77485000D01*
X207612950Y-77485000D01*
X207831111Y-77463513D01*
X208111034Y-77378599D01*
X208369014Y-77240706D01*
X208595134Y-77055134D01*
X208780706Y-76829014D01*
X208810000Y-76774209D01*
X208839294Y-76829014D01*
X209024866Y-77055134D01*
X209250986Y-77240706D01*
X209508966Y-77378599D01*
X209788889Y-77463513D01*
X210007050Y-77485000D01*
X210152950Y-77485000D01*
X210371111Y-77463513D01*
X210651034Y-77378599D01*
X210909014Y-77240706D01*
X211135134Y-77055134D01*
X211320706Y-76829014D01*
X211350000Y-76774209D01*
X211379294Y-76829014D01*
X211564866Y-77055134D01*
X211790986Y-77240706D01*
X212048966Y-77378599D01*
X212328889Y-77463513D01*
X212547050Y-77485000D01*
X212692950Y-77485000D01*
X212911111Y-77463513D01*
X213191034Y-77378599D01*
X213449014Y-77240706D01*
X213675134Y-77055134D01*
X213699607Y-77025313D01*
X213720498Y-77094180D01*
X213779463Y-77204494D01*
X213858815Y-77301185D01*
X213955506Y-77380537D01*
X214065820Y-77439502D01*
X214185518Y-77475812D01*
X214310000Y-77488072D01*
X216010000Y-77488072D01*
X216134482Y-77475812D01*
X216254180Y-77439502D01*
X216364494Y-77380537D01*
X216461185Y-77301185D01*
X216540537Y-77204494D01*
X216599502Y-77094180D01*
X216635812Y-76974482D01*
X216648072Y-76850000D01*
X216648072Y-75150000D01*
X216635812Y-75025518D01*
X216599502Y-74905820D01*
X216590897Y-74889721D01*
X218165000Y-74889721D01*
X218165000Y-75310279D01*
X218247047Y-75722756D01*
X218407988Y-76111302D01*
X218641637Y-76460983D01*
X218939017Y-76758363D01*
X219288698Y-76992012D01*
X219677244Y-77152953D01*
X220089721Y-77235000D01*
X220510279Y-77235000D01*
X220922756Y-77152953D01*
X221311302Y-76992012D01*
X221660983Y-76758363D01*
X221958363Y-76460983D01*
X222192012Y-76111302D01*
X222352953Y-75722756D01*
X222435000Y-75310279D01*
X222435000Y-74889721D01*
X227665000Y-74889721D01*
X227665000Y-75310279D01*
X227747047Y-75722756D01*
X227907988Y-76111302D01*
X228141637Y-76460983D01*
X228439017Y-76758363D01*
X228788698Y-76992012D01*
X229177244Y-77152953D01*
X229589721Y-77235000D01*
X230010279Y-77235000D01*
X230422756Y-77152953D01*
X230811302Y-76992012D01*
X231160983Y-76758363D01*
X231458363Y-76460983D01*
X231692012Y-76111302D01*
X231852953Y-75722756D01*
X231935000Y-75310279D01*
X231935000Y-74889721D01*
X231852953Y-74477244D01*
X231692012Y-74088698D01*
X231458363Y-73739017D01*
X231160983Y-73441637D01*
X230811302Y-73207988D01*
X230422756Y-73047047D01*
X230010279Y-72965000D01*
X229589721Y-72965000D01*
X229177244Y-73047047D01*
X228788698Y-73207988D01*
X228439017Y-73441637D01*
X228141637Y-73739017D01*
X227907988Y-74088698D01*
X227747047Y-74477244D01*
X227665000Y-74889721D01*
X222435000Y-74889721D01*
X222352953Y-74477244D01*
X222192012Y-74088698D01*
X221958363Y-73739017D01*
X221660983Y-73441637D01*
X221311302Y-73207988D01*
X220922756Y-73047047D01*
X220510279Y-72965000D01*
X220089721Y-72965000D01*
X219677244Y-73047047D01*
X219288698Y-73207988D01*
X218939017Y-73441637D01*
X218641637Y-73739017D01*
X218407988Y-74088698D01*
X218247047Y-74477244D01*
X218165000Y-74889721D01*
X216590897Y-74889721D01*
X216540537Y-74795506D01*
X216461185Y-74698815D01*
X216364494Y-74619463D01*
X216254180Y-74560498D01*
X216134482Y-74524188D01*
X216010000Y-74511928D01*
X214310000Y-74511928D01*
X214185518Y-74524188D01*
X214065820Y-74560498D01*
X213955506Y-74619463D01*
X213858815Y-74698815D01*
X213779463Y-74795506D01*
X213720498Y-74905820D01*
X213699607Y-74974687D01*
X213675134Y-74944866D01*
X213449014Y-74759294D01*
X213191034Y-74621401D01*
X212911111Y-74536487D01*
X212692950Y-74515000D01*
X212547050Y-74515000D01*
X212328889Y-74536487D01*
X212048966Y-74621401D01*
X211790986Y-74759294D01*
X211564866Y-74944866D01*
X211379294Y-75170986D01*
X211350000Y-75225791D01*
X211320706Y-75170986D01*
X211135134Y-74944866D01*
X210909014Y-74759294D01*
X210651034Y-74621401D01*
X210371111Y-74536487D01*
X210152950Y-74515000D01*
X210007050Y-74515000D01*
X209788889Y-74536487D01*
X209508966Y-74621401D01*
X209250986Y-74759294D01*
X209024866Y-74944866D01*
X208839294Y-75170986D01*
X208810000Y-75225791D01*
X208780706Y-75170986D01*
X208595134Y-74944866D01*
X208369014Y-74759294D01*
X208111034Y-74621401D01*
X207831111Y-74536487D01*
X207612950Y-74515000D01*
X207467050Y-74515000D01*
X207248889Y-74536487D01*
X206968966Y-74621401D01*
X206710986Y-74759294D01*
X206484866Y-74944866D01*
X206299294Y-75170986D01*
X206270000Y-75225791D01*
X206240706Y-75170986D01*
X206055134Y-74944866D01*
X205829014Y-74759294D01*
X205571034Y-74621401D01*
X205291111Y-74536487D01*
X205072950Y-74515000D01*
X204927050Y-74515000D01*
X204708889Y-74536487D01*
X204428966Y-74621401D01*
X204170986Y-74759294D01*
X203944866Y-74944866D01*
X203759294Y-75170986D01*
X203730000Y-75225791D01*
X203700706Y-75170986D01*
X203515134Y-74944866D01*
X203289014Y-74759294D01*
X203031034Y-74621401D01*
X202751111Y-74536487D01*
X202532950Y-74515000D01*
X202387050Y-74515000D01*
X202168889Y-74536487D01*
X201888966Y-74621401D01*
X201630986Y-74759294D01*
X201404866Y-74944866D01*
X201219294Y-75170986D01*
X201190000Y-75225791D01*
X201160706Y-75170986D01*
X200975134Y-74944866D01*
X200749014Y-74759294D01*
X200491034Y-74621401D01*
X200238513Y-74544799D01*
X200303989Y-74531775D01*
X200556043Y-74427371D01*
X200782886Y-74275799D01*
X200975799Y-74082886D01*
X201127371Y-73856043D01*
X201231775Y-73603989D01*
X201285000Y-73336411D01*
X201285000Y-73063589D01*
X201231775Y-72796011D01*
X201127371Y-72543957D01*
X200975799Y-72317114D01*
X200782886Y-72124201D01*
X200556043Y-71972629D01*
X200303989Y-71868225D01*
X200036411Y-71815000D01*
X199763589Y-71815000D01*
X199496011Y-71868225D01*
X199243957Y-71972629D01*
X199017114Y-72124201D01*
X198826315Y-72315000D01*
X198393685Y-72315000D01*
X198425799Y-72282886D01*
X198577371Y-72056043D01*
X198681775Y-71803989D01*
X198735000Y-71536411D01*
X198735000Y-71263589D01*
X198681775Y-70996011D01*
X198577371Y-70743957D01*
X198425799Y-70517114D01*
X198232886Y-70324201D01*
X198006043Y-70172629D01*
X197753989Y-70068225D01*
X197486411Y-70015000D01*
X197216579Y-70015000D01*
X195780132Y-68578553D01*
X195875799Y-68482886D01*
X196027371Y-68256043D01*
X196116974Y-68039721D01*
X198115000Y-68039721D01*
X198115000Y-68460279D01*
X198197047Y-68872756D01*
X198357988Y-69261302D01*
X198591637Y-69610983D01*
X198889017Y-69908363D01*
X199238698Y-70142012D01*
X199627244Y-70302953D01*
X200039721Y-70385000D01*
X200460279Y-70385000D01*
X200872756Y-70302953D01*
X201261302Y-70142012D01*
X201610983Y-69908363D01*
X201908363Y-69610983D01*
X202142012Y-69261302D01*
X202302953Y-68872756D01*
X202385000Y-68460279D01*
X202385000Y-68039721D01*
X207615000Y-68039721D01*
X207615000Y-68460279D01*
X207697047Y-68872756D01*
X207857988Y-69261302D01*
X208091637Y-69610983D01*
X208389017Y-69908363D01*
X208738698Y-70142012D01*
X209127244Y-70302953D01*
X209539721Y-70385000D01*
X209960279Y-70385000D01*
X210372756Y-70302953D01*
X210761302Y-70142012D01*
X211110983Y-69908363D01*
X211408363Y-69610983D01*
X211642012Y-69261302D01*
X211802953Y-68872756D01*
X211885000Y-68460279D01*
X211885000Y-68039721D01*
X211802953Y-67627244D01*
X211642012Y-67238698D01*
X211519068Y-67054699D01*
X215356108Y-67054699D01*
X215356108Y-67327521D01*
X215409333Y-67595099D01*
X215513737Y-67847153D01*
X215665309Y-68073996D01*
X215858222Y-68266909D01*
X216085065Y-68418481D01*
X216337119Y-68522885D01*
X216604697Y-68576110D01*
X216877519Y-68576110D01*
X217145097Y-68522885D01*
X217236560Y-68485000D01*
X221295210Y-68485000D01*
X221357688Y-68578505D01*
X221571495Y-68792312D01*
X221822905Y-68960299D01*
X222102257Y-69076011D01*
X222398816Y-69135000D01*
X222701184Y-69135000D01*
X222997743Y-69076011D01*
X223277095Y-68960299D01*
X223528505Y-68792312D01*
X223742312Y-68578505D01*
X223800000Y-68492169D01*
X223857688Y-68578505D01*
X224071495Y-68792312D01*
X224322905Y-68960299D01*
X224602257Y-69076011D01*
X224898816Y-69135000D01*
X225201184Y-69135000D01*
X225497743Y-69076011D01*
X225777095Y-68960299D01*
X226028505Y-68792312D01*
X226242312Y-68578505D01*
X226300000Y-68492169D01*
X226357688Y-68578505D01*
X226571495Y-68792312D01*
X226822905Y-68960299D01*
X227102257Y-69076011D01*
X227398816Y-69135000D01*
X227701184Y-69135000D01*
X227997743Y-69076011D01*
X228277095Y-68960299D01*
X228528505Y-68792312D01*
X228742312Y-68578505D01*
X228804790Y-68485000D01*
X230976315Y-68485000D01*
X231167114Y-68675799D01*
X231393957Y-68827371D01*
X231646011Y-68931775D01*
X231913589Y-68985000D01*
X232186411Y-68985000D01*
X232453989Y-68931775D01*
X232706043Y-68827371D01*
X232932886Y-68675799D01*
X233125799Y-68482886D01*
X233277371Y-68256043D01*
X233381775Y-68003989D01*
X233435000Y-67736411D01*
X233435000Y-67463589D01*
X233381775Y-67196011D01*
X233277371Y-66943957D01*
X233125799Y-66717114D01*
X232932886Y-66524201D01*
X232706043Y-66372629D01*
X232453989Y-66268225D01*
X232186411Y-66215000D01*
X231913589Y-66215000D01*
X231646011Y-66268225D01*
X231393957Y-66372629D01*
X231167114Y-66524201D01*
X230976315Y-66715000D01*
X228804790Y-66715000D01*
X228742312Y-66621495D01*
X228528505Y-66407688D01*
X228277095Y-66239701D01*
X227997743Y-66123989D01*
X227701184Y-66065000D01*
X227398816Y-66065000D01*
X227102257Y-66123989D01*
X226822905Y-66239701D01*
X226571495Y-66407688D01*
X226357688Y-66621495D01*
X226300000Y-66707831D01*
X226242312Y-66621495D01*
X226028505Y-66407688D01*
X225777095Y-66239701D01*
X225497743Y-66123989D01*
X225201184Y-66065000D01*
X224898816Y-66065000D01*
X224788518Y-66086940D01*
X223606536Y-64904958D01*
X223578819Y-64871185D01*
X223444061Y-64760591D01*
X223290315Y-64678413D01*
X223260767Y-64669450D01*
X223225799Y-64617116D01*
X223032886Y-64424203D01*
X222806043Y-64272631D01*
X222553989Y-64168227D01*
X222286411Y-64115002D01*
X222013589Y-64115002D01*
X221746011Y-64168227D01*
X221493957Y-64272631D01*
X221267114Y-64424203D01*
X221074201Y-64617116D01*
X220922629Y-64843959D01*
X220818225Y-65096013D01*
X220765000Y-65363591D01*
X220765000Y-65636413D01*
X220818225Y-65903991D01*
X220922629Y-66156045D01*
X221074201Y-66382888D01*
X221267114Y-66575801D01*
X221350839Y-66631745D01*
X221295210Y-66715000D01*
X218043010Y-66715000D01*
X217968479Y-66535067D01*
X217816907Y-66308224D01*
X217623994Y-66115311D01*
X217397151Y-65963739D01*
X217145097Y-65859335D01*
X216877519Y-65806110D01*
X216604697Y-65806110D01*
X216337119Y-65859335D01*
X216085065Y-65963739D01*
X215858222Y-66115311D01*
X215665309Y-66308224D01*
X215513737Y-66535067D01*
X215409333Y-66787121D01*
X215356108Y-67054699D01*
X211519068Y-67054699D01*
X211408363Y-66889017D01*
X211110983Y-66591637D01*
X210761302Y-66357988D01*
X210372756Y-66197047D01*
X209960279Y-66115000D01*
X209539721Y-66115000D01*
X209127244Y-66197047D01*
X208738698Y-66357988D01*
X208389017Y-66591637D01*
X208091637Y-66889017D01*
X207857988Y-67238698D01*
X207697047Y-67627244D01*
X207615000Y-68039721D01*
X202385000Y-68039721D01*
X202302953Y-67627244D01*
X202142012Y-67238698D01*
X201908363Y-66889017D01*
X201610983Y-66591637D01*
X201261302Y-66357988D01*
X200872756Y-66197047D01*
X200460279Y-66115000D01*
X200039721Y-66115000D01*
X199627244Y-66197047D01*
X199238698Y-66357988D01*
X198889017Y-66591637D01*
X198591637Y-66889017D01*
X198357988Y-67238698D01*
X198197047Y-67627244D01*
X198115000Y-68039721D01*
X196116974Y-68039721D01*
X196131775Y-68003989D01*
X196185000Y-67736411D01*
X196185000Y-67463589D01*
X196131775Y-67196011D01*
X196027371Y-66943957D01*
X195875799Y-66717114D01*
X195682886Y-66524201D01*
X195456043Y-66372629D01*
X195203989Y-66268225D01*
X194936411Y-66215000D01*
X194663589Y-66215000D01*
X194396011Y-66268225D01*
X194143957Y-66372629D01*
X193917114Y-66524201D01*
X193726315Y-66715000D01*
X188604790Y-66715000D01*
X188542312Y-66621495D01*
X188328505Y-66407688D01*
X188077095Y-66239701D01*
X187797743Y-66123989D01*
X187501184Y-66065000D01*
X187198816Y-66065000D01*
X186902257Y-66123989D01*
X186622905Y-66239701D01*
X186371495Y-66407688D01*
X186157688Y-66621495D01*
X186100000Y-66707831D01*
X186042312Y-66621495D01*
X185828505Y-66407688D01*
X185577095Y-66239701D01*
X185297743Y-66123989D01*
X185001184Y-66065000D01*
X184698816Y-66065000D01*
X184402257Y-66123989D01*
X184122905Y-66239701D01*
X183871495Y-66407688D01*
X183657688Y-66621495D01*
X183600000Y-66707831D01*
X183542312Y-66621495D01*
X183328505Y-66407688D01*
X183077095Y-66239701D01*
X182797743Y-66123989D01*
X182501184Y-66065000D01*
X182198816Y-66065000D01*
X181902257Y-66123989D01*
X181622905Y-66239701D01*
X181371495Y-66407688D01*
X181157688Y-66621495D01*
X180989701Y-66872905D01*
X180873989Y-67152257D01*
X180815000Y-67448816D01*
X175735000Y-67448816D01*
X175735000Y-60663589D01*
X177664994Y-60663589D01*
X177664994Y-60936411D01*
X177718219Y-61203989D01*
X177822623Y-61456043D01*
X177974195Y-61682886D01*
X178167108Y-61875799D01*
X178393951Y-62027371D01*
X178508941Y-62075001D01*
X178393957Y-62122629D01*
X178167114Y-62274201D01*
X177974201Y-62467114D01*
X177822629Y-62693957D01*
X177718225Y-62946011D01*
X177665000Y-63213589D01*
X177665000Y-63486411D01*
X177718225Y-63753989D01*
X177822629Y-64006043D01*
X177974201Y-64232886D01*
X178167114Y-64425799D01*
X178393957Y-64577371D01*
X178646011Y-64681775D01*
X178913589Y-64735000D01*
X179186411Y-64735000D01*
X179453989Y-64681775D01*
X179706043Y-64577371D01*
X179932886Y-64425799D01*
X180125799Y-64232886D01*
X180131068Y-64225000D01*
X180951928Y-64225000D01*
X180951928Y-64340000D01*
X180964188Y-64464482D01*
X181000498Y-64584180D01*
X181059463Y-64694494D01*
X181138815Y-64791185D01*
X181235506Y-64870537D01*
X181345820Y-64929502D01*
X181465518Y-64965812D01*
X181590000Y-64978072D01*
X184090000Y-64978072D01*
X184214482Y-64965812D01*
X184334180Y-64929502D01*
X184444494Y-64870537D01*
X184541185Y-64791185D01*
X184620537Y-64694494D01*
X184679502Y-64584180D01*
X184715812Y-64464482D01*
X184728072Y-64340000D01*
X184728072Y-62340000D01*
X184715812Y-62215518D01*
X184679502Y-62095820D01*
X184665701Y-62070000D01*
X184679502Y-62044180D01*
X184715812Y-61924482D01*
X184728072Y-61800000D01*
X184728072Y-59800000D01*
X184715812Y-59675518D01*
X184679502Y-59555820D01*
X184665701Y-59530000D01*
X184679502Y-59504180D01*
X184715812Y-59384482D01*
X184728072Y-59260000D01*
X184728072Y-57260000D01*
X185111928Y-57260000D01*
X185111928Y-59260000D01*
X185124188Y-59384482D01*
X185160498Y-59504180D01*
X185174299Y-59530000D01*
X185160498Y-59555820D01*
X185124188Y-59675518D01*
X185111928Y-59800000D01*
X185111928Y-61800000D01*
X185124188Y-61924482D01*
X185160498Y-62044180D01*
X185174299Y-62070000D01*
X185160498Y-62095820D01*
X185124188Y-62215518D01*
X185111928Y-62340000D01*
X185111928Y-64340000D01*
X185124188Y-64464482D01*
X185160498Y-64584180D01*
X185219463Y-64694494D01*
X185298815Y-64791185D01*
X185395506Y-64870537D01*
X185505820Y-64929502D01*
X185625518Y-64965812D01*
X185750000Y-64978072D01*
X188250000Y-64978072D01*
X188374482Y-64965812D01*
X188494180Y-64929502D01*
X188604494Y-64870537D01*
X188701185Y-64791185D01*
X188780537Y-64694494D01*
X188839502Y-64584180D01*
X188875812Y-64464482D01*
X188888072Y-64340000D01*
X188888072Y-64225000D01*
X189968934Y-64225000D01*
X189974201Y-64232882D01*
X190167114Y-64425795D01*
X190393957Y-64577367D01*
X190646011Y-64681771D01*
X190913589Y-64734996D01*
X191186411Y-64734996D01*
X191453989Y-64681771D01*
X191706043Y-64577367D01*
X191932886Y-64425795D01*
X192125799Y-64232882D01*
X192277371Y-64006039D01*
X192381775Y-63753985D01*
X192435000Y-63486407D01*
X192435000Y-63213585D01*
X192381775Y-62946007D01*
X192277371Y-62693953D01*
X192125799Y-62467110D01*
X191932886Y-62274197D01*
X191706043Y-62122625D01*
X191591065Y-62075000D01*
X191706051Y-62027371D01*
X191932894Y-61875799D01*
X192125807Y-61682886D01*
X192277379Y-61456043D01*
X192381783Y-61203989D01*
X192435008Y-60936411D01*
X192435008Y-60663589D01*
X192381783Y-60396011D01*
X192277379Y-60143957D01*
X192125807Y-59917114D01*
X191932894Y-59724201D01*
X191706051Y-59572629D01*
X191591060Y-59524998D01*
X191706043Y-59477371D01*
X191932886Y-59325799D01*
X192125799Y-59132886D01*
X192277371Y-58906043D01*
X192381775Y-58653989D01*
X192435000Y-58386411D01*
X192435000Y-58113589D01*
X192381775Y-57846011D01*
X192277371Y-57593957D01*
X192125799Y-57367114D01*
X191932886Y-57174201D01*
X191706043Y-57022629D01*
X191453989Y-56918225D01*
X191186411Y-56865000D01*
X190913589Y-56865000D01*
X190646011Y-56918225D01*
X190393957Y-57022629D01*
X190167114Y-57174201D01*
X189976315Y-57365000D01*
X188888072Y-57365000D01*
X188888072Y-57260000D01*
X188875812Y-57135518D01*
X188839502Y-57015820D01*
X188780537Y-56905506D01*
X188701185Y-56808815D01*
X188604494Y-56729463D01*
X188494180Y-56670498D01*
X188374482Y-56634188D01*
X188250000Y-56621928D01*
X185750000Y-56621928D01*
X185625518Y-56634188D01*
X185505820Y-56670498D01*
X185395506Y-56729463D01*
X185298815Y-56808815D01*
X185219463Y-56905506D01*
X185160498Y-57015820D01*
X185124188Y-57135518D01*
X185111928Y-57260000D01*
X184728072Y-57260000D01*
X184715812Y-57135518D01*
X184679502Y-57015820D01*
X184620537Y-56905506D01*
X184541185Y-56808815D01*
X184444494Y-56729463D01*
X184334180Y-56670498D01*
X184214482Y-56634188D01*
X184090000Y-56621928D01*
X181590000Y-56621928D01*
X181465518Y-56634188D01*
X181345820Y-56670498D01*
X181235506Y-56729463D01*
X181138815Y-56808815D01*
X181059463Y-56905506D01*
X181000498Y-57015820D01*
X180964188Y-57135518D01*
X180951928Y-57260000D01*
X180951928Y-57365000D01*
X180173685Y-57365000D01*
X179982886Y-57174201D01*
X179756043Y-57022629D01*
X179503989Y-56918225D01*
X179236411Y-56865000D01*
X178963589Y-56865000D01*
X178696011Y-56918225D01*
X178443957Y-57022629D01*
X178217114Y-57174201D01*
X178024201Y-57367114D01*
X177872629Y-57593957D01*
X177768225Y-57846011D01*
X177715000Y-58113589D01*
X177715000Y-58386411D01*
X177768225Y-58653989D01*
X177872629Y-58906043D01*
X178024201Y-59132886D01*
X178217114Y-59325799D01*
X178443957Y-59477371D01*
X178533941Y-59514643D01*
X178393951Y-59572629D01*
X178167108Y-59724201D01*
X177974195Y-59917114D01*
X177822623Y-60143957D01*
X177718219Y-60396011D01*
X177664994Y-60663589D01*
X175735000Y-60663589D01*
X175735000Y-53150000D01*
X177511928Y-53150000D01*
X177511928Y-54850000D01*
X177524188Y-54974482D01*
X177560498Y-55094180D01*
X177619463Y-55204494D01*
X177698815Y-55301185D01*
X177795506Y-55380537D01*
X177905820Y-55439502D01*
X178025518Y-55475812D01*
X178150000Y-55488072D01*
X179850000Y-55488072D01*
X179974482Y-55475812D01*
X180094180Y-55439502D01*
X180204494Y-55380537D01*
X180301185Y-55301185D01*
X180380537Y-55204494D01*
X180439502Y-55094180D01*
X180460393Y-55025313D01*
X180484866Y-55055134D01*
X180710986Y-55240706D01*
X180968966Y-55378599D01*
X181248889Y-55463513D01*
X181467050Y-55485000D01*
X181612950Y-55485000D01*
X181831111Y-55463513D01*
X182111034Y-55378599D01*
X182369014Y-55240706D01*
X182595134Y-55055134D01*
X182780706Y-54829014D01*
X182810000Y-54774209D01*
X182839294Y-54829014D01*
X183024866Y-55055134D01*
X183250986Y-55240706D01*
X183508966Y-55378599D01*
X183788889Y-55463513D01*
X184007050Y-55485000D01*
X184152950Y-55485000D01*
X184371111Y-55463513D01*
X184651034Y-55378599D01*
X184909014Y-55240706D01*
X185135134Y-55055134D01*
X185320706Y-54829014D01*
X185350000Y-54774209D01*
X185379294Y-54829014D01*
X185564866Y-55055134D01*
X185790986Y-55240706D01*
X186048966Y-55378599D01*
X186328889Y-55463513D01*
X186547050Y-55485000D01*
X186692950Y-55485000D01*
X186911111Y-55463513D01*
X187191034Y-55378599D01*
X187449014Y-55240706D01*
X187675134Y-55055134D01*
X187860706Y-54829014D01*
X187890000Y-54774209D01*
X187919294Y-54829014D01*
X188104866Y-55055134D01*
X188330986Y-55240706D01*
X188588966Y-55378599D01*
X188868889Y-55463513D01*
X189087050Y-55485000D01*
X189232950Y-55485000D01*
X189451111Y-55463513D01*
X189731034Y-55378599D01*
X189989014Y-55240706D01*
X190215134Y-55055134D01*
X190400706Y-54829014D01*
X190430000Y-54774209D01*
X190459294Y-54829014D01*
X190644866Y-55055134D01*
X190870986Y-55240706D01*
X191128966Y-55378599D01*
X191408889Y-55463513D01*
X191627050Y-55485000D01*
X191772950Y-55485000D01*
X191991111Y-55463513D01*
X192271034Y-55378599D01*
X192529014Y-55240706D01*
X192755134Y-55055134D01*
X192940706Y-54829014D01*
X193078599Y-54571034D01*
X193163513Y-54291111D01*
X193192185Y-54000000D01*
X193163513Y-53708889D01*
X193078599Y-53428966D01*
X192940706Y-53170986D01*
X192811534Y-53013589D01*
X194165000Y-53013589D01*
X194165000Y-53286411D01*
X194218225Y-53553989D01*
X194322629Y-53806043D01*
X194474201Y-54032886D01*
X194667114Y-54225799D01*
X194893957Y-54377371D01*
X195146011Y-54481775D01*
X195413589Y-54535000D01*
X195686411Y-54535000D01*
X195953989Y-54481775D01*
X196206043Y-54377371D01*
X196432886Y-54225799D01*
X196623685Y-54035000D01*
X197085532Y-54035000D01*
X197098815Y-54051185D01*
X197195506Y-54130537D01*
X197231918Y-54150000D01*
X197195506Y-54169463D01*
X197098815Y-54248815D01*
X197019463Y-54345506D01*
X196960498Y-54455820D01*
X196924188Y-54575518D01*
X196911928Y-54700000D01*
X196911928Y-55500000D01*
X196924188Y-55624482D01*
X196960498Y-55744180D01*
X197019463Y-55854494D01*
X197098815Y-55951185D01*
X197115001Y-55964468D01*
X197115000Y-56326315D01*
X196924201Y-56517114D01*
X196772629Y-56743957D01*
X196668225Y-56996011D01*
X196615000Y-57263589D01*
X196615000Y-57536411D01*
X196668225Y-57803989D01*
X196772629Y-58056043D01*
X196924201Y-58282886D01*
X197117114Y-58475799D01*
X197343957Y-58627371D01*
X197596011Y-58731775D01*
X197863589Y-58785000D01*
X198136411Y-58785000D01*
X198403989Y-58731775D01*
X198656043Y-58627371D01*
X198882886Y-58475799D01*
X199075799Y-58282886D01*
X199227371Y-58056043D01*
X199331775Y-57803989D01*
X199385000Y-57536411D01*
X199385000Y-57263589D01*
X199331775Y-56996011D01*
X199227371Y-56743957D01*
X199075799Y-56517114D01*
X198885000Y-56326315D01*
X198885000Y-55964468D01*
X198901185Y-55951185D01*
X198980537Y-55854494D01*
X199039502Y-55744180D01*
X199075812Y-55624482D01*
X199088072Y-55500000D01*
X199088072Y-54988095D01*
X199098815Y-55001185D01*
X199195506Y-55080537D01*
X199305820Y-55139502D01*
X199425518Y-55175812D01*
X199550000Y-55188072D01*
X200450000Y-55188072D01*
X200574482Y-55175812D01*
X200689380Y-55140958D01*
X202093470Y-56545049D01*
X202121183Y-56578817D01*
X202154951Y-56606530D01*
X202154953Y-56606532D01*
X202173713Y-56621928D01*
X202255941Y-56689411D01*
X202409687Y-56771589D01*
X202576510Y-56822195D01*
X202706523Y-56835000D01*
X202706533Y-56835000D01*
X202749999Y-56839281D01*
X202793465Y-56835000D01*
X205159844Y-56835000D01*
X205143470Y-56854951D01*
X202804957Y-59193465D01*
X202804952Y-59193469D01*
X202761482Y-59236939D01*
X202651184Y-59215000D01*
X202348816Y-59215000D01*
X202052257Y-59273989D01*
X201772905Y-59389701D01*
X201521495Y-59557688D01*
X201307688Y-59771495D01*
X201139701Y-60022905D01*
X201023989Y-60302257D01*
X200965000Y-60598816D01*
X200965000Y-60901184D01*
X201023989Y-61197743D01*
X201139701Y-61477095D01*
X201307688Y-61728505D01*
X201494183Y-61915000D01*
X198723685Y-61915000D01*
X198532886Y-61724201D01*
X198306043Y-61572629D01*
X198053989Y-61468225D01*
X197786411Y-61415000D01*
X197513589Y-61415000D01*
X197246011Y-61468225D01*
X196993957Y-61572629D01*
X196767114Y-61724201D01*
X196574201Y-61917114D01*
X196422629Y-62143957D01*
X196318225Y-62396011D01*
X196265000Y-62663589D01*
X196265000Y-62936411D01*
X196318225Y-63203989D01*
X196422629Y-63456043D01*
X196574201Y-63682886D01*
X196767114Y-63875799D01*
X196993957Y-64027371D01*
X197246011Y-64131775D01*
X197513589Y-64185000D01*
X197786411Y-64185000D01*
X198053989Y-64131775D01*
X198306043Y-64027371D01*
X198532886Y-63875799D01*
X198723685Y-63685000D01*
X205406531Y-63685000D01*
X205450000Y-63689281D01*
X205493469Y-63685000D01*
X205493477Y-63685000D01*
X205623490Y-63672195D01*
X205790313Y-63621589D01*
X205944059Y-63539411D01*
X206078817Y-63428817D01*
X206106534Y-63395044D01*
X207238518Y-62263060D01*
X207348816Y-62285000D01*
X207651184Y-62285000D01*
X207947743Y-62226011D01*
X208227095Y-62110299D01*
X208478505Y-61942312D01*
X208692312Y-61728505D01*
X208860299Y-61477095D01*
X208976011Y-61197743D01*
X209035000Y-60901184D01*
X209035000Y-60598816D01*
X208976011Y-60302257D01*
X208860299Y-60022905D01*
X208692312Y-59771495D01*
X208505817Y-59585000D01*
X208726315Y-59585000D01*
X208917114Y-59775799D01*
X209143957Y-59927371D01*
X209396011Y-60031775D01*
X209663589Y-60085000D01*
X209936411Y-60085000D01*
X210203989Y-60031775D01*
X210456043Y-59927371D01*
X210682886Y-59775799D01*
X210875799Y-59582886D01*
X211027371Y-59356043D01*
X211055247Y-59288744D01*
X211068225Y-59353989D01*
X211172629Y-59606043D01*
X211324201Y-59832886D01*
X211517114Y-60025799D01*
X211743957Y-60177371D01*
X211996011Y-60281775D01*
X212263589Y-60335000D01*
X212536411Y-60335000D01*
X212803989Y-60281775D01*
X213056043Y-60177371D01*
X213282886Y-60025799D01*
X213475799Y-59832886D01*
X213627371Y-59606043D01*
X213635307Y-59586884D01*
X216983472Y-62935049D01*
X217011185Y-62968817D01*
X217044953Y-62996530D01*
X217044955Y-62996532D01*
X217145943Y-63079411D01*
X217299688Y-63161589D01*
X217393346Y-63190000D01*
X217466512Y-63212195D01*
X217596525Y-63225000D01*
X217596533Y-63225000D01*
X217640002Y-63229281D01*
X217683471Y-63225000D01*
X223565375Y-63225000D01*
X223574188Y-63314482D01*
X223610498Y-63434180D01*
X223669463Y-63544494D01*
X223748815Y-63641185D01*
X223845506Y-63720537D01*
X223955820Y-63779502D01*
X224075518Y-63815812D01*
X224200000Y-63828072D01*
X225900000Y-63828072D01*
X226024482Y-63815812D01*
X226144180Y-63779502D01*
X226254494Y-63720537D01*
X226351185Y-63641185D01*
X226430537Y-63544494D01*
X226489502Y-63434180D01*
X226525812Y-63314482D01*
X226538072Y-63190000D01*
X226538072Y-61490000D01*
X226525812Y-61365518D01*
X226489502Y-61245820D01*
X226430537Y-61135506D01*
X226351185Y-61038815D01*
X226254494Y-60959463D01*
X226144180Y-60900498D01*
X226075313Y-60879607D01*
X226105134Y-60855134D01*
X226290706Y-60629014D01*
X226428599Y-60371034D01*
X226513513Y-60091111D01*
X226542185Y-59800000D01*
X226513513Y-59508889D01*
X226428599Y-59228966D01*
X226290706Y-58970986D01*
X226105134Y-58744866D01*
X225879014Y-58559294D01*
X225621034Y-58421401D01*
X225341111Y-58336487D01*
X225122950Y-58315000D01*
X224977050Y-58315000D01*
X224758889Y-58336487D01*
X224478966Y-58421401D01*
X224220986Y-58559294D01*
X223994866Y-58744866D01*
X223855241Y-58915000D01*
X223342287Y-58915000D01*
X223339502Y-58905820D01*
X223280537Y-58795506D01*
X223201185Y-58698815D01*
X223104494Y-58619463D01*
X222994180Y-58560498D01*
X222874482Y-58524188D01*
X222750000Y-58511928D01*
X222050000Y-58511928D01*
X221925518Y-58524188D01*
X221805820Y-58560498D01*
X221695506Y-58619463D01*
X221598815Y-58698815D01*
X221519463Y-58795506D01*
X221460498Y-58905820D01*
X221450000Y-58940427D01*
X221439502Y-58905820D01*
X221380537Y-58795506D01*
X221301185Y-58698815D01*
X221204494Y-58619463D01*
X221094180Y-58560498D01*
X220974482Y-58524188D01*
X220850000Y-58511928D01*
X220350087Y-58511928D01*
X220385000Y-58336411D01*
X220385000Y-58063589D01*
X220331775Y-57796011D01*
X220227371Y-57543957D01*
X220075799Y-57317114D01*
X219882886Y-57124201D01*
X219656043Y-56972629D01*
X219403989Y-56868225D01*
X219136411Y-56815000D01*
X218863589Y-56815000D01*
X218596011Y-56868225D01*
X218343957Y-56972629D01*
X218117114Y-57124201D01*
X217924201Y-57317114D01*
X217772629Y-57543957D01*
X217668225Y-57796011D01*
X217615000Y-58063589D01*
X217615000Y-58336411D01*
X217658953Y-58557374D01*
X213152595Y-54051017D01*
X213175812Y-53974482D01*
X213188072Y-53850000D01*
X213188072Y-53150000D01*
X216811928Y-53150000D01*
X216811928Y-54850000D01*
X216824188Y-54974482D01*
X216860498Y-55094180D01*
X216919463Y-55204494D01*
X216998815Y-55301185D01*
X217095506Y-55380537D01*
X217205820Y-55439502D01*
X217325518Y-55475812D01*
X217450000Y-55488072D01*
X219150000Y-55488072D01*
X219274482Y-55475812D01*
X219394180Y-55439502D01*
X219504494Y-55380537D01*
X219601185Y-55301185D01*
X219680537Y-55204494D01*
X219739502Y-55094180D01*
X219760393Y-55025313D01*
X219784866Y-55055134D01*
X220010986Y-55240706D01*
X220268966Y-55378599D01*
X220548889Y-55463513D01*
X220767050Y-55485000D01*
X220912950Y-55485000D01*
X221131111Y-55463513D01*
X221411034Y-55378599D01*
X221669014Y-55240706D01*
X221895134Y-55055134D01*
X222080706Y-54829014D01*
X222110000Y-54774209D01*
X222139294Y-54829014D01*
X222324866Y-55055134D01*
X222550986Y-55240706D01*
X222808966Y-55378599D01*
X223088889Y-55463513D01*
X223307050Y-55485000D01*
X223452950Y-55485000D01*
X223671111Y-55463513D01*
X223951034Y-55378599D01*
X224209014Y-55240706D01*
X224435134Y-55055134D01*
X224620706Y-54829014D01*
X224650000Y-54774209D01*
X224679294Y-54829014D01*
X224864866Y-55055134D01*
X225090986Y-55240706D01*
X225348966Y-55378599D01*
X225628889Y-55463513D01*
X225847050Y-55485000D01*
X225992950Y-55485000D01*
X226211111Y-55463513D01*
X226491034Y-55378599D01*
X226749014Y-55240706D01*
X226975134Y-55055134D01*
X227160706Y-54829014D01*
X227190000Y-54774209D01*
X227219294Y-54829014D01*
X227404866Y-55055134D01*
X227630986Y-55240706D01*
X227888966Y-55378599D01*
X228168889Y-55463513D01*
X228387050Y-55485000D01*
X228532950Y-55485000D01*
X228751111Y-55463513D01*
X229031034Y-55378599D01*
X229289014Y-55240706D01*
X229515134Y-55055134D01*
X229700706Y-54829014D01*
X229730000Y-54774209D01*
X229759294Y-54829014D01*
X229944866Y-55055134D01*
X230170986Y-55240706D01*
X230428966Y-55378599D01*
X230708889Y-55463513D01*
X230927050Y-55485000D01*
X231072950Y-55485000D01*
X231291111Y-55463513D01*
X231571034Y-55378599D01*
X231829014Y-55240706D01*
X232055134Y-55055134D01*
X232240706Y-54829014D01*
X232378599Y-54571034D01*
X232463513Y-54291111D01*
X232492185Y-54000000D01*
X232463513Y-53708889D01*
X232378599Y-53428966D01*
X232240706Y-53170986D01*
X232055134Y-52944866D01*
X231829014Y-52759294D01*
X231571034Y-52621401D01*
X231291111Y-52536487D01*
X231072950Y-52515000D01*
X230927050Y-52515000D01*
X230708889Y-52536487D01*
X230428966Y-52621401D01*
X230170986Y-52759294D01*
X229944866Y-52944866D01*
X229759294Y-53170986D01*
X229730000Y-53225791D01*
X229700706Y-53170986D01*
X229515134Y-52944866D01*
X229289014Y-52759294D01*
X229031034Y-52621401D01*
X228751111Y-52536487D01*
X228532950Y-52515000D01*
X228387050Y-52515000D01*
X228168889Y-52536487D01*
X227888966Y-52621401D01*
X227630986Y-52759294D01*
X227404866Y-52944866D01*
X227219294Y-53170986D01*
X227190000Y-53225791D01*
X227160706Y-53170986D01*
X226975134Y-52944866D01*
X226749014Y-52759294D01*
X226491034Y-52621401D01*
X226211111Y-52536487D01*
X225992950Y-52515000D01*
X225847050Y-52515000D01*
X225628889Y-52536487D01*
X225348966Y-52621401D01*
X225090986Y-52759294D01*
X224864866Y-52944866D01*
X224679294Y-53170986D01*
X224650000Y-53225791D01*
X224620706Y-53170986D01*
X224435134Y-52944866D01*
X224209014Y-52759294D01*
X223951034Y-52621401D01*
X223671111Y-52536487D01*
X223452950Y-52515000D01*
X223307050Y-52515000D01*
X223088889Y-52536487D01*
X222808966Y-52621401D01*
X222550986Y-52759294D01*
X222324866Y-52944866D01*
X222139294Y-53170986D01*
X222110000Y-53225791D01*
X222080706Y-53170986D01*
X221895134Y-52944866D01*
X221669014Y-52759294D01*
X221411034Y-52621401D01*
X221131111Y-52536487D01*
X220912950Y-52515000D01*
X220767050Y-52515000D01*
X220548889Y-52536487D01*
X220268966Y-52621401D01*
X220010986Y-52759294D01*
X219784866Y-52944866D01*
X219760393Y-52974687D01*
X219739502Y-52905820D01*
X219680537Y-52795506D01*
X219601185Y-52698815D01*
X219504494Y-52619463D01*
X219394180Y-52560498D01*
X219274482Y-52524188D01*
X219150000Y-52511928D01*
X217450000Y-52511928D01*
X217325518Y-52524188D01*
X217205820Y-52560498D01*
X217095506Y-52619463D01*
X216998815Y-52698815D01*
X216919463Y-52795506D01*
X216860498Y-52905820D01*
X216824188Y-53025518D01*
X216811928Y-53150000D01*
X213188072Y-53150000D01*
X213188072Y-52550000D01*
X213175812Y-52425518D01*
X213139502Y-52305820D01*
X213080537Y-52195506D01*
X213001185Y-52098815D01*
X212904494Y-52019463D01*
X212794180Y-51960498D01*
X212674482Y-51924188D01*
X212550000Y-51911928D01*
X211850000Y-51911928D01*
X211725518Y-51924188D01*
X211605820Y-51960498D01*
X211495506Y-52019463D01*
X211398815Y-52098815D01*
X211319463Y-52195506D01*
X211260498Y-52305820D01*
X211250000Y-52340427D01*
X211239502Y-52305820D01*
X211180537Y-52195506D01*
X211101185Y-52098815D01*
X211004494Y-52019463D01*
X210894180Y-51960498D01*
X210774482Y-51924188D01*
X210650000Y-51911928D01*
X209950000Y-51911928D01*
X209825518Y-51924188D01*
X209705820Y-51960498D01*
X209595506Y-52019463D01*
X209498815Y-52098815D01*
X209419463Y-52195506D01*
X209360498Y-52305820D01*
X209357713Y-52315000D01*
X207394759Y-52315000D01*
X207255134Y-52144866D01*
X207029014Y-51959294D01*
X206771034Y-51821401D01*
X206491111Y-51736487D01*
X206272950Y-51715000D01*
X206127050Y-51715000D01*
X205908889Y-51736487D01*
X205628966Y-51821401D01*
X205370986Y-51959294D01*
X205144866Y-52144866D01*
X205120393Y-52174687D01*
X205099502Y-52105820D01*
X205040537Y-51995506D01*
X204961185Y-51898815D01*
X204864494Y-51819463D01*
X204754180Y-51760498D01*
X204634482Y-51724188D01*
X204510000Y-51711928D01*
X202810000Y-51711928D01*
X202685518Y-51724188D01*
X202565820Y-51760498D01*
X202455506Y-51819463D01*
X202358815Y-51898815D01*
X202314451Y-51952873D01*
X201766534Y-51404956D01*
X201738817Y-51371183D01*
X201604059Y-51260589D01*
X201450313Y-51178411D01*
X201283490Y-51127805D01*
X201153477Y-51115000D01*
X201153469Y-51115000D01*
X201110000Y-51110719D01*
X201066531Y-51115000D01*
X198343466Y-51115000D01*
X198299999Y-51110719D01*
X198256533Y-51115000D01*
X198256523Y-51115000D01*
X198126510Y-51127805D01*
X197959687Y-51178411D01*
X197805941Y-51260589D01*
X197671183Y-51371183D01*
X197643466Y-51404956D01*
X197404952Y-51643470D01*
X197371184Y-51671183D01*
X197343471Y-51704951D01*
X197343468Y-51704954D01*
X197260590Y-51805941D01*
X197178412Y-51959687D01*
X197127805Y-52126510D01*
X197121010Y-52195506D01*
X197115000Y-52256523D01*
X197115000Y-52256531D01*
X197114166Y-52265000D01*
X196623685Y-52265000D01*
X196432886Y-52074201D01*
X196206043Y-51922629D01*
X195953989Y-51818225D01*
X195686411Y-51765000D01*
X195413589Y-51765000D01*
X195146011Y-51818225D01*
X194893957Y-51922629D01*
X194667114Y-52074201D01*
X194474201Y-52267114D01*
X194322629Y-52493957D01*
X194218225Y-52746011D01*
X194165000Y-53013589D01*
X192811534Y-53013589D01*
X192755134Y-52944866D01*
X192529014Y-52759294D01*
X192271034Y-52621401D01*
X191991111Y-52536487D01*
X191772950Y-52515000D01*
X191627050Y-52515000D01*
X191408889Y-52536487D01*
X191128966Y-52621401D01*
X190870986Y-52759294D01*
X190644866Y-52944866D01*
X190459294Y-53170986D01*
X190430000Y-53225791D01*
X190400706Y-53170986D01*
X190215134Y-52944866D01*
X189989014Y-52759294D01*
X189731034Y-52621401D01*
X189451111Y-52536487D01*
X189232950Y-52515000D01*
X189087050Y-52515000D01*
X188868889Y-52536487D01*
X188588966Y-52621401D01*
X188330986Y-52759294D01*
X188104866Y-52944866D01*
X187919294Y-53170986D01*
X187890000Y-53225791D01*
X187860706Y-53170986D01*
X187675134Y-52944866D01*
X187449014Y-52759294D01*
X187191034Y-52621401D01*
X186911111Y-52536487D01*
X186692950Y-52515000D01*
X186547050Y-52515000D01*
X186328889Y-52536487D01*
X186048966Y-52621401D01*
X185790986Y-52759294D01*
X185564866Y-52944866D01*
X185379294Y-53170986D01*
X185350000Y-53225791D01*
X185320706Y-53170986D01*
X185135134Y-52944866D01*
X184909014Y-52759294D01*
X184651034Y-52621401D01*
X184371111Y-52536487D01*
X184152950Y-52515000D01*
X184007050Y-52515000D01*
X183788889Y-52536487D01*
X183508966Y-52621401D01*
X183250986Y-52759294D01*
X183024866Y-52944866D01*
X182839294Y-53170986D01*
X182810000Y-53225791D01*
X182780706Y-53170986D01*
X182595134Y-52944866D01*
X182369014Y-52759294D01*
X182111034Y-52621401D01*
X181831111Y-52536487D01*
X181612950Y-52515000D01*
X181467050Y-52515000D01*
X181248889Y-52536487D01*
X180968966Y-52621401D01*
X180710986Y-52759294D01*
X180484866Y-52944866D01*
X180460393Y-52974687D01*
X180439502Y-52905820D01*
X180380537Y-52795506D01*
X180301185Y-52698815D01*
X180204494Y-52619463D01*
X180094180Y-52560498D01*
X179974482Y-52524188D01*
X179850000Y-52511928D01*
X178150000Y-52511928D01*
X178025518Y-52524188D01*
X177905820Y-52560498D01*
X177795506Y-52619463D01*
X177698815Y-52698815D01*
X177619463Y-52795506D01*
X177560498Y-52905820D01*
X177524188Y-53025518D01*
X177511928Y-53150000D01*
X175735000Y-53150000D01*
X175735000Y-50735000D01*
X234265001Y-50735000D01*
X234265000Y-79265000D01*
G36*
X190167122Y-61875799D02*
G01*
X190393965Y-62027371D01*
X190508943Y-62074996D01*
X190393957Y-62122625D01*
X190167114Y-62274197D01*
X189986311Y-62455000D01*
X188888072Y-62455000D01*
X188888072Y-62340000D01*
X188875812Y-62215518D01*
X188839502Y-62095820D01*
X188825701Y-62070000D01*
X188839502Y-62044180D01*
X188875812Y-61924482D01*
X188888072Y-61800000D01*
X188888072Y-61685000D01*
X189976323Y-61685000D01*
X190167122Y-61875799D01*
X190167122Y-61875799D01*
G37*
X190167122Y-61875799D02*
X190393965Y-62027371D01*
X190508943Y-62074996D01*
X190393957Y-62122625D01*
X190167114Y-62274197D01*
X189986311Y-62455000D01*
X188888072Y-62455000D01*
X188888072Y-62340000D01*
X188875812Y-62215518D01*
X188839502Y-62095820D01*
X188825701Y-62070000D01*
X188839502Y-62044180D01*
X188875812Y-61924482D01*
X188888072Y-61800000D01*
X188888072Y-61685000D01*
X189976323Y-61685000D01*
X190167122Y-61875799D01*
G36*
X190167114Y-59325799D02*
G01*
X190393957Y-59477371D01*
X190508948Y-59525002D01*
X190393965Y-59572629D01*
X190167122Y-59724201D01*
X189976323Y-59915000D01*
X188888072Y-59915000D01*
X188888072Y-59800000D01*
X188875812Y-59675518D01*
X188839502Y-59555820D01*
X188825701Y-59530000D01*
X188839502Y-59504180D01*
X188875812Y-59384482D01*
X188888072Y-59260000D01*
X188888072Y-59135000D01*
X189976315Y-59135000D01*
X190167114Y-59325799D01*
X190167114Y-59325799D01*
G37*
X190167114Y-59325799D02*
X190393957Y-59477371D01*
X190508948Y-59525002D01*
X190393965Y-59572629D01*
X190167122Y-59724201D01*
X189976323Y-59915000D01*
X188888072Y-59915000D01*
X188888072Y-59800000D01*
X188875812Y-59675518D01*
X188839502Y-59555820D01*
X188825701Y-59530000D01*
X188839502Y-59504180D01*
X188875812Y-59384482D01*
X188888072Y-59260000D01*
X188888072Y-59135000D01*
X189976315Y-59135000D01*
X190167114Y-59325799D01*
G36*
X180951928Y-61800000D02*
G01*
X180964188Y-61924482D01*
X181000498Y-62044180D01*
X181014299Y-62070000D01*
X181000498Y-62095820D01*
X180964188Y-62215518D01*
X180951928Y-62340000D01*
X180951928Y-62455000D01*
X180113685Y-62455000D01*
X179932886Y-62274201D01*
X179706043Y-62122629D01*
X179591053Y-62074999D01*
X179706037Y-62027371D01*
X179932880Y-61875799D01*
X180123679Y-61685000D01*
X180951928Y-61685000D01*
X180951928Y-61800000D01*
X180951928Y-61800000D01*
G37*
X180951928Y-61800000D02*
X180964188Y-61924482D01*
X181000498Y-62044180D01*
X181014299Y-62070000D01*
X181000498Y-62095820D01*
X180964188Y-62215518D01*
X180951928Y-62340000D01*
X180951928Y-62455000D01*
X180113685Y-62455000D01*
X179932886Y-62274201D01*
X179706043Y-62122629D01*
X179591053Y-62074999D01*
X179706037Y-62027371D01*
X179932880Y-61875799D01*
X180123679Y-61685000D01*
X180951928Y-61685000D01*
X180951928Y-61800000D01*
G36*
X180951928Y-59260000D02*
G01*
X180964188Y-59384482D01*
X181000498Y-59504180D01*
X181014299Y-59530000D01*
X181000498Y-59555820D01*
X180964188Y-59675518D01*
X180951928Y-59800000D01*
X180951928Y-59915000D01*
X180123679Y-59915000D01*
X179932880Y-59724201D01*
X179706037Y-59572629D01*
X179616053Y-59535357D01*
X179756043Y-59477371D01*
X179982886Y-59325799D01*
X180173685Y-59135000D01*
X180951928Y-59135000D01*
X180951928Y-59260000D01*
X180951928Y-59260000D01*
G37*
X180951928Y-59260000D02*
X180964188Y-59384482D01*
X181000498Y-59504180D01*
X181014299Y-59530000D01*
X181000498Y-59555820D01*
X180964188Y-59675518D01*
X180951928Y-59800000D01*
X180951928Y-59915000D01*
X180123679Y-59915000D01*
X179932880Y-59724201D01*
X179706037Y-59572629D01*
X179616053Y-59535357D01*
X179756043Y-59477371D01*
X179982886Y-59325799D01*
X180173685Y-59135000D01*
X180951928Y-59135000D01*
X180951928Y-59260000D01*
G36*
X203807688Y-61728505D02*
G01*
X203994183Y-61915000D01*
X203505817Y-61915000D01*
X203692312Y-61728505D01*
X203750000Y-61642169D01*
X203807688Y-61728505D01*
X203807688Y-61728505D01*
G37*
X203807688Y-61728505D02*
X203994183Y-61915000D01*
X203505817Y-61915000D01*
X203692312Y-61728505D01*
X203750000Y-61642169D01*
X203807688Y-61728505D01*
G36*
X211260498Y-54094180D02*
G01*
X211315001Y-54196146D01*
X211315001Y-54306522D01*
X211310719Y-54350000D01*
X211327805Y-54523490D01*
X211378412Y-54690313D01*
X211460590Y-54844059D01*
X211543468Y-54945046D01*
X211543471Y-54945049D01*
X211571184Y-54978817D01*
X211604952Y-55006530D01*
X216993470Y-60395049D01*
X217021183Y-60428817D01*
X217054951Y-60456530D01*
X217054953Y-60456532D01*
X217115879Y-60506533D01*
X217155941Y-60539411D01*
X217309687Y-60621589D01*
X217425903Y-60656843D01*
X217476509Y-60672195D01*
X217491306Y-60673652D01*
X217606523Y-60685000D01*
X217606531Y-60685000D01*
X217650000Y-60689281D01*
X217693469Y-60685000D01*
X218956523Y-60685000D01*
X219000000Y-60689282D01*
X219043476Y-60685000D01*
X219557713Y-60685000D01*
X219560498Y-60694180D01*
X219619463Y-60804494D01*
X219698815Y-60901185D01*
X219795506Y-60980537D01*
X219905820Y-61039502D01*
X220025518Y-61075812D01*
X220150000Y-61088072D01*
X220850000Y-61088072D01*
X220974482Y-61075812D01*
X221094180Y-61039502D01*
X221204494Y-60980537D01*
X221301185Y-60901185D01*
X221380537Y-60804494D01*
X221439502Y-60694180D01*
X221450000Y-60659573D01*
X221460498Y-60694180D01*
X221519463Y-60804494D01*
X221598815Y-60901185D01*
X221695506Y-60980537D01*
X221805820Y-61039502D01*
X221925518Y-61075812D01*
X222050000Y-61088072D01*
X222750000Y-61088072D01*
X222874482Y-61075812D01*
X222994180Y-61039502D01*
X223104494Y-60980537D01*
X223201185Y-60901185D01*
X223280537Y-60804494D01*
X223339502Y-60694180D01*
X223342287Y-60685000D01*
X223855241Y-60685000D01*
X223994866Y-60855134D01*
X224024687Y-60879607D01*
X223955820Y-60900498D01*
X223845506Y-60959463D01*
X223748815Y-61038815D01*
X223669463Y-61135506D01*
X223610498Y-61245820D01*
X223574188Y-61365518D01*
X223565375Y-61455000D01*
X218006581Y-61455000D01*
X211906536Y-55354956D01*
X211878819Y-55321183D01*
X211744061Y-55210589D01*
X211590315Y-55128411D01*
X211423492Y-55077805D01*
X211293479Y-55065000D01*
X211293471Y-55065000D01*
X211250002Y-55060719D01*
X211206533Y-55065000D01*
X203116579Y-55065000D01*
X202731965Y-54680386D01*
X202810000Y-54688072D01*
X204510000Y-54688072D01*
X204634482Y-54675812D01*
X204754180Y-54639502D01*
X204864494Y-54580537D01*
X204961185Y-54501185D01*
X205040537Y-54404494D01*
X205099502Y-54294180D01*
X205120393Y-54225313D01*
X205144866Y-54255134D01*
X205370986Y-54440706D01*
X205628966Y-54578599D01*
X205908889Y-54663513D01*
X206127050Y-54685000D01*
X206272950Y-54685000D01*
X206491111Y-54663513D01*
X206771034Y-54578599D01*
X207029014Y-54440706D01*
X207255134Y-54255134D01*
X207394759Y-54085000D01*
X209357713Y-54085000D01*
X209360498Y-54094180D01*
X209419463Y-54204494D01*
X209498815Y-54301185D01*
X209595506Y-54380537D01*
X209705820Y-54439502D01*
X209825518Y-54475812D01*
X209950000Y-54488072D01*
X210650000Y-54488072D01*
X210774482Y-54475812D01*
X210894180Y-54439502D01*
X211004494Y-54380537D01*
X211101185Y-54301185D01*
X211180537Y-54204494D01*
X211239502Y-54094180D01*
X211250000Y-54059573D01*
X211260498Y-54094180D01*
X211260498Y-54094180D01*
G37*
X211260498Y-54094180D02*
X211315001Y-54196146D01*
X211315001Y-54306522D01*
X211310719Y-54350000D01*
X211327805Y-54523490D01*
X211378412Y-54690313D01*
X211460590Y-54844059D01*
X211543468Y-54945046D01*
X211543471Y-54945049D01*
X211571184Y-54978817D01*
X211604952Y-55006530D01*
X216993470Y-60395049D01*
X217021183Y-60428817D01*
X217054951Y-60456530D01*
X217054953Y-60456532D01*
X217115879Y-60506533D01*
X217155941Y-60539411D01*
X217309687Y-60621589D01*
X217425903Y-60656843D01*
X217476509Y-60672195D01*
X217491306Y-60673652D01*
X217606523Y-60685000D01*
X217606531Y-60685000D01*
X217650000Y-60689281D01*
X217693469Y-60685000D01*
X218956523Y-60685000D01*
X219000000Y-60689282D01*
X219043476Y-60685000D01*
X219557713Y-60685000D01*
X219560498Y-60694180D01*
X219619463Y-60804494D01*
X219698815Y-60901185D01*
X219795506Y-60980537D01*
X219905820Y-61039502D01*
X220025518Y-61075812D01*
X220150000Y-61088072D01*
X220850000Y-61088072D01*
X220974482Y-61075812D01*
X221094180Y-61039502D01*
X221204494Y-60980537D01*
X221301185Y-60901185D01*
X221380537Y-60804494D01*
X221439502Y-60694180D01*
X221450000Y-60659573D01*
X221460498Y-60694180D01*
X221519463Y-60804494D01*
X221598815Y-60901185D01*
X221695506Y-60980537D01*
X221805820Y-61039502D01*
X221925518Y-61075812D01*
X222050000Y-61088072D01*
X222750000Y-61088072D01*
X222874482Y-61075812D01*
X222994180Y-61039502D01*
X223104494Y-60980537D01*
X223201185Y-60901185D01*
X223280537Y-60804494D01*
X223339502Y-60694180D01*
X223342287Y-60685000D01*
X223855241Y-60685000D01*
X223994866Y-60855134D01*
X224024687Y-60879607D01*
X223955820Y-60900498D01*
X223845506Y-60959463D01*
X223748815Y-61038815D01*
X223669463Y-61135506D01*
X223610498Y-61245820D01*
X223574188Y-61365518D01*
X223565375Y-61455000D01*
X218006581Y-61455000D01*
X211906536Y-55354956D01*
X211878819Y-55321183D01*
X211744061Y-55210589D01*
X211590315Y-55128411D01*
X211423492Y-55077805D01*
X211293479Y-55065000D01*
X211293471Y-55065000D01*
X211250002Y-55060719D01*
X211206533Y-55065000D01*
X203116579Y-55065000D01*
X202731965Y-54680386D01*
X202810000Y-54688072D01*
X204510000Y-54688072D01*
X204634482Y-54675812D01*
X204754180Y-54639502D01*
X204864494Y-54580537D01*
X204961185Y-54501185D01*
X205040537Y-54404494D01*
X205099502Y-54294180D01*
X205120393Y-54225313D01*
X205144866Y-54255134D01*
X205370986Y-54440706D01*
X205628966Y-54578599D01*
X205908889Y-54663513D01*
X206127050Y-54685000D01*
X206272950Y-54685000D01*
X206491111Y-54663513D01*
X206771034Y-54578599D01*
X207029014Y-54440706D01*
X207255134Y-54255134D01*
X207394759Y-54085000D01*
X209357713Y-54085000D01*
X209360498Y-54094180D01*
X209419463Y-54204494D01*
X209498815Y-54301185D01*
X209595506Y-54380537D01*
X209705820Y-54439502D01*
X209825518Y-54475812D01*
X209950000Y-54488072D01*
X210650000Y-54488072D01*
X210774482Y-54475812D01*
X210894180Y-54439502D01*
X211004494Y-54380537D01*
X211101185Y-54301185D01*
X211180537Y-54204494D01*
X211239502Y-54094180D01*
X211250000Y-54059573D01*
X211260498Y-54094180D01*
G36*
X198911928Y-54261905D02*
G01*
X198901185Y-54248815D01*
X198804494Y-54169463D01*
X198768082Y-54150000D01*
X198804494Y-54130537D01*
X198901185Y-54051185D01*
X198911928Y-54038095D01*
X198911928Y-54261905D01*
X198911928Y-54261905D01*
G37*
X198911928Y-54261905D02*
X198901185Y-54248815D01*
X198804494Y-54169463D01*
X198768082Y-54150000D01*
X198804494Y-54130537D01*
X198901185Y-54051185D01*
X198911928Y-54038095D01*
X198911928Y-54261905D01*
G36*
X202136510Y-54072195D02*
G01*
X202174482Y-54075935D01*
X202179614Y-54128035D01*
X202118227Y-54066649D01*
X202136510Y-54072195D01*
X202136510Y-54072195D01*
G37*
X202136510Y-54072195D02*
X202174482Y-54075935D01*
X202179614Y-54128035D01*
X202118227Y-54066649D01*
X202136510Y-54072195D01*
G36*
X201141772Y-53283351D02*
G01*
X201123490Y-53277805D01*
X200993477Y-53265000D01*
X200993469Y-53265000D01*
X200950000Y-53260719D01*
X200906531Y-53265000D01*
X200859981Y-53265000D01*
X200804494Y-53219463D01*
X200694180Y-53160498D01*
X200574482Y-53124188D01*
X200450000Y-53111928D01*
X199550000Y-53111928D01*
X199425518Y-53124188D01*
X199305820Y-53160498D01*
X199195506Y-53219463D01*
X199098815Y-53298815D01*
X199088072Y-53311905D01*
X199088072Y-52885000D01*
X200743422Y-52885000D01*
X201141772Y-53283351D01*
X201141772Y-53283351D01*
G37*
X201141772Y-53283351D02*
X201123490Y-53277805D01*
X200993477Y-53265000D01*
X200993469Y-53265000D01*
X200950000Y-53260719D01*
X200906531Y-53265000D01*
X200859981Y-53265000D01*
X200804494Y-53219463D01*
X200694180Y-53160498D01*
X200574482Y-53124188D01*
X200450000Y-53111928D01*
X199550000Y-53111928D01*
X199425518Y-53124188D01*
X199305820Y-53160498D01*
X199195506Y-53219463D01*
X199098815Y-53298815D01*
X199088072Y-53311905D01*
X199088072Y-52885000D01*
X200743422Y-52885000D01*
X201141772Y-53283351D01*
M02*
