G04 #@! TF.GenerationSoftware,KiCad,Pcbnew,(5.1.4)-1*
G04 #@! TF.CreationDate,2019-12-04T23:12:45+01:00*
G04 #@! TF.ProjectId,instru_bab_v2,696e7374-7275-45f6-9261-625f76322e6b,rev?*
G04 #@! TF.SameCoordinates,Original*
G04 #@! TF.FileFunction,Other,Fab,Bot*
%FSLAX46Y46*%
G04 Gerber Fmt 4.6, Leading zero omitted, Abs format (unit mm)*
G04 Created by KiCad (PCBNEW (5.1.4)-1) date 2019-12-04 23:12:45*
%MOMM*%
%LPD*%
G04 APERTURE LIST*
%ADD10C,0.200000*%
%ADD11C,0.150000*%
%ADD12C,0.100000*%
G04 APERTURE END LIST*
D10*
X239666666Y-50000000D02*
G75*
G03X239666666Y-50000000I-1666666J0D01*
G01*
X235500000Y-50000000D02*
X240500000Y-50000000D01*
X238000000Y-47500000D02*
X238000000Y-52500000D01*
X170666666Y-50900000D02*
G75*
G03X170666666Y-50900000I-1666666J0D01*
G01*
X166500000Y-50900000D02*
X171500000Y-50900000D01*
X169000000Y-48400000D02*
X169000000Y-53400000D01*
X170666666Y-80000000D02*
G75*
G03X170666666Y-80000000I-1666666J0D01*
G01*
X166500000Y-80000000D02*
X171500000Y-80000000D01*
X169000000Y-77500000D02*
X169000000Y-82500000D01*
X239666666Y-80000000D02*
G75*
G03X239666666Y-80000000I-1666666J0D01*
G01*
X235500000Y-80000000D02*
X240500000Y-80000000D01*
X238000000Y-77500000D02*
X238000000Y-82500000D01*
X139667825Y-108334814D02*
G75*
G03X139667825Y-108334814I-1666666J0D01*
G01*
X135501159Y-108334814D02*
X140501159Y-108334814D01*
X138001159Y-105834814D02*
X138001159Y-110834814D01*
X139667825Y-33334814D02*
G75*
G03X139667825Y-33334814I-1666666J0D01*
G01*
X135501159Y-33334814D02*
X140501159Y-33334814D01*
X138001159Y-30834814D02*
X138001159Y-35834814D01*
X39667825Y-108334814D02*
G75*
G03X39667825Y-108334814I-1666666J0D01*
G01*
X35501159Y-108334814D02*
X40501159Y-108334814D01*
X38001159Y-105834814D02*
X38001159Y-110834814D01*
X39667825Y-33334814D02*
G75*
G03X39667825Y-33334814I-1666666J0D01*
G01*
X35501159Y-33334814D02*
X40501159Y-33334814D01*
X38001159Y-30834814D02*
X38001159Y-35834814D01*
X235000000Y-50000000D02*
X175000000Y-50000000D01*
X235000000Y-80000000D02*
X235000000Y-50000000D01*
X175000000Y-80000000D02*
X235000000Y-80000000D01*
X175000000Y-50000000D02*
X175000000Y-80000000D01*
D11*
X43001159Y-103334814D02*
X33001159Y-103334814D01*
X43001159Y-113334814D02*
X43001159Y-103334814D01*
X133001159Y-113334814D02*
X43001159Y-113334814D01*
X133001159Y-103334814D02*
X133001159Y-113334814D01*
X143001159Y-103334814D02*
X133001159Y-103334814D01*
X143001159Y-38334814D02*
X143001159Y-103334814D01*
X133001159Y-38334814D02*
X143001159Y-38334814D01*
X133001159Y-28334814D02*
X133001159Y-38334814D01*
X43001159Y-28334814D02*
X133001159Y-28334814D01*
X43001159Y-38334814D02*
X43001159Y-28334814D01*
X33001159Y-38334814D02*
X43001159Y-38334814D01*
X33001159Y-103334814D02*
X33001159Y-38334814D01*
D12*
X222450000Y-60420000D02*
X222450000Y-59180000D01*
X220450000Y-60420000D02*
X222450000Y-60420000D01*
X220450000Y-59180000D02*
X220450000Y-60420000D01*
X222450000Y-59180000D02*
X220450000Y-59180000D01*
X198300000Y-55100000D02*
X198300000Y-52650000D01*
X198850000Y-55670000D02*
X199700000Y-55670000D01*
X198300000Y-55100000D02*
X198850000Y-55670000D01*
X199700000Y-55670000D02*
X199700000Y-52630000D01*
X198300000Y-52630000D02*
X199700000Y-52630000D01*
X210250000Y-52580000D02*
X210250000Y-53820000D01*
X212250000Y-52580000D02*
X210250000Y-52580000D01*
X212250000Y-53820000D02*
X212250000Y-52580000D01*
X210250000Y-53820000D02*
X212250000Y-53820000D01*
M02*
